<?xml version="1.0" encoding="UTF-8"?>
<svg width="650px" height="467px" viewBox="0 0 650 467" version="1.1" xmlns="http://www.w3.org/2000/svg" xmlns:xlink="http://www.w3.org/1999/xlink">
    <!-- Generator: Sketch 63.1 (92452) - https://sketch.com -->
    <title>11</title>
    <desc>Created with Sketch.</desc>
    <g id="Page-1" stroke="none" stroke-width="1" fill="none" fill-rule="evenodd">
        <g id="11">
            <path d="M553.5,108.18 C553.5,90.24 539.37,71.4 521.21,71.4 C500.27,71.4 487.21,87.16 486.02,105.4 C484.59,127.83 496.95,139.75 483.12,163.25 C476.31,174.83 462.8,182.58 450.35,183.32 C511.68,192.49 553.5,147.25 553.5,108.18 Z" id="Path" fill="#FFFFFF" fill-rule="nonzero"></path>
            <path d="M436.82,8.37 C421.29,17.37 412.02,39 421.11,54.73 C431.57,72.86 451.77,76.31 468.17,68.19 C488.31,58.19 492.46,41.56 519.72,41.78 C533.15,41.89 546.62,49.72 553.49,60.13 C530.74,2.44 470.65,-11.16 436.82,8.37 Z" id="Path" fill="#FFFFFF" fill-rule="nonzero"></path>
            <path d="M408.72,159.33 C424.26,168.33 447.64,165.49 456.72,149.75 C467.19,131.62 460.07,112.41 444.85,102.27 C426.14,89.81 409.63,94.55 396.2,70.83 C389.58,59.14 389.62,43.57 395.2,32.41 C356.62,81 374.89,139.79 408.72,159.33 Z" id="Path" fill="#FFFFFF" fill-rule="nonzero"></path>
            <path d="M166.81,36.65 L181.65,77.65 L177.36,77.65 L173.43,66.65 L154.72,66.65 L150.8,77.65 L146.5,77.65 L161.35,36.65 L166.81,36.65 Z M163.945,40.149 L155.95,63.09 L172.14,63.09 L168.694,53.192 L164.05,39.85 L164.049,39.851 L163.945,40.149 Z" id="Combined-Shape" fill="#FFFFFF" fill-rule="nonzero"></path>
            <polygon id="Path" fill="#FFFFFF" fill-rule="nonzero" points="191.09 36.72 187.1 36.72 187.1 77.72 191.09 77.66"></polygon>
            <rect id="Rectangle" fill="#FFFFFF" fill-rule="nonzero" x="200.55" y="36.72" width="3.86" height="5.57"></rect>
            <rect id="Rectangle" fill="#FFFFFF" fill-rule="nonzero" x="200.56" y="46.9" width="3.86" height="30.79"></rect>
            <path d="M225.82,46.41 C229.258729,46.4384263 232.672389,46.9983744 235.94,48.07 L235.94,48.07 L235.940545,72.7944163 C235.947895,74.1977765 236.054483,75.42 237.6,75.42 C238.013161,75.4095641 238.423233,75.3457003 238.82,75.23 L238.82,75.23 L238.82,77.71 C238.039964,78.0985942 237.181449,78.303817 236.31,78.31 C234.638083,78.4229455 233.091364,77.4216488 232.51,75.85 C229.897839,77.5403593 226.851375,78.4365824 223.74,78.430036 C214.66,78.430036 210.86,72.79 210.82,62.67 C210.82,50.09 217.91,46.41 225.82,46.41 Z M225.86,49.64 C221.467333,49.6546667 217.676978,51.4063556 215.967822,56.3187437 L215.955233,56.3546163 C215.330178,58.1534667 214.978,60.3753333 214.97,63.09 C214.97,70.73 217.67,75.09 224.72,75.09 C226.24941,75.0847077 227.759787,74.8243962 229.190948,74.3264388 C230.169895,73.9936032 231.112613,73.5495391 232,73 L232,50.64 C230.010474,50.0198789 227.943482,49.6832352 225.86,49.64 Z" id="Combined-Shape" fill="#FFFFFF" fill-rule="nonzero"></path>
            <path d="M248.64,51.69 C251.347559,50.2842836 254.35946,49.5665101 257.41,49.6 C262.13,49.6 265.14,50.76 265.14,57.21 L265.14,77.69 L268.94,77.69 L268.94,56.22 C268.94,48.07 264.52,46.1 258.57,46.1 C253.824626,46.2990423 249.152208,47.3384859 244.77,49.17 L244.77,77.69 L248.64,77.69 L248.64,51.69 Z" id="Path" fill="#FFFFFF" fill-rule="nonzero"></path>
            <polygon id="Path" fill="#FFFFFF" fill-rule="nonzero" points="276.36 77.69 297.49 77.69 297.49 74.32 280.22 74.32 297.76 50.21 297.4 46.9 277.54 46.9 277.46 50.21 293.47 50.21 275.87 74.63"></polygon>
            <path d="M317.22,46.41 C320.658729,46.4384263 324.072389,46.9983744 327.34,48.07 L327.34,48.07 L327.34,72.48 C327.34,74.01 327.34,75.42 329,75.42 C329.38985,75.4057938 329.776298,75.3419458 330.15,75.23 L330.15,75.23 L330.15,77.73 C329.376742,78.1053267 328.529509,78.3034698 327.67,78.31 C325.997205,78.4263401 324.448626,77.4238393 323.87,75.85 C321.257839,77.5403593 318.211375,78.4365824 315.1,78.430036 C306.02,78.430036 302.22,72.79 302.22,62.67 C302.22,50.09 309.31,46.41 317.22,46.41 Z M306.32,63.09 C306.32,70.73 309.02,75.09 316.08,75.09 C318.640872,75.0811384 321.148383,74.3572853 323.32,73 L323.32,73 L323.32,50.64 C321.330291,50.0206558 319.263409,49.6840301 317.18,49.64 C311.23,49.66 306.32,52.91 306.32,63 Z" id="Combined-Shape" fill="#FFFFFF" fill-rule="nonzero"></path>
            <polygon id="Path" fill="#FFFFFF" fill-rule="nonzero" points="129.67 76.72 71.5 76.72 71.5 89.03 91.83 89.03 91.83 148.19 107.66 148.19 107.66 89.03 129.67 89.03"></polygon>
            <path d="M154.6,92.6 C165.83,92.6 174.17,97.73 174.17,108.54 C174.17,123.09 160.08,127.9 149.17,127.9 C146.570705,127.903909 143.98207,127.567722 141.47,126.9 C141.68,134.92 149.6,137.49 157.83,137.49 C162.138052,137.474793 166.41812,136.796862 170.52,135.48 L170.52,135.48 L172.74,146.04 C170.42,146.94 162.92,149.19 152.03,149.19 C132.98,149.19 125.28,136.89 125.28,122.45 C125.28,107.26 133.2,92.6 154.6,92.6 Z M159.23,108.71 C159.110791,105.737631 156.634106,103.407679 153.66,103.47 L153.314786,103.473459 C148.87401,103.562938 145.583244,105.384688 143.444057,108.487878 C141.673703,111.054761 140.692018,114.495288 140.5,118.55 L140.5,118.549 L140.5,118.57 C141.933538,119.01691 143.42048,119.266417 144.919818,119.312268 L145.42,119.32 C151.95,119.32 159.23,115.79 159.23,108.73 L159.23,108.73 L159.23,108.71 L159.23,108.71 Z" id="Combined-Shape" fill="#FFFFFF" fill-rule="nonzero"></path>
            <path d="M209.82,92.24 C216.852188,92.2742076 223.804846,93.730048 230.26,96.52 L230.26,96.52 L230.26,135.13 C230.26,137.28 231.86,138.13 233.79,138.13 L233.79,138.13 C235.117857,138.119228 236.420234,137.764348 237.57,137.1 L237.57,137.1 L237.57,147.1 C234.221122,148.593859 230.606288,149.3998 226.94,149.47 C222.02,149.47 217.85,147.76 216.24,143.91 C212.889034,147.472497 208.190103,149.455199 203.3,149.37 C186.61,149.37 180.5,136.21 180.61,121.55 C180.72,106.89 187.57,92.24 209.82,92.24 Z M207.36,138.130174 C210.189448,138.143872 212.96071,137.326749 215.33,135.78 L215.33,135.78 L215.22,104.97 C213.279134,103.949853 211.099867,103.469792 208.91,103.58 L209.285927,103.567804 C209.144048,103.569396 209.002052,103.573457 208.86,103.58 C198.27,103.58 195.86,113.31 195.86,122.51 C195.86,130.416543 199.102884,137.951927 207.027039,138.126907 L207.037362,138.126143 L207.037362,138.126143 L207.10962,138.128461 C207.176086,138.129496 207.242879,138.130015 207.31,138.130015 Z" id="Combined-Shape" fill="#FFFFFF" fill-rule="nonzero"></path>
            <path d="M307.71,92.13 C300.82088,92.1747546 294.014079,93.6314101 287.71,96.41 C283.64,93 278,92.13 272,92.13 C260.44,92.13 249.32,96.62 244.5,98.87 L244.5,148.19 L259.37,148.19 L259.37,105.93 C262.480075,104.333017 265.93419,103.522707 269.43,103.57 C274.43,103.57 278.63,105.29 278.63,112.88 L278.63,148.19 L293.29,148.19 L293.29,111.28 C293.264902,109.558824 293.121228,107.841422 292.86,106.14 C296.223286,104.478728 299.918918,103.600118 303.67,103.57 C308.8,103.57 312.44,105.93 312.44,112.88 L312.44,148.19 L327.31,148.19 L327.31,111.28 C327.29,96.62 318.52,92.13 307.71,92.13 Z" id="Path" fill="#FFFFFF" fill-rule="nonzero"></path>
            <path d="M43.52,388.22 C41.0843301,384.929761 37.0608329,383.212508 33,383.73 C26.46,384.396667 20.96,389.046667 16.5,397.68 C12.0778,406.167188 9.93131539,415.655821 10.27,425.22 C10.45,431.18 11.93,435.846667 14.71,439.22 C17.2516272,442.498885 21.3496914,444.17242 25.46,443.61 C31.8933333,442.943333 37.3233333,438.276667 41.75,429.61 C46.1405638,421.133809 48.2757144,411.670271 47.95,402.13 C47.7566667,396.283333 46.28,391.646667 43.52,388.22 Z M34.07,423.87 C32.46,431.06 30.23,434.8 27.35,435.09 C24.03,435.42 22.25,432.01 22.05,424.84 C21.8149212,417.62197 22.5242623,410.404172 24.16,403.37 C25.8,396.256667 28.09,392.553333 31.03,392.26 C34.22,391.93 35.92,395.36 36.16,402.53 C36.3597834,409.70279 35.6576183,416.872265 34.07,423.87 L34.07,423.87 Z M71.32,393.87 C69.0786629,394.173874 66.9257961,394.943728 65,396.13 C65.519635,397.37795 65.8109252,398.709078 65.86,400.06 C65.9666667,403.393333 65.4233333,408.99 64.23,416.85 C63.0366667,424.71 62.4966667,430.306667 62.61,433.64 C62.73,437.5 64.45,439.28 67.75,438.95 C69.8882849,438.636274 71.8598447,437.615287 73.35,436.05 C72.2140642,434.255915 71.6170833,432.173423 71.63,430.05 C71.45,425.01 72.5533333,415.433333 74.94,401.32 C75.1896091,399.964583 75.3068273,398.588106 75.29,397.21 C75.22,394.75 73.89,393.64 71.32,393.88 L71.32,393.87 Z M58.58,384.38 C56.3251235,384.666598 54.1589235,385.437561 52.23,386.64 C52.7527919,387.886954 53.0442096,389.218664 53.09,390.57 C52.9939195,394.383772 52.6599371,398.187831 52.09,401.96 L49.35,424.32 C48.8258617,427.934691 48.5252905,431.578282 48.45,435.23 C48.59,439.08 50.31,440.86 53.62,440.52 C55.7654177,440.199244 57.746555,439.184087 59.26,437.63 C58.1287058,435.833319 57.528932,433.753179 57.53,431.63 C57.5182307,428.38139 57.7421517,425.136206 58.2,421.92 L60.91,400.03 C60.91,399.74 61.31,397.69 61.97,393.9 C62.3711794,391.861298 62.5688167,389.787781 62.56,387.71 C62.5,385.236667 61.1733333,384.13 58.58,384.39 L58.58,384.38 Z M224.8,396 C225.666667,388.753333 226.666667,383.523333 227.8,380.31 C225.996941,379.385751 223.96694,378.997101 221.95,379.19 C220.386305,379.298285 218.974518,380.164779 218.17,381.51 C216.250399,380.141662 213.892149,379.532507 211.55,379.8 C206.53,380.293333 202.36,384.376667 199.04,392.05 C195.793264,399.300089 194.224302,407.189336 194.45,415.13 C194.71,423 197.08,426.72 201.52,426.28 C205.813333,425.873333 210.3,419.606667 214.98,407.48 C214.675269,410.693834 214.55174,413.922277 214.61,417.15 C214.776667,422.11 216.653333,424.416667 220.24,424.07 C222.237152,423.825225 224.045488,422.769157 225.24,421.15 C224.248864,418.628872 223.723681,415.948745 223.69,413.24 C223.633737,407.473807 224.004752,401.711369 224.8,396 L224.8,396 Z M210.91,407.18 C208.37,413.14 206.576667,416.173333 205.53,416.28 C204.42,416.38 203.8,414.89 203.71,411.77 C203.630563,406.404799 204.255907,401.052389 205.57,395.85 C206.983333,389.85 208.783333,386.763333 210.97,386.59 C212.9,386.39 214.91,387.87 216.97,391 C215.232834,396.495078 213.210084,401.895755 210.91,407.18 L210.91,407.18 Z M158.49,421 C162.028848,414.528124 163.756202,407.221415 163.49,399.85 C163.32,395.35 162.13,391.79 159.88,389.15 C157.800824,386.593663 154.548601,385.292774 151.28,385.71 C145.946667,386.236667 141.466667,389.826667 137.84,396.48 C134.275835,402.960248 132.547103,410.290068 132.84,417.68 C133,422.273333 134.213333,425.863333 136.48,428.45 C138.631629,430.997369 141.935846,432.268512 145.24,431.82 C150.473333,431.273333 154.89,427.666667 158.49,421 Z M152.25,416.6 C150.916667,422.14 149.09,425.026667 146.77,425.26 C144.07,425.513333 142.626667,422.883333 142.44,417.37 C142.24732,411.807587 142.822742,406.245178 144.15,400.84 C145.483333,395.366667 147.346667,392.513333 149.74,392.28 C152.326667,392.033333 153.72,394.666667 153.92,400.18 C154.088691,405.689775 153.527145,411.197633 152.25,416.56 L152.25,416.6 Z M106.94,405.27 C106.793333,400.776667 105.59,397.213333 103.33,394.58 C101.261891,392.020549 98.0134173,390.71813 94.75,391.14 C89.4166667,391.666667 84.9366667,395.253333 81.31,401.9 C77.7434486,408.37933 76.0145587,415.709823 76.31,423.1 C76.46,427.7 77.68,431.3 79.94,433.89 C82.0904907,436.431468 85.3920949,437.69551 88.69,437.24 C93.9433333,436.733333 98.37,433.13 101.97,426.43 C105.510493,419.941721 107.22794,412.615793 106.94,405.23 L106.94,405.27 Z M95.67,422 C94.37,427.53 92.54,430.43 90.2,430.66 C87.4866667,430.92 86.04,428.29 85.86,422.77 C85.6678306,417.207605 86.243245,411.645265 87.57,406.24 C88.89,400.78 90.75,397.92 93.16,397.69 C95.76,397.43 97.1533333,400.06 97.34,405.58 C97.5122348,411.103113 96.950665,416.624655 95.67,422 L95.67,422 Z M195.83,387.43 C195.73,384.43 193.02,383.11 187.7,383.43 C188.01475,384.64236 188.21892,385.880764 188.31,387.13 C188.41,390.15 187.216667,394.893333 184.73,401.36 L179.17,415 C178.15,408.266667 177.203333,400.443333 176.33,391.53 C175.57,386.63 174.07,384.3 171.79,384.53 C169.32,384.77 166.95,386.09 164.65,388.53 C166.97,392.14 169.38,403.34 172.65,423.85 C171.423452,427.431936 169.57518,430.769659 167.19,433.71 C164.98,436.25 161.98,439.98 156.19,439.45 C154.48,439.28 152.33,438.36 151.37,434.92 C146.18,439.06 145.08,446.36 148.3,450.25 C150.312585,452.347069 153.269944,453.248287 156.11,452.63 C162.7,450.79 166.67,445.28 168.69,442.77 C174.37,435.68 178.69,427.77 184.38,416.32 C192.126667,400.706667 195.943333,391.073333 195.83,387.42 L195.83,387.43 Z M121.83,393.73 C123.73,393.54 125.76,395.08 127.96,398.36 C130.333333,395.886667 131.476667,393.553333 131.39,391.36 C131.296667,388.866667 128.66,387.866667 123.48,388.36 C119.556577,388.644392 115.920939,390.523648 113.42,393.56 C110.86,396.62 109.663333,400.523333 109.83,405.27 C109.820354,408.034705 110.852149,410.701663 112.72,412.74 C117.91,416.96 120.53,420.13 120.6,422.29 C120.74,426.37 119.24,428.57 116.11,428.87 C112.98,429.17 110.79,426.93 109.37,422.1 C106.37,424.98 104.95,427.74 105.05,430.38 C105.17,433.88 108.16,435.38 114.05,434.79 C118.364323,434.478138 122.368554,432.432733 125.15,429.12 C127.94,425.78 130.31,421.55 130.15,416.36 C130.04,413.21 127.99,410.63 126.15,408.61 L120.98,404.47 C119.297086,403.303452 118.228422,401.441553 118.07,399.4 C117.89,395.88 119.17,394 121.84,393.72 L121.83,393.73 Z" id="Shape" fill="#FFFFFF" fill-rule="nonzero"></path>
            <path d="M34.86,402.71 C34.8550423,402.666808 34.8550423,402.623192 34.86,402.58 C34.73,398.45 34.02,393.58 31.45,393.58 L31.17,393.58 C28.89,393.81 26.91,397.3 25.44,403.68 C23.8354775,410.607081 23.1363106,417.713038 23.36,424.82 C23.48,428.93 24.19,433.82 26.93,433.82 L27.22,433.82 C28.22,433.72 29.22,432.82 30.13,431.32 C29.2309264,428.796595 28.7053755,426.155365 28.57,423.48 C28.21,416.44 30.48,409.41 34.86,402.71 Z" id="Path"></path>
            <path d="M31.68,434.92 C31.32,434.23 31,433.52 30.68,432.8 C29.9557358,434.020059 28.7297611,434.858113 27.33,435.09 C27.1868319,435.099733 27.0431681,435.099733 26.9,435.09 C23.9,435.09 22.22,431.67 22.03,424.82 C21.7949212,417.60197 22.5042623,410.384172 24.14,403.35 C25.78,396.236667 28.07,392.533333 31.01,392.24 C31.1464856,392.230052 31.2835144,392.230052 31.42,392.24 C34.11,392.24 35.64,395.14 36.05,400.93 C37.4552307,398.972741 38.9780339,397.102632 40.61,395.33 L36.15,390.87 C37.9,389.34 39.77,387.87 41.73,386.38 C39.7054416,384.586476 37.0844768,383.612975 34.38,383.65 C33.905617,383.652591 33.4316722,383.679292 32.96,383.73 C26.42,384.396667 20.92,389.046667 16.46,397.68 C12.0378,406.167188 9.89131539,415.655821 10.23,425.22 C10.41,431.18 11.89,435.846667 14.67,439.22 C16.8721437,442.079058 20.291451,443.734996 23.9,443.69 L24.27,443.69 C23.0066125,442.189497 21.8788571,440.579852 20.9,438.88 L31.68,434.92 Z" id="Path"></path>
            <path d="M206.37,392.92 C207.64,388.87 209.18,386.76 210.97,386.59 C211.083115,386.58005 211.196885,386.58005 211.31,386.59 C213.14,386.59 215.03,388.08 216.98,391.02 C215.239561,396.515272 213.213471,401.915952 210.91,407.2 C208.37,413.16 206.576667,416.193333 205.53,416.3 L205.42,416.3 C204.72,416.3 204.22,415.61 203.95,414.23 C202.624593,416.990133 201.030211,419.612826 199.19,422.06 L206.19,423.61 C209.043333,420.656667 211.973333,415.286667 214.98,407.5 C214.675269,410.713834 214.55174,413.942277 214.61,417.17 C214.77,421.796667 216.416667,424.13 219.55,424.17 L220.24,424.17 C222.237152,423.925225 224.045488,422.869157 225.24,421.25 C224.248864,418.728872 223.723681,416.048745 223.69,413.34 C223.628781,407.540453 223.999808,401.744405 224.8,396 C225.666667,388.753333 226.666667,383.523333 227.8,380.31 C226.302282,379.550154 224.649362,379.146335 222.97,379.13 C222.635792,379.13082 222.301908,379.150853 221.97,379.19 C220.406305,379.298285 218.994518,380.164779 218.19,381.51 C216.578185,380.34773 214.637074,379.731059 212.65,379.75 C212.29,379.75 211.93,379.75 211.57,379.8 C210.98475,379.858906 210.405839,379.969334 209.84,380.13 L203.7,386.27 C204.864994,388.366097 205.762019,390.60026 206.37,392.92 Z" id="Path"></path>
            <path d="M93.5,399 L93.28,399 C91.55,399.17 89.97,401.85 88.84,406.56 C87.5469108,411.84846 86.9816943,417.288668 87.16,422.73 C87.27,425.73 87.82,429.38 89.84,429.38 L90.07,429.38 C91.74,429.21 93.28,426.5 94.4,421.72 C95.641286,416.447423 96.1792906,411.033752 96,405.62 C96,403.13 95.51,399 93.5,399 Z" id="Path"></path>
            <path d="M75,401.34 C75.2496091,399.984583 75.3668273,398.608106 75.35,397.23 C75.27,394.97 74.17,393.85 72.04,393.85 L71.37,393.85 C69.1098613,394.153194 66.9391957,394.930136 65,396.13 C65.519635,397.37795 65.8109252,398.709078 65.86,400.06 C65.9666667,403.393333 65.4233333,408.99 64.23,416.85 C63.0366667,424.71 62.4966667,430.306667 62.61,433.64 C62.72,437.2 64.2,438.99 67.01,438.99 C67.25,438.99 67.49,438.99 67.75,438.99 C69.8882849,438.676274 71.8598447,437.655287 73.35,436.09 C72.2140642,434.295915 71.6170833,432.213423 71.63,430.09 C71.4566667,425.036667 72.58,415.453333 75,401.34 Z" id="Path"></path>
            <path d="M103.33,394.54 C101.525333,392.301385 98.7953136,391.011903 95.92,391.03955 C95.54,391.03955 95.15,391.06 94.75,391.1 C89.4166667,391.626667 84.9366667,395.213333 81.31,401.86 C77.7434486,408.33933 76.0145587,415.669823 76.31,423.06 C76.46,427.66 77.68,431.26 79.94,433.85 C81.793983,436.065777 84.5513851,437.323153 87.44,437.27 C87.8576825,437.27162 88.2750784,437.247964 88.69,437.2 C93.9433333,436.693333 98.37,433.09 101.97,426.39 C105.513873,419.916434 107.2415,412.605119 106.97,405.23 C106.803333,400.743333 105.59,397.18 103.33,394.54 Z M95.67,422 C94.37,427.53 92.54,430.43 90.2,430.66 L89.84,430.66 C87.36,430.66 86.04,428.03 85.84,422.76 C85.6478306,417.197605 86.223245,411.635265 87.55,406.23 C88.87,400.77 90.73,397.91 93.14,397.68 L93.48,397.68 C95.86,397.68 97.14,400.316667 97.32,405.59 C97.4978953,411.108891 96.943058,416.627 95.67,422 Z" id="Shape"></path>
            <path d="M158.49,421 C162.028848,414.528124 163.756202,407.221415 163.49,399.85 C163.32,395.35 162.13,391.79 159.88,389.15 C158.065856,386.908006 155.323781,385.621737 152.44,385.66 C152.052738,385.657124 151.665578,385.673812 151.28,385.71 C145.946667,386.236667 141.466667,389.826667 137.84,396.48 C134.275835,402.960248 132.547103,410.290068 132.84,417.68 C133,422.273333 134.213333,425.863333 136.48,428.45 C138.338664,430.677797 141.109288,431.939848 144.01,431.88 C144.41,431.88 144.82,431.86 145.24,431.82 C150.473333,431.273333 154.89,427.666667 158.49,421 Z M152.25,416.6 C150.916667,422.14 149.09,425.026667 146.77,425.26 L146.41,425.26 C143.94,425.26 142.63,422.63 142.41,417.36 C142.21732,411.797587 142.792742,406.235178 144.12,400.83 C145.453333,395.356667 147.316667,392.503333 149.71,392.27 L150.03,392.27 C152.416667,392.27 153.703333,394.91 153.89,400.19 C154.067628,405.695113 153.516177,411.199532 152.25,416.56 L152.25,416.6 Z" id="Shape"></path>
            <path d="M150.06,393.53 L149.87,393.53 C148.14,393.7 146.56,396.39 145.42,401.1 C144.12481,406.388095 143.559563,411.828593 143.74,417.27 C143.85,420.27 144.4,423.92 146.41,423.92 L146.65,423.92 C148.32,423.76 149.85,421.04 150.97,416.26 C152.22512,410.999341 152.779918,405.595949 152.62,400.19 C152.53,397.7 152.09,393.53 150.06,393.53 Z" id="Path"></path>
            <path d="M126.09,408.64 L120.92,404.5 C119.237086,403.333452 118.168422,401.471553 118.01,399.43 C117.89,395.88 119.17,393.97 121.84,393.72 L122.15,393.72 C123.96,393.72 125.89,395.27 127.97,398.37 C130.343333,395.896667 131.486667,393.563333 131.4,391.37 C131.333333,389.296667 129.5,388.26 125.9,388.26 C125.09498,388.262375 124.290604,388.305764 123.49,388.39 C119.566577,388.674392 115.930939,390.553648 113.43,393.59 C110.87,396.65 109.673333,400.553333 109.84,405.3 C109.830354,408.064705 110.862149,410.731663 112.73,412.77 C117.92,416.99 120.54,420.16 120.61,422.32 C120.75,426.4 119.25,428.6 116.12,428.9 L115.6,428.9 C112.79,428.9 110.72,426.65 109.38,422.1 C106.38,424.98 104.96,427.74 105.06,430.38 C105.17,433.38 107.39,434.91 111.75,434.91 C112.46,434.91 113.22,434.91 114.05,434.79 C118.364323,434.478138 122.368554,432.432733 125.15,429.12 C127.94,425.78 130.31,421.55 130.15,416.36 C130,413.24 128,410.66 126.09,408.64 Z" id="Path"></path>
            <path d="M147.29,451 C145.630323,448.833917 144.909766,446.092196 145.29,443.39 C145.711996,439.621569 147.619598,436.177088 150.59,433.82 C150.936965,433.553247 151.391714,433.471243 151.81,433.6 C152.226598,433.73557 152.548789,434.069001 152.67,434.49 C153.29,436.72 154.49,437.89 156.35,438.07 C156.69,438.07 157.02,438.07 157.35,438.07 C161.66,438.07 164.09,435.27 166.05,433.01 L166.29,432.74 C168.511225,430.011184 170.237306,426.914391 171.39,423.59 C168.02,402.69 165.69,392.37 163.6,389.12 C163.27331,388.612817 163.33524,387.948104 163.75,387.51 C166.26,384.89 168.94,383.42 171.75,383.15 L172.16,383.15 C176.44,383.15 177.39,389.27 177.7,391.28 C177.695144,391.303081 177.695144,391.326919 177.7,391.35 C178.37,398.18 179.09,404.42 179.85,410 L183.58,400.84 C186,394.58 187.17,389.97 187.07,387.12 C186.979212,385.959083 186.788505,384.808155 186.5,383.68 C186.412369,383.303708 186.496654,382.907936 186.73,382.6 C186.964971,382.281336 187.334184,382.089346 187.73,382.08 C188.24,382.08 188.73,382.08 189.19,382.08 C195.69,382.08 197.19,384.97 197.19,387.39 C197.056379,389.792954 196.529378,392.157701 195.63,394.39 L197.45,392.58 C197.58,392.25 197.72,391.92 197.86,391.58 C198.979733,388.873456 200.459769,386.330486 202.26,384.02 C189.67,365.57 155.26,355.73 115.48,361.24 C90.24,364.73 67.75,373.73 51.97,385.38 C53.9686214,384.190398 56.1920001,383.427708 58.5,383.14 C58.7698065,383.125544 59.0401935,383.125544 59.31,383.14 C62.15,383.14 63.85,384.83 63.95,387.79 C63.956559,389.958016 63.7522642,392.121532 63.34,394.25 C63.09,395.66 62.34,399.94 62.34,400.31 L59.63,422.2 C59.1781898,425.346401 58.9542737,428.521331 58.96,431.7 C58.9532052,433.573749 59.4767007,435.411184 60.47,437 C60.8370603,437.533658 60.7514859,438.256762 60.27,438.69 C58.5521212,440.438657 56.3067171,441.573658 53.88,441.92 C53.58,441.92 53.28,441.97 53,441.97 C51,441.97 47.48,441.11 47.28,435.37 C47.3421319,431.650854 47.6461069,427.939686 48.19,424.26 L50.93,401.9 C51.494729,398.194306 51.8287056,394.457109 51.93,390.71 C51.8931145,389.517347 51.6389534,388.341428 51.18,387.24 C51.0059379,386.81936 51.0627306,386.338515 51.33,385.97 C49.58,387.29 47.93,388.63 46.33,389.97 C48.2961217,393.722043 49.3253948,397.89403 49.33,402.13 C49.6509631,411.88962 47.4720006,421.569308 43,430.25 C41.1429968,434.11774 38.5750131,437.60165 35.43,440.52 C49.21,457.52 82.43,466.3 120.5,461.03 C131.024608,459.584384 141.38126,457.105754 151.42,453.63 C149.83993,453.123385 148.417377,452.217498 147.29,451 L147.29,451 Z M74.29,437 C72.5890726,438.756915 70.3512043,439.896962 67.93,440.24 C67.6401811,440.254492 67.3498189,440.254492 67.06,440.24 C65.06,440.24 61.54,439.38 61.35,433.64 C61.23,430.21 61.77,424.64 62.99,416.64 C64.17,408.87 64.71,403.31 64.6,400.09 C64.5601483,398.894479 64.306124,397.715807 63.85,396.61 C63.6009175,396.005544 63.8356191,395.309974 64.4,394.98 C66.4816151,393.702971 68.8087345,392.878428 71.23,392.56 C71.51,392.56 71.77,392.56 72.03,392.56 C74.86,392.56 76.54,394.26 76.65,397.21 C76.668105,398.675647 76.5408154,400.139477 76.27,401.58 C73.91,415.58 72.81,425.17 72.99,430.05 C72.9741638,431.919059 73.4909911,433.753969 74.48,435.34 C74.8221337,435.874571 74.7245889,436.57859 74.25,437 L74.29,437 Z M88.81,438.49 C88.3515839,438.538009 87.8909211,438.561582 87.43,438.56 C84.166343,438.615703 81.0513368,437.197788 78.95,434.7 C76.49,431.88 75.15,427.98 74.95,423.1 C74.6639784,415.472935 76.4617081,407.912098 80.15,401.23 C83.97,394.23 88.84,390.36 94.61,389.8 C95.0416761,389.752286 95.4756963,389.728916 95.91,389.729688 C99.177977,389.705042 102.277167,391.179092 104.32,393.73 C106.75,396.58 108.07,400.45 108.23,405.21 C108.494209,412.804544 106.712024,420.330475 103.07,427 C99.26,434.08 94.45,437.94 88.77,438.5 L88.81,438.49 Z M126.15,430 C123.141108,433.577459 118.812556,435.78502 114.15,436.12 C113.346135,436.205284 112.538376,436.248676 111.73,436.25 C105.29,436.25 103.83,433.11 103.73,430.47 C103.61,427.47 105.19,424.35 108.44,421.21 C108.683267,420.972396 109.009949,420.839569 109.35,420.84 C109.459509,420.825298 109.570491,420.825298 109.68,420.84 C110.11865,420.959882 110.465647,421.295564 110.6,421.73 C112.33,427.59 114.77,427.59 115.6,427.59 L116,427.59 C117.63,427.43 119.47,426.69 119.32,422.34 C119.32,421.34 118.32,418.93 111.92,413.77 C111.86865,413.732001 111.821694,413.688398 111.78,413.64 C109.702701,411.366224 108.547507,408.3998 108.54,405.32 C108.36,400.26 109.68,396.03 112.43,392.74 C115.154606,389.441829 119.10433,387.39476 123.37,387.07 C124.29,386.98 125.14,386.93 125.91,386.93 L125.91,386.93 C131.41,386.93 132.64,389.31 132.72,391.31 C132.8,393.85 131.53,396.52 128.92,399.23 C128.676469,399.489031 128.33551,399.63412 127.98,399.63 L127.87,399.63 C127.467018,399.602993 127.098577,399.392982 126.87,399.06 C124.61,395.69 123.05,394.99 122.13,394.99 L122,394.99 C121.17,395.07 119.22,395.25 119.36,399.36 C119.502802,401.020382 120.393396,402.525559 121.78,403.45 L123.19,404.59 L126.94,407.59 C126.99135,407.627999 127.038306,407.671602 127.08,407.72 C129.08,409.84 131.35,412.72 131.47,416.32 C131.6,421.08 129.87,425.54 126.15,430 Z M135.48,429.28 C133.02,426.46 131.69,422.56 131.53,417.69 C131.249539,410.063482 133.04692,402.504112 136.73,395.82 C140.55,388.82 145.42,384.95 151.2,384.38 C151.63,384.38 152.06,384.319518 152.48,384.319518 C155.754973,384.288891 158.862814,385.763549 160.91,388.32 C163.34,391.16 164.66,395.03 164.83,399.81 C165.090949,407.41744 163.298163,414.954741 159.64,421.63 C155.84,428.7 151.03,432.57 145.36,433.13 C144.9,433.13 144.44,433.2 144,433.2 C140.712346,433.243363 137.581097,431.79902 135.48,429.27 L135.48,429.28 Z" id="Shape"></path>
            <path d="M199,392.05 C195.753264,399.300089 194.184302,407.189336 194.41,415.13 C194.445641,417.155348 194.720889,419.169359 195.23,421.13 L199.18,422.01 C201.020211,419.562826 202.614593,416.940133 203.94,414.18 C203.794985,413.374379 203.714728,412.558436 203.7,411.74 C203.620563,406.374799 204.245907,401.022389 205.56,395.82 C205.82,394.75 206.08,393.77 206.36,392.89 C205.736173,390.567911 204.822312,388.333656 203.64,386.24 L200,389.9 C199.67,390.58 199.34,391.29 199,392.05 Z" id="Path"></path>
            <path d="M203.65,386.27 C203.43,385.88 203.2,385.5 202.96,385.12 C201.819957,386.613091 200.828577,388.214035 200,389.9 L203.65,386.27 Z" id="Path"></path>
            <path d="M49.38,424.33 C48.8558617,427.944691 48.5552905,431.588282 48.48,435.24 C48.61,438.78 50.08,440.57 52.9,440.57 C53.1497923,440.584413 53.4002077,440.584413 53.65,440.57 C55.7954177,440.249244 57.776555,439.234087 59.29,437.68 C58.1587058,435.883319 57.558932,433.803179 57.56,431.68 C57.5482307,428.43139 57.7721517,425.186206 58.23,421.97 L60.94,400.08 C60.94,399.79 61.34,397.74 62,393.95 C62.4011794,391.911298 62.5988167,389.837781 62.59,387.76 C62.52,385.5 61.4,384.37 59.26,384.37 C59.04,384.37 58.82,384.37 58.58,384.37 C56.3251235,384.656598 54.1589235,385.427561 52.23,386.63 C52.7527919,387.876954 53.0442096,389.208664 53.09,390.56 C52.9939195,394.373772 52.6599371,398.177831 52.09,401.95 L49.38,424.33 Z" id="Path"></path>
            <path d="M40.63,395.33 L47.94,402.64 C47.94,402.46 47.94,402.29 47.94,402.11 C47.9335483,398.176755 47.0053987,394.299761 45.23,390.79 C43.58,392.27 42.05,393.79 40.63,395.33 Z" id="Path"></path>
            <path d="M41.73,429.59 C46.0364302,421.272944 48.1724857,412.002944 47.94,402.64 L40.63,395.33 C38.9980339,397.102632 37.4752307,398.972741 36.07,400.93 C36.07,401.45 36.14,401.93 36.16,402.53 C36.3597834,409.70279 35.6576183,416.872265 34.07,423.87 C33.15,427.956667 32.0266667,430.933333 30.7,432.8 C31,433.52 31.32,434.23 31.7,434.92 L35.29,433.6 L31.7,434.92 C32.5233698,436.502888 33.4766391,438.014739 34.55,439.44 C37.5391725,436.635377 39.9747596,433.294078 41.73,429.59 L41.73,429.59 Z" id="Path"></path>
            <path d="M195.24,421.16 C195.568244,422.466553 196.190761,423.680803 197.06,424.71 C197.81,423.83 198.53,422.94 199.19,422.04 L195.24,421.16 Z" id="Path"></path>
            <path d="M168.69,442.69 C174.37,435.6 178.69,427.69 184.38,416.24 C192.126667,400.68 195.943333,391.073333 195.83,387.42 C195.74,384.72 193.49,383.36 189.09,383.36 C188.65,383.36 188.19,383.36 187.7,383.36 C188.01475,384.57236 188.21892,385.810764 188.31,387.06 C188.41,390.08 187.216667,394.823333 184.73,401.29 L179.17,415 C178.15,408.266667 177.203333,400.443333 176.33,391.53 C175.6,386.84 174.19,384.53 172.08,384.53 L171.79,384.53 C169.32,384.77 166.95,386.09 164.65,388.53 C166.97,392.14 169.38,403.34 172.65,423.85 C171.423452,427.431936 169.57518,430.769659 167.19,433.71 C165.12,436.08 162.37,439.5 157.26,439.5 C156.9,439.5 156.53,439.5 156.15,439.45 C154.44,439.28 152.29,438.36 151.33,434.92 C146.14,439.06 145.04,446.36 148.26,450.25 C149.674113,451.698467 151.547642,452.610487 153.56,452.83 C156.733333,451.663333 159.8,450.413333 162.76,449.08 C164.977112,447.186474 166.967079,445.042142 168.69,442.69 L168.69,442.69 Z" id="Path"></path>
            <path d="M44.54,387.4 C45.1627184,388.190788 45.7211669,389.030133 46.21,389.91 C47.78,388.54 49.43,387.2 51.21,385.91 C51.3122519,385.763048 51.4453502,385.640188 51.6,385.55 L51.95,385.36 C67.73,373.71 90.22,364.71 115.46,361.22 C155.24,355.71 189.65,365.55 202.24,384 C204.219789,381.310852 207.102704,379.425596 210.36,378.69 C195.15,360.87 158.21,352 115.53,358.17 C86.61,362.34 60.79,372.6 42.86,385.62 C43.4658408,386.16833 44.027576,386.763502 44.54,387.4 L44.54,387.4 Z" id="Path" fill="#FFFFFF" fill-rule="nonzero"></path>
            <path d="M200.8,427.62 C199.068042,427.670743 197.395984,426.983746 196.2,425.73 C189.1,433.82 178.91,441.21 166.61,447.21 C163.903849,450.308306 160.389702,452.593367 156.46,453.81 C155.769389,453.999475 155.056122,454.09368 154.34,454.09 C153.318642,454.078046 152.305799,453.902486 151.34,453.57 C141.29584,457.057225 130.932405,459.545924 120.4,461 C82.3,466.27 49.11,457.46 35.33,440.49 C32.6322489,442.972858 29.2135744,444.531577 25.57,444.94 L25.39,444.94 C41.11,462.09 77.47,470.5 119.39,464.46 C155.39,459.26 186.52,444.68 203.68,427.06 C203.046257,427.345114 202.371122,427.527401 201.68,427.6 C201.387296,427.623595 201.093474,427.630273 200.8,427.62 Z" id="Path" fill="#FFFFFF" fill-rule="nonzero"></path>
            <path d="M51.57,385.52 C51.4153502,385.610188 51.2822519,385.733048 51.18,385.88 L51.92,385.33 L51.57,385.52 Z" id="Path" fill="#E30520" fill-rule="nonzero"></path>
            <path d="M82.34,375.59 C71.18,376.36 68.23,381.79 67.34,385.17 C66.6079354,387.379703 67.2605113,389.813104 69,391.36 C69.0555725,391.412096 69.1158273,391.458961 69.18,391.5 C75.48,394.2 79.31,386.36 79.18,382.42 C79.0895225,379.770815 80.2622756,377.236035 82.34,375.59 L82.34,375.59 Z" id="Path" fill="#FFFFFF" fill-rule="nonzero"></path>
            <path d="M235.72,383 C234.648898,382.946386 233.605873,383.352703 232.853293,384.116743 C232.100713,384.880784 231.710205,385.92983 231.78,387 C231.730499,387.952813 232.075501,388.88397 232.733877,389.574509 C233.392254,390.265047 234.305911,390.654035 235.26,390.65 C236.322881,390.695992 237.354593,390.284707 238.09434,389.520111 C238.834087,388.755515 239.211071,387.710783 239.13,386.65 C239.190661,385.706294 238.859016,384.779411 238.213442,384.088401 C237.567868,383.397391 236.665647,383.003566 235.72,383 L235.72,383 Z M235.54,390.000001 C234.721306,390.000769 233.937862,389.666916 233.371361,389.075868 C232.804861,388.484819 232.504523,387.687926 232.54,386.87 C232.473675,386.045689 232.750561,385.230559 233.30524,384.617193 C233.85992,384.003827 234.643192,383.646632 235.47,383.63 C236.284631,383.629528 237.061896,383.971712 237.611673,384.572853 C238.16145,385.173993 238.433036,385.978649 238.36,386.79 C238.41754,387.590995 238.151536,388.38162 237.621522,388.984935 C237.091507,389.58825 236.341734,389.95388 235.54,390.000001 L235.54,390.000001 Z" id="Shape" fill="#FFFFFF" fill-rule="nonzero"></path>
            <path d="M236.32,387.3 C236.18,387.06 236.12,386.91 235.93,386.84 L235.93,386.84 C236.38,386.84 236.7,386.23 236.7,385.73 C236.7,385.23 236.22,384.63 235.23,384.63 L234.51,384.63 L233.98,384.63 C234.031778,384.849614 234.058614,385.074369 234.06,385.3 C234.06,385.69 234.06,386.7 234.06,387.19 C234.105761,387.751917 234.072097,388.317479 233.96,388.87 C234.13,388.87 234.28,388.94 234.45,388.94 C234.569124,388.956164 234.689045,388.916487 234.775022,388.832464 C234.860999,388.748442 234.903421,388.629464 234.89,388.51 C234.89,387.94 234.89,387.56 234.89,387.19 L234.89,386.95 C235.96,387.37 235.75,388.950036 236.75,388.950036 C236.960783,388.951289 237.170311,388.917494 237.37,388.85 L237.37,388.77 C237.15,388.61 237,388.4 236.32,387.3 Z M235.32,386.59 C235.180648,386.609056 235.039352,386.609056 234.9,386.59 C234.9,386.16 234.9,385.51 234.9,385.01 L235,385.01 C235.71,385.01 236,385.39 236,385.86 C236,386.33 235.69,386.59 235.31,386.59 L235.32,386.59 Z" id="Shape" fill="#FFFFFF" fill-rule="nonzero"></path>
            <path d="M643,351 C644.660339,350.975633 646.256533,351.640435 647.408701,352.836188 C648.560869,354.031942 649.165972,355.65171 649.08,357.31 C649.10403,358.96562 648.465879,360.562279 647.307324,361.745244 C646.148769,362.928209 644.565761,363.599509 642.91,363.61 C639.423957,363.544528 636.633929,360.696652 636.639988,357.21 C636.636742,355.535823 637.310685,353.931487 638.50855,352.761873 C639.706416,351.592259 641.326377,350.956792 643,351 Z M647.77,357.36 C647.871988,354.583626 645.724701,352.240321 642.95,352.1 C640.228648,352.253018 638.095647,354.4962 638.07968,357.221804 C638.063892,359.947409 640.170615,362.215289 642.89,362.4 C645.600428,362.313279 647.747658,360.081758 647.73,357.37 L647.77,357.36 Z" id="Shape" fill="#FFFFFF" fill-rule="nonzero"></path>
            <path d="M642,358.19 C642,358.85 642,359.55 641.89,360.24 C641.78,360.93 641.5,361.09 641.04,360.9 C640.787313,360.758203 640.608552,360.513776 640.55,360.23 C640.509788,359.640685 640.509788,359.049315 640.55,358.46 C640.55,357.28 640.55,356.1 640.55,354.92 C640.55,353.92 640.73,353.75 641.72,353.71 C642.463378,353.659151 643.210219,353.709613 643.94,353.86 C644.638821,353.965018 645.21677,354.458966 645.429367,355.132897 C645.641963,355.806828 645.452064,356.542999 644.94,357.03 L644.75,357.27 C645.07,358.5 645.37,359.61 645.66,360.73 C644.53,361.01 644.34,360.93 644.1,360.13 C644.02,359.83 643.99,359.51 643.91,359.21 C643.59,358.16 643.22,357.94 642,358.19 Z M642,356.78 C642.511595,356.828808 643.027656,356.798451 643.53,356.69 C643.929846,356.535744 644.146503,356.10243 644.03,355.69 C643.869683,355.050968 643.265682,354.625614 642.61,354.69 C641.9,354.69 641.95,355.22 641.94,355.69 C641.93,356.16 641.9,356.19 641.94,356.78 L642,356.78 Z" id="Shape" fill="#FFFFFF" fill-rule="nonzero"></path>
            <path d="M396.66,379.28 C395.047697,377.18683 392.563607,375.94982 389.921593,375.924454 C387.279579,375.899087 384.772196,377.088173 383.12,379.15 C381.815392,380.946002 380.945869,383.020533 380.58,385.21 C379.596495,390.452287 379.532203,395.825683 380.39,401.09 C380.709735,403.401845 381.521298,405.618299 382.77,407.59 C385.77,412.21 393.07,412.17 396.23,408.59 C397.501274,407.073403 398.40479,405.283482 398.87,403.36 C399.611352,400.202731 400.000395,396.973004 400.03,393.73 C399.8,391.26 399.64,388.78 399.31,386.33 C399.04718,383.791321 398.134493,381.363228 396.66,379.28 Z" id="Path" fill="#FFFFFF" fill-rule="nonzero"></path>
            <path d="M476.5,394.14 C478.580284,394.410255 480.69486,394.198113 482.68,393.52 C484.891754,392.780548 486.637655,391.060484 487.41,388.86 C488.559396,385.710676 488.480852,382.244035 487.19,379.15 C486.278985,376.747557 484.017638,375.12443 481.45,375.03 C479.875928,374.955176 478.298313,375.035564 476.74,375.27 C475.47,375.42 475.38,375.61 475.38,376.88 C475.38,379.546667 475.38,382.186667 475.38,384.8 L475.38,384.8 C475.38,387.48 475.38,390.17 475.38,392.85 C475.38,393.86 475.52,394.05 476.5,394.14 Z" id="Path" fill="#FFFFFF" fill-rule="nonzero"></path>
            <path d="M636.22,364.31 L572,364.31 C571.056906,364.298846 570.120444,364.150629 569.22,363.87 C565.29,362.68 561.37,361.46 557.41,360.42 C540.924336,356.197638 524.105435,353.403967 507.14,352.07 C501.01,351.55 494.86,351.22 488.71,350.94 C484.1,350.72 479.48,350.71 474.86,350.65 C473.37,350.65 471.86,350.75 470.37,350.78 C465.56,350.89 460.74,350.89 455.93,351.11 C450.54,351.36 445.14,351.75 439.76,352.21 C434.96,352.62 430.18,353.14 425.4,353.74 C417.96,354.686667 410.57,355.926667 403.23,357.46 C390.445459,359.987026 377.931844,363.73073 365.86,368.64 C364.46,369.22 364.33,369.13 364.32,367.59 C364.32,365.27 364.32,362.94 364.32,360.59 C364.399313,359.994412 364.105648,359.41105 363.58,359.12 C361.507749,357.892792 359.328899,356.855245 357.07,356.02 C351.588296,354.156103 345.728988,353.685296 340.02,354.65 C326.96354,356.539298 316.415776,366.268358 313.48,379.13 C312.393355,383.664598 312.055565,388.346377 312.48,392.99 C312.721761,396.693338 313.465218,400.346706 314.69,403.85 C318.1,413.29 324.52,419.68 334.13,422.76 C337.303838,423.732314 340.592376,424.280404 343.91,424.39 C344.578035,424.434942 345.216457,424.682636 345.74,425.1 C349.453548,427.849278 353.398297,430.271668 357.53,432.34 C366.404563,436.771191 375.683726,440.340873 385.24,443 C402.689224,447.875987 420.557583,451.103474 438.61,452.64 C444.11,453.16 449.61,453.52 455.14,453.81 C460.14,454.07 465.07,454.18 470.04,454.26 C473.4,454.31 476.75,454.2 480.1,454.14 C483.69,454.07 487.28,453.99 490.87,453.88 C493.08,453.81 495.29,453.74 497.49,453.57 C502.76,453.16 508.03,452.76 513.29,452.22 C518.043333,451.74 522.78,451.16 527.5,450.48 C534.34,449.506667 541.13,448.273333 547.87,446.78 C559.033421,444.414378 569.976001,441.105845 580.58,436.89 C588.799303,433.723879 596.539724,429.432993 603.58,424.14 C603.985784,423.830546 604.491171,423.681065 605,423.72 C611.713333,423.72 618.423333,423.72 625.13,423.72 C625.55,423.72 625.97,423.63 626.52,423.57 L626.52,398.4 C626.52,395.6 626.52,392.79 626.52,389.99 C626.52,387.19 626.52,384.42 626.52,381.53 C627.12,381.53 627.59,381.45 628.05,381.46 C629.766734,381.491754 631.424228,380.83236 632.65,379.63 C633.878469,378.449827 634.857779,377.035268 635.53,375.47 C636.547713,373.031869 637.220847,370.463861 637.53,367.84 L638.07,364.38 C637.38,364.35 636.8,364.31 636.22,364.31 Z M361,416 C357.906882,417.855072 354.453135,419.027914 350.87,419.44 C346.28682,420.095186 341.620935,419.874617 337.12,418.79 C329.256819,417.01688 322.771234,411.485058 319.78,404 C316.675384,396.088685 316.181335,387.392021 318.37,379.18 C321.74,368.18 329.06,361.48 340.45,359.41 C345.674467,358.403517 351.074412,358.839108 356.07,360.67 C357.07,361.04 358.01,361.54 358.98,361.97 C359.413309,362.105747 359.700766,362.5164 359.68,362.97 L359.68,370.31 C359.68,370.37 359.61,370.44 359.51,370.65 L358.39,370.16 C354.000241,367.977964 349.021858,367.27629 344.2,368.16 C337.55,369.4 332.97,373.29 330.87,379.72 C328.519195,386.592251 328.782638,394.089698 331.61,400.78 C332.854635,403.868592 334.931639,406.551389 337.61,408.53 C340.879895,410.935239 345.085608,411.67503 348.98,410.53 C350.04,410.27 350.11,410.17 350.11,409.08 C350.11,403.953333 350.11,398.823333 350.11,393.69 C350.11,393.34 350.06,393 350.01,392.44 L343.5,392.44 C343.35,392.25 343.26,392.19 343.26,392.12 C343.206223,390.263184 343.651715,388.425959 344.55,386.8 C345.12633,385.874774 346.11241,385.283126 347.2,385.21 C347.826802,385.131555 348.45842,385.098136 349.09,385.11 L361.4,385.11 C361.98,385.11 362.29,385.35 362.28,385.96 C362.28,386.23 362.28,386.51 362.28,386.79 C362.28,395.7 362.28,404.62 362.28,413.53 C362.404545,414.538698 361.895944,415.520139 361,416 L361,416 Z M464.46,370.51 C468.146484,369.335784 471.966924,368.633522 475.83,368.42 C478.546137,368.214994 481.273863,368.214994 483.99,368.42 C487.230709,368.601123 490.40267,369.427261 493.32,370.85 C497.95,373.23 500.24,377.12 500.66,382.22 C501.005649,385.068849 500.324948,387.947647 498.74,390.34 C496.605422,393.395282 493.387277,395.522834 489.74,396.29 C489.25,396.42 488.74,396.53 488,396.7 C492.89,404.2 497.64,411.49 502.42,418.84 C501.624682,419.263129 500.729819,419.463523 499.83,419.42 C497.95,419.61 496.05,419.71 494.16,419.73 C491.164877,419.883336 488.322951,418.397261 486.74,415.85 C485.58,414.07 484.5,412.23 483.43,410.39 C481.05,406.336667 478.68,402.283333 476.32,398.23 C476.11,397.88 475.87,397.55 475.65,397.23 L475.37,397.31 C475.37,397.76 475.32,398.22 475.32,398.67 C475.32,403.923333 475.32,409.17 475.32,414.41 C475.338497,415.121777 475.30172,415.833915 475.21,416.54 C475.152186,417.744394 474.2028,418.71526 473,418.8 C472.380947,418.92801 471.751883,419.001624 471.12,419.02 C468.75,419.02 466.38,419.02 464.02,419.02 C462.81,419.02 462.77,418.96 462.75,417.73 L462.75,417.14 C462.75,402.38 462.75,387.623333 462.75,372.87 C462.77,371.07 462.51,371.13 464.47,370.47 L464.46,370.51 Z M417.76,370.82 C417.76,370.46 417.76,370.11 417.76,369.75 C417.72615,369.530998 417.798,369.308903 417.953708,369.151224 C418.109415,368.993545 418.33059,368.918908 418.55,368.95 C421.217213,368.785499 423.893603,368.849063 426.55,369.14 C428.80111,369.279205 430.538128,371.175339 430.48,373.43 C430.48,374.14 430.48,374.85 430.48,375.56 C430.48,384.833333 430.48,394.1 430.48,403.36 C430.469148,404.227991 430.539454,405.095096 430.69,405.95 C431.012737,408.249172 432.704549,410.119278 434.96,410.67 C436.40241,411.119825 437.94759,411.119825 439.39,410.67 C441.605515,410.102829 443.264786,408.26226 443.6,406 C443.758365,405.146007 443.832056,404.278469 443.82,403.41 C443.82,394.03 443.82,384.64 443.82,375.25 C443.814655,374.266884 443.905082,373.285584 444.09,372.32 C444.388834,370.7782 445.562256,369.55393 447.09,369.19 C447.742299,369.007489 448.41332,368.900126 449.09,368.87 C450.86,368.87 452.64,368.87 454.41,368.87 C455.51,368.87 455.58,369 455.61,370.14 L455.61,370.85 C455.61,381.976667 455.61,393.1 455.61,404.22 C455.61,410.22 452.83,414.53 447.61,417.33 C444.802505,418.801752 441.698256,419.61884 438.53,419.72 C435.097863,419.986097 431.647134,419.56453 428.38,418.48 C425.186729,417.466309 422.38983,415.48051 420.38,412.8 C418.746364,410.642469 417.833222,408.025496 417.77,405.32 C417.71,399.52 417.77,393.72 417.77,387.92 L417.77,387.92 L417.76,370.82 Z M389.9,419.87 C387.123442,419.809078 384.366758,419.385489 381.7,418.61 C375.751266,416.87034 370.995862,412.386354 368.91,406.55 C367.66861,403.260878 366.966244,399.792949 366.83,396.28 C366.549041,392.104588 366.978467,387.91177 368.1,383.88 C369.183658,379.640813 371.55186,375.840512 374.88,373 C377.304583,371.019959 380.167544,369.648481 383.23,369 C387.627729,367.974981 392.202271,367.974981 396.6,369 C403.84,370.72 408.6,375.26 411.09,382.17 C412.73915,386.963224 413.342683,392.054041 412.86,397.1 C412.664367,400.491441 411.917938,403.828417 410.65,406.98 C408.172814,413.482554 402.396519,418.155512 395.52,419.22 C393.67,419.56 391.77,419.65 389.9,419.87 Z M538,443.77 C532.26,445.043333 526.48,446.093333 520.66,446.92 C516.66,447.486667 512.63,447.98 508.57,448.4 C504.09,448.86 499.57,449.2 495.12,449.55 C493.25,449.69 491.37,449.75 489.49,449.81 C486.43,449.9 483.38,449.98 480.32,450.03 C477.47,450.09 474.61,450.18 471.76,450.14 C467.53,450.07 463.3,449.97 459.08,449.75 C454.38,449.51 449.69,449.2 445.01,448.75 C430.692141,447.508607 416.506946,445.042926 402.61,441.38 C408.52,439.58 414.52,438.1 420.61,436.83 C426.863333,435.53 433.153333,434.476667 439.48,433.67 C443.54,433.15 447.613333,432.716667 451.7,432.37 C456.28,431.97 460.866667,431.656667 465.46,431.43 C469.55,431.24 473.66,431.24 477.75,431.15 C479.03,431.15 480.3,431.02 481.58,431.04 C485.5,431.09 489.44,431.1 493.36,431.28 C498.59,431.52 503.83,431.8 509.04,432.28 C523.477731,433.411303 537.790861,435.786788 551.82,439.38 L553.33,439.79 C548.25,441.32 543.14,442.63 538,443.77 Z M561.27,370.67 C561.27,386.25 561.27,401.833333 561.27,417.42 C561.27,417.88 561.27,418.34 561.19,418.87 C560.860616,418.941495 560.526354,418.988292 560.19,419.01 C558.3,419.01 556.4,419.01 554.51,419.01 C551.31,418.92 550.04,417.7 549.76,414.48 C549.66,413.35 549.6,412.2 549.6,411.06 C549.6,402.393333 549.6,393.726667 549.6,385.06 L549.6,383.68 L549.3,383.6 C549.04,384.09 548.76,384.6 548.53,385.09 C546.77395,389.043957 545.261131,393.101517 544,397.24 C541.980451,403.918217 540.311505,410.697474 539,417.55 C538.71,419.01 538.7,419.04 537.16,419.01 C534.99,418.96 532.83,418.92 530.66,418.78 C528.983447,418.69676 527.529979,417.592759 527,416 C526.453732,414.647873 525.996097,413.261606 525.63,411.85 C524.13,405.85 522.63,399.91 520.63,394.09 C519.53,390.93 518.25,387.83 517.04,384.7 C516.88,384.29 516.65,383.9 516.45,383.5 L516.16,383.57 C516.16,384.03 516.16,384.48 516.16,384.93 C516.16,394.12 516.16,403.31 516.16,412.5 C516.158736,413.721248 516.071856,414.940904 515.9,416.15 C515.863217,417.575949 514.715949,418.723217 513.29,418.76 C510.929688,419.022583 508.552646,419.102821 506.18,419 C506.18,418.37 506.09,417.94 506.09,417.52 C506.09,401.86 506.09,386.193333 506.09,370.52 C506.09,370.28 506.09,370.04 506.09,369.81 C506.059029,369.587948 506.134759,369.364313 506.294275,369.206766 C506.453791,369.049219 506.67835,368.976273 506.9,369.01 C510.57,369.07 514.24,368.78 517.9,369.29 C520.124491,369.56078 522.137407,370.741015 523.46,372.55 C525.404668,375.235292 527.016439,378.146553 528.26,381.22 C530.41085,386.181092 532.179334,391.299334 533.55,396.53 C533.65,396.9 533.78,397.26 533.98,397.87 C534.133443,397.591637 534.270347,397.304472 534.39,397.01 C536.220198,390.26559 538.636047,383.693946 541.61,377.37 C542.209245,376.088041 542.901075,374.851435 543.68,373.67 C545.291569,371.215976 547.927879,369.623895 550.85,369.34 C552.45,369.13 554.07,369.07 555.68,369.01 C557.29,368.95 558.84,369.01 560.42,369.01 C561.2,369.01 561.29,369.15 561.35,369.91 C561.26,370.2 561.25,370.43 561.25,370.67 L561.27,370.67 Z M596.06,417 C595.44875,418.281156 594.127786,419.069791 592.71,419 C589.71,419 586.71,419 583.71,419 C581.497111,418.937551 579.300439,418.601669 577.17,418 C573.336006,417.076925 570.402534,413.986793 569.68,410.11 C569.163544,407.840213 568.91518,405.517669 568.94,403.19 C568.94,392.31 568.94,381.426667 568.94,370.54 C568.94,370.35 568.94,370.15 568.94,369.95 C568.94,369.18 569.08,369.1 569.87,369.04 L595.2,369.04 C595.66,369.04 596.12,369.09 596.76,369.12 C596.638864,371.037184 596.164216,372.915435 595.36,374.66 C594.863437,375.725235 593.870567,376.474571 592.71,376.66 C592.04927,376.776568 591.380729,376.843422 590.71,376.86 C588.31,376.86 585.9,376.86 583.49,376.86 L582.15,376.86 C581.77,377.86 581.72,387.38 582.06,388.71 C582.48,388.71 582.94,388.8 583.4,388.8 L593.47,388.8 C593.89,388.8 594.31,388.8 594.84,388.86 C594.786342,390.868209 594.305685,392.841974 593.43,394.65 C592.968085,395.496018 592.148399,396.087809 591.2,396.26 C590.579384,396.373233 589.950723,396.436768 589.32,396.45 C587.27,396.45 585.22,396.45 583.16,396.45 C581.92,396.45 581.83,396.52 581.85,397.69 C581.91,400.49 582,403.283333 582.12,406.07 C582.183415,406.658359 582.32118,407.236302 582.53,407.79 C582.909958,409.221618 584.075609,410.309559 585.53,410.59 C586.993148,410.892067 588.47767,411.079303 589.97,411.15 C591.97,411.24 593.97,411.15 595.97,411.15 C596.44,411.15 596.9,411.2 597.4,411.23 C597.474693,411.435346 597.51523,411.651544 597.52,411.87 C597.352688,413.655185 596.857753,415.394239 596.06,417 L596.06,417 Z M632.53,369.72 C632.160244,371.742821 631.38834,373.67088 630.26,375.39 C629.647782,376.388583 628.527842,376.960139 627.36,376.87 C626.06,376.81 624.75,376.87 623.45,376.87 C623.02,376.87 622.6,376.87 622.03,376.94 C622.03,377.57 621.92,378.14 621.92,378.72 C621.92,391.54 621.92,404.36 621.92,417.18 L621.92,418.75 C620.85,419.1 610.31,419.14 609.03,418.75 C609.03,416.48 609.03,414.17 609.03,411.86 L609.03,377 C608.45,376.95 608.03,376.88 607.55,376.88 L600.2,376.88 C599.78,376.88 599.36,376.83 598.96,376.81 C598.964768,374.492795 599.549177,372.213601 600.66,370.18 C601.154086,369.494792 601.945256,369.086207 602.79,369.08 L630.85,369.08 C631.39,369.08 631.93,369.14 632.49,369.17 C632.524457,369.347809 632.537882,369.529054 632.53,369.71 L632.53,369.72 Z" id="Shape" fill="#FFFFFF" fill-rule="nonzero"></path>
            <path d="M631.5,244.39 L1.5,244.39 C0.671572875,244.39 0,243.718427 0,242.89 C0,242.061573 0.671572875,241.39 1.5,241.39 L631.5,241.39 C632.328427,241.39 633,242.061573 633,242.89 C633,243.718427 632.328427,244.39 631.5,244.39 Z" id="Path" fill="#FFFFFF" fill-rule="nonzero"></path>
        </g>
    </g>
</svg>