<svg xmlns="http://www.w3.org/2000/svg" viewBox="0 0 490.7 178.32"><defs><style>.cls-1{fill:#fff;}</style></defs><g id="Capa_2" data-name="Capa 2"><g id="Capa_1-2" data-name="Capa 1"><path class="cls-1" d="M450.15,107.43c.85,0,.94.17.94,1.11,0,8.47-7.95,15.65-14.2,15.65-4,0-6.84-2.56-6.84-6.24C430.05,111.79,438.35,107.43,450.15,107.43ZM423.89,79.55c-3.59,1.45-4,2.48-2.31,6l1.8,3.59c1.19,2.49,2.82,2.49,6.84.69a29.55,29.55,0,0,1,12.4-3.08c6.25,0,8,4.19,8,8.64,0,.94-.08,1.11-.85,1.11-23,2.48-32.16,8.81-32.16,22.33,0,11.11,8.21,16.59,16.85,16.59A18.63,18.63,0,0,0,448.87,129c1.19-1.37,2-1,2.22.86l.17,1.71c.26,1.88.77,2.22,3.08,2.22h5.39c3,0,4-.6,4-2.56,0-1.37-.86-4.36-.86-8.3V94.68c0-14.88-9.57-19.41-21.38-19.41C436.38,75.27,431,76.64,423.89,79.55ZM403.11,85.7c-2.48.69-2.91,1.37-2.91,5.39v38.06c0,4.2.34,4.62,3.93,4.62h4.71c3.67,0,4-.42,4-4.62V89.3c0-5.31-.89-6.23-4.28-5.22ZM186.62,60.3c-3.25-1.54-4.62-1.11-6.07,2.14l-31.14,66.63c-1.54,3.33-.51,4.7,3.6,4.7h6.15c3,0,3.6-.6,5-3.85l3.25-7.61c.6-1.28.77-1.37,1.54-1.37h20c2.39,0,2.48.09,2.74,1.46l1.36,7.52c.52,2.83.86,3.85,4.71,3.85H204c3.68,0,4.45-.85,3.51-4.79L194.15,66.46c-.6-2.57-.6-2.57-4.37-4.62ZM212.54,77v52.17c0,4.2.34,4.62,3.93,4.62h4.71c3.67,0,4-.42,4-4.62V81.51c0-3.93-.56-4.8-3.25-6.07l-4.37-2C214,71.76,212.54,72.79,212.54,77Zm-27.89,7.87,4.28,22.58c.17.68-.17,1.37-1.37,1.37H174.82c-1,0-1.29-.34-1-1l10.26-23C184.31,84.25,184.57,84.33,184.65,84.85Zm66.8,16c6.68.09,10,4,10,11.64,0,7.27-3.59,12-9.15,12-5.73,0-9.49-4.79-9.49-12.23S245.89,100.67,251.45,100.84Zm9.84,49.27c0,4.19.34,4.62,4,4.62h4.11c3.6,0,3.93-.43,3.93-4.62V95.63c0-4.37-.08-4.71-3.42-5.39l-4-.77c-2.4-.6-3.51.25-3.51,2.73,0,1.71-.34,2.06-1.19,1.37-3.43-2.82-8.13-3.93-12.24-3.93-11.12,0-18,8.64-18,22.58s7.44,23.18,18.56,23.18a21.12,21.12,0,0,0,10.52-2.82c.86-.6,1.2-.52,1.2.34Zm45.93-49.35V113c0,7.78-2.91,11.63-8.72,11.63q-7.19,0-7.19-10.52V98.45c0-3.25-.42-3.94-2.82-4.54l-4.45-1c-3-.77-4.27.34-4.27,3.68v18.81c0,12.49,5.9,20,15.82,20,4.7,0,9.32-2,11.63-5.56.52-.94.6-.17.6.17v1.28c0,1.88.86,2.48,2.91,2.48h3.34c4.44,0,4.79-.34,4.79-4.62V100.67c0-4.27-.26-4.62-4-4.62h-3.67C307.48,96.05,307.22,96.4,307.22,100.76Zm74.67,28.39V111.79c0-6.58,3.9-8.82,10.35-10.43,3-.69,3.34-1.29,3.34-4.88V89.89c0-1.53-.43-2.13-1.88-2.13A12.54,12.54,0,0,0,382,96.82c-.26.86-.86,1.29-.86.26V93.4c0-2.05-.77-2.48-3.5-2.05l-3.34.6c-4.28.85-4.53,1.11-4.53,5.47v31.73c0,4.2.34,4.62,4,4.62h4.1C381.55,133.77,381.89,133.35,381.89,129.15Zm39.18-64.66a7.2,7.2,0,0,0-7.36-7.35c-7.27,0-13.34,7.27-13.34,16.08,0,3,.51,4.7,1.37,4.7,1.54,0,4-4.11,11.63-5.65C416.79,71.59,421.07,69.79,421.07,64.49Zm-75.44,39.09c4.27,0,7.52,2.22,8.12,5.39.09.68-.08,1.2-.77,1.28l-16.93,1.11c-.6,0-.77-.34-.69-1.19C335.88,106.23,340.07,103.58,345.63,103.58Zm-9.24,15.74,24.38-1.54c3.16-.17,3.76-.6,3.76-3.51,0-12.91-6.33-19.41-18.9-19.41-13.43,0-21.3,7.69-21.3,21,0,12.4,7.7,19.59,20.87,19.59,6,0,11.55-1.46,15.31-3.94,3.16-2.05,3.42-3.08,1.2-5.13l-3.17-2.82c-1-1-1.79-1-3.5.08a20.31,20.31,0,0,1-10.7,2.83c-3.59,0-7.69-2.4-8.72-5.65C335.36,120.09,335.28,119.4,336.39,119.32Z"/><path class="cls-1" d="M41.36,96.81a3,3,0,1,0-3,3,3,3,0,0,0,3-3m32.12,32.64a3.95,3.95,0,1,0,4,3.94,3.94,3.94,0,0,0-4-3.94M55.62,66.76a2.29,2.29,0,1,0-2.29-2.29,2.28,2.28,0,0,0,2.29,2.29m45.73-31.54a2.53,2.53,0,1,0-2.52-2.53,2.53,2.53,0,0,0,2.52,2.53M62.6,55.84A4.86,4.86,0,1,0,57.75,51a4.86,4.86,0,0,0,4.85,4.85m81.73-18a2.71,2.71,0,1,0-2.71-2.71,2.71,2.71,0,0,0,2.71,2.71m-27.26-1.42A5.46,5.46,0,1,0,111.62,31a5.47,5.47,0,0,0,5.45,5.46m25.32,48.15c-7,.89-12.29-3.09-12.48-9.44A24,24,0,0,1,133,62c2.43-4.85-3-10.27-8.7-4.17-.75.55-1.42,1.86-2.54,1.27s-.6-2.51-1.09-4-2.66-3-3.81-1.5c-.59.8.24,1.57-.72,1.57s-2.89-2.42-4-3c-5.62-2.83-10.74.37-14.32,4.17-1,1-.73-1.26-2.17-1.26a2.53,2.53,0,0,0-2.41,2.65c0,1.2.46,2.19-.49,3-1.38.54-1.81-.78-2.36-1.26C84.05,52.87,77,59.6,79.74,64A20,20,0,0,0,83,68.51c1.18,1.37,3.08,2.83,3.62,4.17,1.25,3.07,0,6.78-1.27,9.24s-4.65,6.64-6.7,8c-1.69,1.1-3.5,1.29-4.35,2.9S72.62,102.33,75,104c1,.67,3,.75,4.17,1.08,2.09.62,4.16,1.89,6,2.36a20.94,20.94,0,0,0,5.47.29c.37,0,.75,0,1.13,0a13,13,0,0,1,12.28,14.48c-.65,5.89-5.36,10.28-11.18,11.4-5.55,1.07-10.52-4-12.89-6.77,0,0-.61-.66-.95-1a7.93,7.93,0,0,0-5.53-2.23c-3,0-5.2,1.54-6.94,4A16.79,16.79,0,1,1,43.25,104c.13-.19,8.3-5.93-.43-15.32l-.1-.11c-.29-.32-.6-.63-.92-.93-.1-.1-.19-.2-.29-.29-.36-.37-.74-.71-1.13-1a13.57,13.57,0,0,1-3.17-3.78,14.22,14.22,0,0,1-1.47-3.77c0-.15-.07-.3-.11-.45a15.09,15.09,0,0,1-.26-3.48,14.52,14.52,0,0,1,.11-1.74A6.53,6.53,0,0,1,46,68.13h0l.24.2h0a1.8,1.8,0,0,1,.2.19l0,0,.21.21h0a6.53,6.53,0,0,1,1.8,4.5v.08a7.42,7.42,0,0,1-.15,1.32l-1.25,7.86-.16,1a3.09,3.09,0,0,0,0,.53,2.3,2.3,0,0,0,.72,1.49l.06.06.07.06.12.08,0,0a3.17,3.17,0,0,0,.41.21h0l.12,0,.09,0,.09,0,.2,0h0l.22,0h0a.81.81,0,0,0,.22,0h0a2.29,2.29,0,0,0,2.11-2s1.87-14.72,18-25.11c5-3.23,7.36-9.39,7.36-15.36V41a5.88,5.88,0,0,1,5.88-5.88,5.55,5.55,0,0,1,4.92,3.85,4.33,4.33,0,0,1,0,2.82A5.1,5.1,0,0,1,86.33,44l-4.8,4.74a1.94,1.94,0,0,0,2.74,2.76l.53-.79.15-.27a20.61,20.61,0,0,1,27.21-10.05,23.44,23.44,0,0,0,17.45,1.38,22.6,22.6,0,0,1,28.3,14.84c3.76,12-3.34,26.45-15.52,28"/><path class="cls-1" d="M490.6,37.33A37.37,37.37,0,0,0,453.27,0H37.33A37.37,37.37,0,0,0,0,37.34L.1,141a37.38,37.38,0,0,0,37.33,37.33H453.37A37.38,37.38,0,0,0,490.7,141ZM453.37,171H37.43a30.05,30.05,0,0,1-30-30L7.36,37.33a30.06,30.06,0,0,1,30-30H453.27a30.06,30.06,0,0,1,30,30l.1,103.66A30.05,30.05,0,0,1,453.37,171Z"/></g></g></svg>