<svg xmlns="http://www.w3.org/2000/svg" viewBox="0 0 420.82 366.2"><defs><style>.cls-1{fill:#fff;}</style></defs><g id="Capa_2" data-name="Capa 2"><g id="Capa_1-2" data-name="Capa 1"><path class="cls-1" d="M35.09,307.9c6.24,0,11.3-.1,16.47,2.45s7.74,6.18,7.79,11.19c0,6.49-5.43,9.28-12.48,11,10.13,1,17,7.28,17,14.84,0,5.37-2.83,9.89-8.37,13.45-6.35,4.08-12.59,4.16-21,4.16H0v-.27c5.76-2.69,4.94-7.53,4.94-12.13V320.24c0-4.52.82-9.46-4.94-12.07v-.27ZM25.4,330.52a35.58,35.58,0,0,0,4.37.35,8.32,8.32,0,0,0,8.59-8.21c0-3.38-2.35-6.69-7.42-6.69a29.84,29.84,0,0,0-5.54.52Zm0,25.29c1.76.88,5.18,1,7.3,1,7.66,0,10.72-4.68,10.72-9.73,0-6.59-4.12-9.53-13.07-9.53h-5Z"/><path class="cls-1" d="M84.94,347.74l-2.41,5.89c-.71,1.74-1.82,4.44-1.82,6.26,0,2.43,1.82,3.56,3.63,4.85V365H63.67v-.27c3.83-3,5.14-5.55,7-10l13.92-34.63c.6-1.73,2.21-5.12,2.21-6.94,0-2.34-1.81-3.91-3.82-5v-.27h24.7l19.05,44.71c2.42,5.55,2.92,7.53,8.67,12.13V365H104.9v-.27c2.32-1.29,4.14-2.51,4.14-5.28a6.38,6.38,0,0,0-.81-3.3l-3.33-8.42Zm9.68-25.16h-.1l-6.65,17.08h13.71Z"/><path class="cls-1" d="M146.61,366.2l-20.44-50.48c-1.2-3-2.32-5.38-4.94-7.55v-.27H144v.27l-.1.43c0,2.45,2.22,7.47,3.12,9.81l12.81,31.94,11.9-31.41a15.22,15.22,0,0,0,1.41-5.05c0-2.84-1.91-4.42-4.43-5.72v-.27h18v.27l-23.29,58Z"/><path class="cls-1" d="M199,347.74l-2.42,5.89c-.71,1.74-1.82,4.44-1.82,6.26,0,2.43,1.82,3.56,3.64,4.85V365H177.69v-.27c3.83-3,5.14-5.55,6.95-10l13.91-34.63c.61-1.73,2.22-5.12,2.22-6.94,0-2.34-1.81-3.91-3.83-5v-.27h24.7l19.06,44.71c2.41,5.55,2.93,7.53,8.66,12.13V365H218.92v-.27c2.32-1.29,4.13-2.51,4.13-5.28a6.29,6.29,0,0,0-.81-3.3l-3.32-8.42Zm9.68-25.16h-.11l-6.65,17.08h13.7Z"/><path class="cls-1" d="M275.72,352.61c0,4.49-.7,9.44,4.25,12.13V365H252.83v-.27c4.95-2.69,4.24-7.64,4.24-12.13v-32.3c0-4.5.71-9.45-4.24-12.14v-.27h29.85c4.94,0,9-.08,13.51,2,5.95,2.79,9,7.38,9,13.19,0,6.51-5.34,11.29-12,13.72l12,17.26a40.74,40.74,0,0,0,9.68,10.42l-13.9.78c-6.76.34-10-.45-13.52-5.81l-11.7-18.93Zm0-36.29v19.62c6.25-1,10.89-5.55,10.89-11a8.59,8.59,0,0,0-4-7.38,11.15,11.15,0,0,0-5.86-1.22Z"/><path class="cls-1" d="M340.56,352.69c0,4.52-.71,9.36,4.23,12.05V365H317.68v-.27c4.94-2.69,4.23-7.53,4.23-12.05V320.31c0-4.5.71-9.45-4.23-12.14v-.27h27.11v.27c-4.94,2.69-4.23,7.64-4.23,12.14Z"/><path class="cls-1" d="M370.42,347.74,368,353.63c-.7,1.74-1.81,4.44-1.81,6.26,0,2.43,1.81,3.56,3.62,4.85V365H349.13v-.27c3.84-3,5.15-5.55,7-10L370,320.14c.61-1.73,2.22-5.12,2.22-6.94,0-2.34-1.81-3.91-3.83-5v-.27h24.71l19,44.71c2.42,5.55,2.92,7.53,8.67,12.13V365H390.38v-.27c2.31-1.29,4.13-2.51,4.13-5.28a6.39,6.39,0,0,0-.82-3.3l-3.31-8.42Zm9.67-25.16H380l-6.66,17.08h13.72Z"/><path class="cls-1" d="M317.87,176c3.39-1.4,42.67-14.56,42.67-33.7,0-26.3-84.94-50.66-84.94-50.66l-69.3,34a240.85,240.85,0,0,0-82.53-34L32.91,138.07a145.18,145.18,0,0,1,83.49,26.24V254.1A200.29,200.29,0,0,1,33,272.17v2.72H270.53c74.22,0,110.1-29.17,110.1-46S365.67,195.37,317.87,176ZM206.45,137.6s56.45,4.83,56.45,30.23c0,19-56.45,26.54-56.45,26.54Zm0,122.21V203s79.12,12.71,79.12,44.87S206.45,259.81,206.45,259.81Z"/><path class="cls-1" d="M238.51,70.65,231.76,8.87h.91a6.51,6.51,0,0,0,6.52-6.51V0H180.66a8,8,0,0,0-8,7.31h-9.65a7.81,7.81,0,0,0-7.8,7.82l-.19,21.52a7.38,7.38,0,0,1,7.3-7.39H177l4.21,4.21H162.37v3.13a7.31,7.31,0,0,0,7.31,7.31h11l-3,25.68A19.93,19.93,0,0,1,147.7,84.18h0A56.47,56.47,0,0,0,183,96.53a63.22,63.22,0,0,0,23.29-5c4.86,2.43,14.95,5,23.27,5a56.45,56.45,0,0,0,35.28-12.32,18.21,18.21,0,0,1-26.35-13.56ZM191.67,21.24A6.68,6.68,0,0,1,185,14.63h13.37A6.69,6.69,0,0,1,191.67,21.24Zm73.19,63h0v0S264.86,84.21,264.86,84.21Z"/></g></g></svg>