<?xml version="1.0" encoding="UTF-8"?>
<svg width="397px" height="397px" viewBox="0 0 397 397" version="1.1" xmlns="http://www.w3.org/2000/svg" xmlns:xlink="http://www.w3.org/1999/xlink">
    <!-- Generator: Sketch 63.1 (92452) - https://sketch.com -->
    <title>aliado-bayer</title>
    <desc>Created with Sketch.</desc>
    <g id="Page-1" stroke="none" stroke-width="1" fill="none" fill-rule="evenodd">
        <g id="aliado-bayer" transform="translate(-1.000000, 0.000000)" fill="#FFFFFF" fill-rule="nonzero">
            <path d="M187.38582,58.9821662 L210.352327,58.9821662 C212.962157,58.9821662 215.050022,56.8943019 215.050022,54.2844715 C215.050022,51.6746411 212.962157,49.5867769 210.352327,49.5867769 L187.38582,49.5867769 L187.38582,58.9821662 Z M187.38582,80.9047412 L210.874293,80.9047412 C214.00609,80.9047412 216.093954,78.8168769 216.093954,75.6850805 C216.093954,72.553284 214.00609,70.4654197 210.874293,70.4654197 L187.38582,70.4654197 L187.38582,80.9047412 Z M224.445411,64.2018269 C227.577207,67.3336233 229.665072,71.5093519 229.665072,76.2070465 C229.665072,85.6024358 222.357547,92.9099609 212.962157,92.9099609 L174.858634,92.9099609 L174.858634,38.1035233 L212.440191,38.1035233 C221.313615,38.1035233 228.62114,45.4110483 228.62114,54.2844715 C228.099174,57.938234 226.533275,61.5919965 224.445411,64.2018269 Z M233.318834,158.15572 L219.22575,158.15572 L215.050022,148.760331 L184.254023,148.760331 L180.078295,158.15572 L165.985211,158.15572 L193.127447,103.349282 L205.654632,103.349282 L233.318834,158.15572 Z M199.39104,117.442366 L189.99565,137.277077 L208.786429,137.277077 L199.39104,117.442366 Z M218.181818,170.16094 L233.8408,170.16094 L206.176599,205.654632 L206.176599,224.967377 L193.127447,224.967377 L193.127447,205.654632 L165.463245,170.16094 L181.122227,170.16094 L199.913006,195.215311 L218.181818,170.16094 Z M290.735102,170.16094 L290.735102,182.166159 L254.197477,182.166159 L254.197477,191.561548 L289.69117,191.561548 L289.69117,203.566768 L254.197477,203.566768 L254.197477,214.00609 L290.735102,214.00609 L290.735102,226.011309 L241.148325,226.011309 L241.148325,170.16094 L290.735102,170.16094 Z M330.92649,204.088734 L321.009134,204.088734 L321.009134,224.967377 L307.959983,224.967377 L307.959983,170.16094 L341.365811,170.16094 C350.761201,170.16094 358.068726,177.990431 358.068726,187.38582 C358.068726,195.215311 352.849065,201.478904 346.063506,203.566768 L362.244454,224.967377 L346.585472,224.967377 L330.92649,204.088734 Z M340.321879,181.644193 L321.5311,181.644193 L321.5311,192.083515 L340.321879,192.083515 C343.453676,192.083515 345.54154,189.473684 345.54154,186.863854 C345.54154,184.254023 342.931709,181.644193 340.321879,181.644193 Z M171.204872,224.967377 L157.111788,224.967377 L152.936059,215.571988 L122.140061,215.571988 L117.964332,224.967377 L103.871248,224.967377 L131.53545,170.16094 L144.062636,170.16094 L171.204872,224.967377 Z M137.277077,184.254023 L127.881688,204.088734 L147.194432,204.088734 L137.277077,184.254023 Z M54.2844715,191.039582 L77.2509787,191.039582 C79.860809,191.039582 81.9486733,188.951718 81.9486733,186.341888 C81.9486733,183.732057 79.860809,181.644193 77.2509787,181.644193 L54.2844715,181.644193 L54.2844715,191.039582 Z M54.2844715,212.962157 L77.7729448,212.962157 C80.9047412,212.962157 82.9926055,210.874293 82.9926055,207.742497 C82.9926055,204.6107 80.9047412,202.522836 77.7729448,202.522836 L54.2844715,202.522836 L54.2844715,212.962157 Z M91.3440626,196.259243 C94.4758591,199.39104 96.5637234,203.566768 96.5637234,208.264463 C96.5637234,217.659852 89.2561983,224.967377 79.860809,224.967377 L41.2353197,224.967377 L41.2353197,170.16094 L78.8168769,170.16094 C87.6903001,170.16094 94.9978251,177.468465 94.9978251,186.341888 C94.9978251,189.99565 93.4319269,193.649413 91.3440626,196.259243 Z M224.445411,236.450631 L224.445411,248.45585 L187.907786,248.45585 L187.907786,257.85124 L223.401479,257.85124 L223.401479,269.856459 L187.907786,269.856459 L187.907786,280.295781 L224.445411,280.295781 L224.445411,292.301 L174.858634,292.301 L174.858634,236.450631 L224.445411,236.450631 Z M215.050022,321.5311 C215.050022,318.399304 212.962157,316.31144 209.830361,316.31144 L187.38582,316.31144 L187.38582,326.750761 L209.830361,326.750761 C212.962157,326.750761 215.050022,324.662897 215.050022,321.5311 Z M174.336668,359.634624 L174.336668,304.828186 L210.874293,304.828186 C220.269682,304.828186 227.577207,312.657677 227.577207,322.053067 C227.577207,329.360592 223.401479,335.102218 217.137886,337.712049 L233.8408,359.634624 L218.181818,359.634624 L202.522836,338.755981 L187.38582,338.755981 L187.38582,359.634624 L174.336668,359.634624 L174.336668,359.634624 Z" id="Shape"></path>
            <path d="M397.216181,185.819922 C390.952588,82.4706394 304.828186,0 199.39104,0 C93.953893,0 7.82949108,82.4706394 1.56589822,185.819922 C1.56589822,189.99565 2.08786429,194.171379 2.60983036,198.347107 C6.78555894,232.796868 19.8347107,264.636799 39.6694215,291.257068 C75.6850805,340.321879 133.623314,372.161809 199.39104,372.161809 C107.525011,372.161809 32.3618965,300.652458 26.0983036,210.874293 C25.5763375,206.698565 25.5763375,202.522836 25.5763375,198.347107 C25.5763375,194.171379 25.5763375,189.99565 26.0983036,185.819922 C32.3618965,96.0417573 107.525011,24.5324054 199.39104,24.5324054 C265.158765,24.5324054 323.096999,56.3723358 359.112658,105.437147 C378.947368,132.057416 391.99652,163.897347 396.172249,198.347107 C396.694215,202.522836 397.216181,206.698565 397.216181,210.352327 C397.216181,206.176599 397.738147,202.00087 397.738147,197.825141 C397.738147,194.171379 397.738147,189.99565 397.216181,185.819922" id="Path"></path>
            <path d="M1.56589822,210.874293 C7.82949108,314.223575 93.953893,396.694215 199.39104,396.694215 C304.828186,396.694215 390.952588,314.223575 397.216181,210.874293 C397.216181,206.698565 396.694215,202.522836 396.172249,198.347107 C391.99652,163.897347 378.947368,132.057416 359.112658,105.437147 C323.096999,56.3723358 265.158765,24.5324054 199.39104,24.5324054 C291.257068,24.5324054 366.420183,96.0417573 372.683776,185.819922 C373.205742,189.99565 373.205742,194.171379 373.205742,198.347107 C373.205742,202.522836 373.205742,206.698565 372.683776,210.874293 C366.420183,301.174424 291.257068,372.161809 199.39104,372.161809 C133.623314,372.161809 75.6850805,340.321879 39.6694215,291.257068 C19.8347107,264.636799 6.78555894,232.796868 2.60983036,198.347107 C2.08786429,194.171379 1.56589822,189.99565 1.56589822,186.341888 C1.56589822,190.517616 1.04393214,194.693345 1.04393214,198.869074 C1.04393214,202.522836 1.04393214,206.698565 1.56589822,210.874293" id="Path"></path>
        </g>
    </g>
</svg>