<svg xmlns="http://www.w3.org/2000/svg" viewBox="0 0 98.21 81.74"><defs><style>.cls-1{fill:#fff;}</style></defs><g id="Capa_2" data-name="Capa 2"><g id="Capa_1-2" data-name="Capa 1"><path class="cls-1" d="M20.31,68.39a3.75,3.75,0,0,0-3.75-3.72H12.09V76.55H17a3.73,3.73,0,0,0,3.75-3.69,3.77,3.77,0,0,0-1-2.52,3.63,3.63,0,0,0,.57-2m-5.26-1.08h1.49a1.13,1.13,0,1,1,0,2.26H15.09ZM17,74H15.09V71.69H17A1.14,1.14,0,0,1,17.18,74,.74.74,0,0,1,17,74"/><path class="cls-1" d="M27.17,64.45a6.21,6.21,0,1,0,6,6.42v-.21a6.12,6.12,0,0,0-6-6.21m0,9.2a3,3,0,1,1,2.76-3.22,1.62,1.62,0,0,1,0,.22,2.89,2.89,0,0,1-2.77,3"/><path class="cls-1" d="M40.55,72.49H42v.65a3.34,3.34,0,0,1-1.77.51,3,3,0,0,1,0-6,3.23,3.23,0,0,1,2.21.84l.31.29,2.18-2.38-.31-.29a6.49,6.49,0,0,0-4.39-1.69,6.23,6.23,0,1,0,0,12.45A6.63,6.63,0,0,0,42,76.63h3.23v-7.4H40.55Z"/><polygon class="cls-1" points="61.75 68.16 61.75 76.65 65.57 76.65 65.57 68.16 69.18 68.16 69.18 64.51 58.12 64.51 58.12 68.16 61.75 68.16"/><polygon class="cls-1" points="86.13 81.74 78.81 62.27 72.23 62.27 66.85 76.63 70.84 76.63 75.51 64.81 82.15 81.74 86.13 81.74"/><path class="cls-1" d="M57.19,67.73h0a6,6,0,0,0-5.28-3.27,6.21,6.21,0,1,0,6,6.42v-.21a6.37,6.37,0,0,0-.71-2.93m-5.29,5.92a3,3,0,1,1,2.76-3.22,1.62,1.62,0,0,1,0,.22,2.89,2.89,0,0,1-2.77,3"/><polygon class="cls-1" points="80.48 55.96 84.08 54.49 79.3 52.78 76.24 44.59 73.06 50.62 66.59 49.29 71.16 54.24 68.93 60.23 76.97 57.34 82.84 62.27 80.48 55.96"/><polygon class="cls-1" points="67.1 56.28 68.57 55.33 66.81 54.96 66.3 53.21 65.6 54.7 62.93 54.14 65.02 56.29 64.38 58.02 66.25 56.82 67.7 57.99 67.1 56.28"/><polygon class="cls-1" points="82.99 47.38 84.53 46.4 82.69 46.01 82.16 44.17 81.27 45.7 78.64 45.15 80.82 47.39 80.15 49.21 82.11 47.95 83.62 49.17 82.99 47.38"/><path class="cls-1" d="M2.73,27.46,1.64,24.75H1.09L0,27.46H.58l.23-.59H1.9l.23.62ZM1,26.38l.36-1,.38,1Z"/><polygon class="cls-1" points="4.78 27 3.42 27 3.42 24.77 2.87 24.77 2.87 27.46 4.78 27.46 4.78 27"/><path class="cls-1" d="M6.39,26.87A.57.57,0,0,1,6,27a.64.64,0,0,1-.48-.14,1.17,1.17,0,0,1-.18-.73,1.09,1.09,0,0,1,.18-.7.6.6,0,0,1,.5-.22.63.63,0,0,1,.37.12.66.66,0,0,1,.2.34l.54-.14a1.05,1.05,0,0,0-.28-.49,1.07,1.07,0,0,0-.81-.3,1.22,1.22,0,0,0-.92.38,1.53,1.53,0,0,0-.35,1,1.46,1.46,0,0,0,.35,1,1.19,1.19,0,0,0,.89.36,1.15,1.15,0,0,0,.72-.21,1.24,1.24,0,0,0,.41-.66l-.53-.17a1,1,0,0,1-.23.42"/><path class="cls-1" d="M8,26.87H9.09l.24.62h.59L8.79,24.75H8.2l-1,2.71h.58Zm.54-1.46.37,1H8.09Z"/><polygon class="cls-1" points="11.98 27 10.62 27 10.62 24.77 10.07 24.77 10.07 27.46 11.98 27.46 11.98 27"/><path class="cls-1" d="M13.72,24.8a1.51,1.51,0,0,0-.52,0h-1v2.71h1a2,2,0,0,0,.49-.06,1,1,0,0,0,.38-.21,1.32,1.32,0,0,0,.29-.48,1.63,1.63,0,0,0,.08-.58,2.29,2.29,0,0,0-.08-.64,1.17,1.17,0,0,0-.26-.44.83.83,0,0,0-.41-.25m.13,1.8a.51.51,0,0,1-.14.26.57.57,0,0,1-.22.11,1.82,1.82,0,0,1-.33,0h-.41V25.21h.7a.6.6,0,0,1,.25.13.53.53,0,0,1,.15.26,1.32,1.32,0,0,1,.06.48,1.4,1.4,0,0,1-.06.5"/><polygon class="cls-1" points="15.11 23.95 14.86 24.5 15.19 24.5 15.69 23.95 15.11 23.95"/><rect class="cls-1" x="14.72" y="24.75" width="0.55" height="2.71"/><path class="cls-1" d="M16.58,24.75l-1.06,2.71h.57l.22-.62H17.4l.23.62h.6l-1.09-2.71Zm-.08,1.63.36-1,.38,1Z"/><polygon class="cls-1" points="22.15 24.75 21.33 24.75 20.84 26.6 20.35 24.75 19.53 24.75 19.53 27.46 20.03 27.46 20.04 25.32 20.57 27.46 21.1 27.46 21.64 25.32 21.64 27.46 22.15 27.46 22.15 24.75"/><path class="cls-1" d="M25.09,27.46,24,24.75H23.4l-1,2.71H23l.22-.62h1.09l.24.62Zm-1.75-1.08.37-1,.37,1Z"/><polygon class="cls-1" points="24.4 24.75 25.39 26.32 25.39 27.46 25.94 27.46 25.94 26.32 26.94 24.75 26.31 24.75 25.68 25.82 25.04 24.75 24.4 24.75"/><path class="cls-1" d="M26.71,26.12a1.41,1.41,0,0,0,.35,1,1.29,1.29,0,0,0,1,.36,1.26,1.26,0,0,0,1-.37,1.4,1.4,0,0,0,.35-1,1.46,1.46,0,0,0-.35-1,1.28,1.28,0,0,0-1-.37,1.71,1.71,0,0,0-.59.11,1.21,1.21,0,0,0-.35.24,1.34,1.34,0,0,0-.25.37,1.67,1.67,0,0,0-.12.7m.77-.72a.76.76,0,0,1,1.07,0l0,0a1.3,1.3,0,0,1,0,1.4.68.68,0,0,1-.53.24.69.69,0,0,1-.55-.24,1.27,1.27,0,0,1,0-1.4"/><path class="cls-1" d="M31.63,26.93a2.69,2.69,0,0,0-.31-.44,2.09,2.09,0,0,0-.29-.23.83.83,0,0,0,.53-.25.72.72,0,0,0,.18-.5.82.82,0,0,0-.12-.43.61.61,0,0,0-.31-.26,2,2,0,0,0-.64-.07H29.52v2.71h.57V26.33h.39a.36.36,0,0,1,.16.11c0,.06.15.19.29.4l.4.59H32Zm-1.15-1h-.39v-.68h.83a.36.36,0,0,1,.2.11.35.35,0,0,1,.08.22.39.39,0,0,1-.06.21.36.36,0,0,1-.16.11,1.93,1.93,0,0,1-.48,0"/><rect class="cls-1" x="26.5" y="31.33" width="0.51" height="0.51"/><path class="cls-1" d="M3.83,29.47a.94.94,0,0,0-.4-.25,2.21,2.21,0,0,0-.51,0h-1v2.7h1a1.58,1.58,0,0,0,.48-.06,1,1,0,0,0,.38-.21,1.24,1.24,0,0,0,.31-.5,2.15,2.15,0,0,0,0-1.23,1,1,0,0,0-.25-.43M3.57,31a.51.51,0,0,1-.14.26.53.53,0,0,1-.21.11,1.82,1.82,0,0,1-.33,0h-.4V29.62h.24a1.62,1.62,0,0,1,.44,0,.58.58,0,0,1,.25.12.61.61,0,0,1,.15.26,1.95,1.95,0,0,1,0,1"/><polygon class="cls-1" points="4.89 30.67 6.23 30.67 6.23 30.21 4.89 30.21 4.89 29.62 6.33 29.62 6.33 29.17 4.35 29.17 4.35 31.84 6.38 31.84 6.38 31.39 4.89 31.39 4.89 30.67"/><path class="cls-1" d="M9.41,30.42a.65.65,0,0,0,.37-.58.55.55,0,0,0-.08-.31.7.7,0,0,0-.2-.22.69.69,0,0,0-.28-.11H7.68v2.67H9.24a.69.69,0,0,0,.36-.13.67.67,0,0,0,.23-.27.74.74,0,0,0,.09-.36.63.63,0,0,0-.14-.4.67.67,0,0,0-.37-.24m-1.19-.81h.31a3.53,3.53,0,0,1,.46,0,.25.25,0,0,1,.2.09.29.29,0,0,1,.07.2.32.32,0,0,1-.08.21.31.31,0,0,1-.22.09H8.22Zm1.07,1.65a.31.31,0,0,1-.2.11H8.22v-.75h.44a1.93,1.93,0,0,1,.48,0,.48.48,0,0,1,.16.12.39.39,0,0,1,.06.21.29.29,0,0,1-.07.22"/><path class="cls-1" d="M11.39,29.13a1.4,1.4,0,0,0-.57.1,1,1,0,0,0-.35.24,1.85,1.85,0,0,0-.25.37,2,2,0,0,0-.12.68,1.36,1.36,0,0,0,.36,1,1.23,1.23,0,0,0,.94.36,1.23,1.23,0,0,0,.94-.36,1.6,1.6,0,0,0,0-2,1.25,1.25,0,0,0-.95-.36m.54,2.06a.73.73,0,0,1-1,0l0,0a1.26,1.26,0,0,1,0-1.37.69.69,0,0,1,.54-.23.66.66,0,0,1,.53.22,1.29,1.29,0,0,1,0,1.38"/><path class="cls-1" d="M14.26,30.87h.62v.34a1.64,1.64,0,0,1-.29.16,1,1,0,0,1-.34.06.69.69,0,0,1-.55-.24,1,1,0,0,1-.21-.71.92.92,0,0,1,.21-.66.74.74,0,0,1,.56-.22.73.73,0,0,1,.38.11.58.58,0,0,1,.22.31l.53-.1a.92.92,0,0,0-.36-.58,1.39,1.39,0,0,0-.77-.2,1.29,1.29,0,0,0-.64.13,1.12,1.12,0,0,0-.51.5,1.47,1.47,0,0,0-.18.74,1.71,1.71,0,0,0,.16.71,1.14,1.14,0,0,0,.47.5,1.45,1.45,0,0,0,.73.17,1.73,1.73,0,0,0,.64-.12,1.68,1.68,0,0,0,.5-.29V30.41H14.26Z"/><path class="cls-1" d="M17,29.13a1.42,1.42,0,0,0-.58.1,1.16,1.16,0,0,0-.34.24,1.15,1.15,0,0,0-.25.37,1.6,1.6,0,0,0-.12.68,1.35,1.35,0,0,0,.35,1,1.41,1.41,0,0,0,1.88,0,1.6,1.6,0,0,0,0-2,1.3,1.3,0,0,0-.94-.36m.53,2.06a.7.7,0,0,1-.53.23.72.72,0,0,1-.53-.23,1,1,0,0,1-.21-.69,1,1,0,0,1,.21-.68.64.64,0,0,1,.53-.23.7.7,0,0,1,.54.22,1.26,1.26,0,0,1,0,1.38"/><polygon class="cls-1" points="20.37 29.17 18.25 29.17 18.25 29.62 19.04 29.62 19.04 31.84 19.58 31.84 19.58 29.62 20.37 29.62 20.37 29.17"/><path class="cls-1" d="M21.14,29.17l-1.05,2.7h.58l.22-.61H22l.23.61h.59l-1.06-2.7Zm-.05,1.61.36-1,.37,1Z"/><polygon class="cls-1" points="21.23 28.93 21.56 28.93 22.05 28.39 21.48 28.39 21.23 28.93"/><path class="cls-1" d="M26.16,29.47a1,1,0,0,0-.41-.25,2.07,2.07,0,0,0-.5,0h-1v2.7h1a1.84,1.84,0,0,0,.47-.06.91.91,0,0,0,.37-.24,1.2,1.2,0,0,0,.29-.47,2.22,2.22,0,0,0,0-1.2,1.16,1.16,0,0,0-.25-.43M25.86,31a.82.82,0,0,1-.14.26.57.57,0,0,1-.22.11,1.82,1.82,0,0,1-.33,0h-.4V29.62h.32a1.7,1.7,0,0,1,.45,0,.55.55,0,0,1,.24.12.63.63,0,0,1,.16.26,2.33,2.33,0,0,1,0,1"/><path class="cls-1" d="M28.63,31.28a.46.46,0,0,1-.36.14.6.6,0,0,1-.48-.21,1.14,1.14,0,0,1-.18-.72,1,1,0,0,1,.19-.69.6.6,0,0,1,.48-.21.55.55,0,0,1,.56.45l.53-.13a1,1,0,0,0-.27-.49,1.07,1.07,0,0,0-.8-.29,1.17,1.17,0,0,0-.9.37,1.41,1.41,0,0,0-.35,1,1.35,1.35,0,0,0,.35,1,1.26,1.26,0,0,0,1.58.15,1.23,1.23,0,0,0,.4-.65l-.52-.13a.79.79,0,0,1-.23.43"/><rect class="cls-1" x="29.46" y="31.34" width="0.51" height="0.51"/><path class="cls-1" d="M13.75,3.1c.46,0,.83-.21.85-.45s-.39-.44-.87-.44-.71.26-.71.47.24.44.73.42"/><path class="cls-1" d="M9.09,17.37c-.27-.37-.66-.56-.85-.44s-.2.54.07.91.58.47.78.35.24-.44,0-.82"/><path class="cls-1" d="M18.9,2.68c0-.22-.25-.45-.71-.47s-.87.23-.87.44.39.42.85.45.75-.19.73-.42"/><path class="cls-1" d="M14.93,19.67c-.49-.07-.9,0-.95.25s.27.52.73.61.77-.07.82-.3-.14-.47-.6-.56"/><path class="cls-1" d="M24.18,11c0-.47-.17-.84-.38-.87s-.51.33-.54.8.2.7.41.72.49-.21.51-.65"/><path class="cls-1" d="M8.69,11c0-.47-.29-.82-.54-.8s-.39.4-.36.87.27.68.49.65.43-.28.41-.72"/><path class="cls-1" d="M23.91,4.81c.21,0,.43-.29.41-.73s-.29-.82-.54-.8-.41.4-.38.87.26.68.51.66"/><path class="cls-1" d="M22.89,17.37c-.27.38-.22.7,0,.82s.51,0,.78-.35.26-.8.07-.91-.58.07-.85.44"/><path class="cls-1" d="M8.09,4.81c.22,0,.46-.21.48-.66s-.14-.84-.36-.87-.51.33-.53.8.17.7.41.73"/><path class="cls-1" d="M21.43,12.1c-.08,0-.37.28-.37.28-.07-.23-.44-.23-.44-.23v.09a.33.33,0,0,1,.25.4l0,.07c0,.07.25.24.3.17a.34.34,0,0,1,.48-.05l.05.05,0-.05s-.12-.33-.37-.28c0,0,.15-.4.08-.45"/><path class="cls-1" d="M20.92,12.87a1.07,1.07,0,0,0-1.46.17,1,1,0,0,0,.44,1.3c-.36,0-.83-.46-.83-.46-.2.38.17.59.46.69l-.11.1c-.28-.07-.38,0-.38,0l-1.11-1.14.41-.08c-.3-.67-1.08-.82-1.62-1.22s.05-.45.16-.34a1.6,1.6,0,0,0,1.89.26,2,2,0,0,1-1-1A2.24,2.24,0,0,0,20.34,11a2.07,2.07,0,0,1-1.72-.75,2.93,2.93,0,0,0,2.47-.67,6.9,6.9,0,0,1-1.94-.53c2.21-.07,2.4-1.64,2.42-1.64a4.7,4.7,0,0,1-2.23.21,2.79,2.79,0,0,0,2.14-2.72c-.49.73-2.72,1.43-2.72,1.43a1.48,1.48,0,0,0-1.09,1.36.55.55,0,0,1-.54.47c-.59,0-.58-.86-.58-1.27,0-.61,0-1.31-.46-1.31h-.87a.86.86,0,0,0-.55.12c-.12.12-.19,1-.09.82a1.06,1.06,0,0,1,.56,0c.28.08.08,1,.08,1.15a.54.54,0,0,1-1.07,0,1.5,1.5,0,0,0-1.06-1.34s-2.28-.7-2.77-1.43a2.86,2.86,0,0,0,2.16,2.77,4.92,4.92,0,0,1-2.25-.26,2.41,2.41,0,0,0,2.52,1.71,7.58,7.58,0,0,1-2,.42,2.81,2.81,0,0,0,2.6.84,2.49,2.49,0,0,1-1.83.61,2.26,2.26,0,0,0,2.58.16,2,2,0,0,1-1,1,1.65,1.65,0,0,0,2-.27c.13-.15.54,0,.13.34s-1.35.52-1.69,1.22l.41.08c-.46.47-1.07,1.13-1.14,1.14s-.09-.12-.35-.06l-.1-.09c.3-.1.67-.31.46-.69,0,0-.46.49-.82.46a1,1,0,0,0,.43-1.3,1.06,1.06,0,0,0-1.48-.17l0,0a1,1,0,0,0-.51,1.32l0,0a1,1,0,0,0,1.38.19,1.48,1.48,0,0,1-.82.49s.3.57,1-.19l.11.09c-.18.14-.25.37-.1.47s-.08.38.36.35a.33.33,0,0,0,.45.1A5.09,5.09,0,0,1,13,17h.56A4.44,4.44,0,0,0,13,15.28a.18.18,0,0,0,.07-.25l0,0a12.56,12.56,0,0,1,1.38-.9l.07.38a1.64,1.64,0,0,1,.85-.56,2.29,2.29,0,0,0-.46,1.87.63.63,0,0,1,.58-.35s-.68.82.42,2.41c1.09-1.59.46-2.41.46-2.41a.68.68,0,0,1,.6.35,2.35,2.35,0,0,0-.48-1.88,1.56,1.56,0,0,1,.85.57l.08-.39c.58.37,1.39.88,1.37.91a.4.4,0,0,0,.06.28A4.18,4.18,0,0,0,18.36,17h.56a5.15,5.15,0,0,1,.17-1.3.36.36,0,0,0,.44-.11c.44,0,.37-.35.37-.35s.07-.32-.11-.46l.12-.1c.66.76,1,.19,1,.19a1.48,1.48,0,0,1-.82-.49,1,1,0,0,0,1.38-.19,1,1,0,0,0-.5-1.32l0,0m-9.93,1c-.26-.43-.26-.89-.05-1s.63.09.9.51.22.75,0,.87-.56.05-.85-.37m4.58-7.59a.22.22,0,0,1-.24-.2h0a.22.22,0,0,1,.21-.23h0a.22.22,0,0,1,.22.22h0a.21.21,0,0,1-.21.21h0m5.27,7.58c-.29.42-.63.51-.84.37s-.3-.47,0-.86.67-.64.89-.52.22.58-.05,1"/><path class="cls-1" d="M10.7,12.87c.05.07.32-.1.29-.17s0-.44.22-.47v-.09s-.36,0-.44.23c0,0-.29-.3-.36-.28s.07.45.07.45c-.24,0-.36.28-.36.28l.05,0a.34.34,0,0,1,.48,0l0,0"/><path class="cls-1" d="M18.17,15.38a1.05,1.05,0,0,0-.72-.33,1,1,0,0,0,.27.8.91.91,0,0,0,.72.35,1.16,1.16,0,0,0-.27-.82"/><path class="cls-1" d="M13.39,16.2a1,1,0,0,0,.7-.33,1,1,0,0,0,.27-.8,1.1,1.1,0,0,0-.73.33,1.21,1.21,0,0,0-.27.82"/><polygon class="cls-1" points="16.45 5.41 16.93 4.66 16.18 4.94 15.91 4.27 15.62 4.94 14.84 4.66 15.35 5.41 16.45 5.41"/><path class="cls-1" d="M15.92.11a10.37,10.37,0,0,1-9.54,0V17.18a3.79,3.79,0,0,0,3.83,3.75h0a10,10,0,0,1,5.68,1.42,10.1,10.1,0,0,1,5.65-1.42,3.82,3.82,0,0,0,3.88-3.74h0V.09a10.35,10.35,0,0,1-9.53,0m7.67,2.68s.05-.37.12-.37.2.35.2.35h.43v.07A.28.28,0,0,0,24,3a.29.29,0,0,0,0,.09c0,.07-.32.09-.32,0a.33.33,0,0,0-.38-.25l-.05,0h0s.25-.21.44-.07m.19.49A1,1,0,0,1,25,4a.92.92,0,0,1-.89.87,1.52,1.52,0,0,0,.87,0s.07.54-.77.36a5,5,0,0,1-.35,1.2.92.92,0,0,1,.25-.23,1.18,1.18,0,0,1,.8-.14.88.88,0,0,1-.39.59,1.11,1.11,0,0,1-.69.17,1.93,1.93,0,0,0,.2.71l-.39.31a2.38,2.38,0,0,1,.05-1.85c.2-.42.24-.58.22-.73-.27.09-.8.22-.87-.23a1.52,1.52,0,0,0,.87-.09,1,1,0,0,1-1-.75.93.93,0,0,1,1-.87h0m.65,6.44v.07a.33.33,0,0,0-.43.19v0c0,.07-.31.05-.31,0a.3.3,0,0,0-.3-.28l-.09,0V9.68s.29-.17.43,0,.13-.37.19-.35.13.38.13.38a.44.44,0,0,1,.44,0m-6.26-8a.89.89,0,0,1,.8,1v0a1.4,1.4,0,0,0,0-.86s.56,0,.34.76c.44,0,.74.29,1.17.43a1,1,0,0,1-.2-.25A.93.93,0,0,1,20.34,2a.84.84,0,0,1,.58.42,1.08,1.08,0,0,1,.12.68A2.12,2.12,0,0,0,21.79,3l.29.4a2.72,2.72,0,0,1-2-.32,1.85,1.85,0,0,0-.72-.27c.06.25.14.79-.3.81,0,0,.14-.59-.05-.86a.94.94,0,0,1-.88,1h0a.92.92,0,0,1-.8-1,.94.94,0,0,1,.88-1h0m-1.34.44H17c-.12.21.13.4.25.4s.07.28,0,.28a.33.33,0,0,0-.3.36.13.13,0,0,0,0,.06h-.08s-.17-.25,0-.42c0,0-.39-.07-.39-.14s.41-.14.41-.14c-.14-.16,0-.42,0-.42m-2.06.42c.12,0,.36-.19.24-.4h.07s.2.26,0,.42c0,0,.42.07.42.14s-.39.14-.39.14c.14.17,0,.42,0,.42h0a.34.34,0,0,0-.25-.41h0c-.07,0-.07-.28,0-.28m-4.54.28A2.12,2.12,0,0,0,11,3a1,1,0,0,1,.12-.68.84.84,0,0,1,.58-.42,1,1,0,0,1-.1.78.92.92,0,0,1-.19.25c.42-.14.73-.42,1.16-.43-.21-.78.35-.76.35-.76a1.27,1.27,0,0,0,0,.86.9.9,0,0,1,.77-1h0a.93.93,0,0,1,.87,1h0a.91.91,0,0,1-.8,1,.93.93,0,0,1-.87-1h0c-.2.27,0,.86,0,.86-.44,0-.37-.56-.3-.81a1.71,1.71,0,0,0-.72.27A2.69,2.69,0,0,1,10,3.14ZM8.09,2.75s.12-.38.19-.36.12.38.12.38c.2-.14.44.07.44.07h0A.33.33,0,0,0,8.41,3s0,0,0,0-.32.05-.32,0a.28.28,0,0,0-.33-.24l-.11,0V2.8s.29-.16.44,0m.12.51a.94.94,0,0,1,1,.87,1,1,0,0,1-1.11.69A1.62,1.62,0,0,0,9,5c-.08.45-.61.32-.87.23a1.39,1.39,0,0,0,.21.73,2.52,2.52,0,0,1,0,1.85L8,7.46a1.93,1.93,0,0,0,.2-.71,1.08,1.08,0,0,1-.68-.17A.79.79,0,0,1,7.09,6a1.18,1.18,0,0,1,.8.14.83.83,0,0,1,.22.2C8,5.92,7.73,5.6,7.77,5.17,7,5.35,7,4.81,7,4.81a1.48,1.48,0,0,0,.86.05A.94.94,0,0,1,7,4a1,1,0,0,1,1.14-.73m.54,6.39v.07a.29.29,0,0,0-.37.15.3.3,0,0,0,0,.1c0,.08-.29.1-.31,0a.32.32,0,0,0-.4-.24h0V9.67a.34.34,0,0,1,.44,0s0-.38.12-.38.19.35.19.35c.15-.14.44,0,.44,0m-1.8,2.72a.91.91,0,0,1,.72.26.58.58,0,0,1,.25.41,1.47,1.47,0,0,1,.1-.22,1.38,1.38,0,0,0,.21-.74c-.27.1-.8.23-.87-.22a1.47,1.47,0,0,0,.9-.11A1,1,0,0,1,7.16,11a1,1,0,0,1,1-.9,1,1,0,0,1,1.13.76.91.91,0,0,1-.93.86,1.42,1.42,0,0,0,.91-.05s.06.54-.76.37c.07.73-.74,1.14-.19,2.3l-.39.3a2.39,2.39,0,0,1-.09-1.4A1,1,0,0,1,7.09,13a.67.67,0,0,1-.21-.64m.61,4.51h0s.12-.3.37-.26c0,0-.18-.35-.1-.39s.34.23.34.23c.07-.21.39-.21.39-.21v.07a.32.32,0,0,0-.24.38s0,0,0,.06S8,17,8,16.92a.32.32,0,0,0-.45-.06l-.06.06M10.7,20.4a1.8,1.8,0,0,0-.28-.67,1.27,1.27,0,0,1-.65.25.83.83,0,0,1-.7-.25,1,1,0,0,1,.73-.33.86.86,0,0,1,.32,0c-.35-.27-.76-.37-1-.74-.56.61-.84.13-.84.13A1.33,1.33,0,0,0,9,18.3a.94.94,0,0,1-1.29-.14.94.94,0,0,1,.4-1.27l0,0A1,1,0,0,1,9.53,17a.88.88,0,0,1-.38,1.2h0a1.61,1.61,0,0,0,.79-.41c.22.39-.29.59-.55.67.08.14.21.25.62.46a2.57,2.57,0,0,1,1.22,1.45Zm3.07-.32c-.15,0-.42.11-.37.35h-.07s-.12-.28.07-.42c0,0-.39-.17-.36-.24s.41,0,.41,0c-.12-.21.12-.43.12-.43l.08.05a.29.29,0,0,0,.09.41l.08,0c.07,0,0,.3-.05.28m4.49.63a2.09,2.09,0,0,0-.71-.29.91.91,0,0,1-.27.62.89.89,0,0,1-.67.3,1.2,1.2,0,0,1,.26-.75,1.06,1.06,0,0,1,.26-.17,4.85,4.85,0,0,1-1.26.17c.05.8-.5.63-.5.63a1.34,1.34,0,0,0,.18-.83.92.92,0,0,1-1,.76,1,1,0,0,1,.42-2,1,1,0,0,1,.62,1.1c.25-.21.23-.79.23-.79.45.12.25.6.12.83a1.44,1.44,0,0,0,.77-.09,2.77,2.77,0,0,1,1.94.19ZM15.9,18.87a6.5,6.5,0,0,0-3.81-1A2.45,2.45,0,0,1,9.6,15.46V3.94c1.53.82,4.89.27,6.36-.5,1.48.78,4.8,1.31,6.35.5V15.43a2.61,2.61,0,0,1-2.65,2.44,6.52,6.52,0,0,0-3.76.92m8.3-.71a1,1,0,0,1-1.29.16,1.35,1.35,0,0,0,.76.47s-.28.48-.84-.13c-.25.37-.66.47-1,.74a.92.92,0,0,1,.33,0,1,1,0,0,1,.72.33.86.86,0,0,1-.7.25,1.16,1.16,0,0,1-.64-.25,1.69,1.69,0,0,0-.28.68h-.51A2.52,2.52,0,0,1,22,18.88c.42-.21.55-.32.63-.46-.27-.08-.77-.28-.55-.67,0,0,.43.43.77.41A.89.89,0,0,1,22.44,17h0a1,1,0,0,1,1.31-.09.94.94,0,0,1,.44,1.24m.24-1.24a.29.29,0,0,0-.4-.08.3.3,0,0,0-.08.08c0,.05-.29-.12-.27-.17a.31.31,0,0,0-.11-.41l-.08,0v-.07s.31,0,.39.21c0,0,.27-.28.34-.23s-.1.39-.1.39a.47.47,0,0,1,.37.26ZM24.81,13a1,1,0,0,1-.69.25A2.35,2.35,0,0,1,24,14.67l-.39-.31c.58-1.16-.23-1.57-.18-2.3-.82.18-.74-.37-.74-.37a1.36,1.36,0,0,0,.89.05.93.93,0,0,1-.94-.86A1.11,1.11,0,0,1,24.8,11a1,1,0,0,1-1.07.73c.26.21.9.11.9.11-.08.45-.61.32-.87.22a1.38,1.38,0,0,0,.21.74,1.47,1.47,0,0,1,.1.22.75.75,0,0,1,.24-.41,1,1,0,0,1,.75-.26.74.74,0,0,1-.24.64"/><rect class="cls-1" x="41.38" width="0.59" height="32.24"/><path class="cls-1" d="M55.09,19.3H53.33V12.94h1.76a2.28,2.28,0,0,1,1.87.84,3.6,3.6,0,0,1,.69,2.33A3.6,3.6,0,0,1,57,18.46,2.28,2.28,0,0,1,55.09,19.3Zm-.67-5.38v4.4h.67a1.23,1.23,0,0,0,1.09-.57,2.86,2.86,0,0,0,.38-1.64,2.82,2.82,0,0,0-.47-1.62,1.23,1.23,0,0,0-1-.57Z"/><path class="cls-1" d="M61.67,19.3H58.54V12.94h3v1H59.63v1.7h1.56v1H59.63v1.75h2Z"/><path class="cls-1" d="M62.09,18.79l.51-.93a1.46,1.46,0,0,0,1.1.53.72.72,0,0,0,.78-.65v-.13a.75.75,0,0,0-.13-.43,1.3,1.3,0,0,0-.26-.31c-.13-.1-.27-.19-.43-.29s-.32-.21-.48-.33a3.08,3.08,0,0,1-.43-.38,1.52,1.52,0,0,1-.32-.51,1.59,1.59,0,0,1-.13-.68,1.81,1.81,0,0,1,.51-1.3,1.87,1.87,0,0,1,1.35-.51,2.37,2.37,0,0,1,1.41.43l-.4,1a1.58,1.58,0,0,0-.46-.25,1.4,1.4,0,0,0-.53-.11.74.74,0,0,0-.82.77c0,.37.27.7.79,1a4.27,4.27,0,0,1,.51.3,4,4,0,0,1,.45.37,1.64,1.64,0,0,1,.38.55,2.06,2.06,0,0,1,.12.7,1.88,1.88,0,0,1-.52,1.24,1.74,1.74,0,0,1-1.36.53A2.37,2.37,0,0,1,62.09,18.79Z"/><path class="cls-1" d="M67,19.3H65.87l1.67-6.36h1.18l1.67,6.36H69.3l-.39-1.64H67.35ZM68,15l-.41,1.71h1.21L68.35,15l-.18-1h0c-.09.39-.17.72-.23,1Z"/><path class="cls-1" d="M72.09,19.3H71V12.94h1.85a1.85,1.85,0,0,1,.83.2,1.65,1.65,0,0,1,.7.66,2,2,0,0,1,.26,1,2.07,2.07,0,0,1-.26,1,1.9,1.9,0,0,1-.67.71h0a2.21,2.21,0,0,1,.18.34L75,19.21h-1.2l-1-2.37h-.67Zm0-5.38v2h.59a.79.79,0,0,0,.6-.29,1.13,1.13,0,0,0,.25-.75,1,1,0,0,0-.34-.85.89.89,0,0,0-.5-.15Z"/><path class="cls-1" d="M76.72,19.3H75.63V12.94h1.85a1.85,1.85,0,0,1,.83.2,1.65,1.65,0,0,1,.7.66,2,2,0,0,1,.26,1,2.07,2.07,0,0,1-.26,1,1.9,1.9,0,0,1-.67.71h0a2.21,2.21,0,0,1,.18.34l1.06,2.36h-1.2l-1-2.37h-.69Zm0-5.38v2h.59a.79.79,0,0,0,.6-.29,1.13,1.13,0,0,0,.25-.75,1,1,0,0,0-.34-.85.89.89,0,0,0-.5-.15Z"/><path class="cls-1" d="M80,16.08a3.7,3.7,0,0,1,.7-2.34,2.37,2.37,0,0,1,3.33-.4,2.16,2.16,0,0,1,.4.4,3.76,3.76,0,0,1,.68,2.34,3.88,3.88,0,0,1-.69,2.4,2.36,2.36,0,0,1-3.29.45,2.4,2.4,0,0,1-.45-.45A3.93,3.93,0,0,1,80,16.08Zm1.12,0a3.11,3.11,0,0,0,.39,1.66,1.2,1.2,0,0,0,1.63.47,1.18,1.18,0,0,0,.47-.47A3.14,3.14,0,0,0,84,16.07a2.93,2.93,0,0,0-.38-1.61,1.21,1.21,0,0,0-1.06-.59,1.19,1.19,0,0,0-1,.59,2.9,2.9,0,0,0-.45,1.62Z"/><path class="cls-1" d="M89.09,19.3H86V12.94h1.11v5.39h2Z"/><path class="cls-1" d="M92.94,19.3H89.8V12.94h1.09v5.39h2Z"/><path class="cls-1" d="M93.09,16.08a3.69,3.69,0,0,1,.69-2.34,2.37,2.37,0,0,1,3.33-.4,2.16,2.16,0,0,1,.4.4,3.7,3.7,0,0,1,.7,2.34,3.87,3.87,0,0,1-.7,2.4,2.34,2.34,0,0,1-3.28.45,2.4,2.4,0,0,1-.45-.45A3.88,3.88,0,0,1,93.09,16.08Zm1.11,0a3.11,3.11,0,0,0,.39,1.66,1.2,1.2,0,0,0,1.06.62,1.16,1.16,0,0,0,1-.61,3.14,3.14,0,0,0,.44-1.67,2.93,2.93,0,0,0-.38-1.61,1.24,1.24,0,0,0-1.71-.4,1.27,1.27,0,0,0-.4.4,2.85,2.85,0,0,0-.43,1.61Z"/><path class="cls-1" d="M57.29,28.14H54.16V21.78h3v1H55.25v1.7h1.56v1H55.25v1.69h2Z"/><path class="cls-1" d="M60.53,21.67a2.3,2.3,0,0,1,1.55.53l-.45.94a1.25,1.25,0,0,0-.47-.31,1.53,1.53,0,0,0-.59-.13,1.44,1.44,0,0,0-1.25.63,2.62,2.62,0,0,0-.45,1.54,2.82,2.82,0,0,0,.46,1.64,1.43,1.43,0,0,0,1.22.67,1.83,1.83,0,0,0,1.18-.46l.45.92a2.58,2.58,0,0,1-1.71.57,2.36,2.36,0,0,1-2-.92,4.17,4.17,0,0,1,0-4.73A2.53,2.53,0,0,1,60.53,21.67Z"/><path class="cls-1" d="M62.45,24.87a3.67,3.67,0,0,1,.7-2.33,2.36,2.36,0,0,1,3.31-.41,2.65,2.65,0,0,1,.41.41,3.7,3.7,0,0,1,.7,2.34,3.8,3.8,0,0,1-.7,2.4A2.18,2.18,0,0,1,65,28.2a2.22,2.22,0,0,1-1.87-.92A3.91,3.91,0,0,1,62.45,24.87Zm1.12,0A3.14,3.14,0,0,0,64,26.54a1.17,1.17,0,0,0,1,.62,1.19,1.19,0,0,0,1-.62,3.1,3.1,0,0,0,.38-1.66,2.83,2.83,0,0,0-.25-1.57,1.23,1.23,0,0,0-1.69-.41,1.15,1.15,0,0,0-.41.41A2.86,2.86,0,0,0,63.57,24.87Z"/><path class="cls-1" d="M69.48,28.14h-1V21.78h1.15l1.63,3.6a5.53,5.53,0,0,1,.28.81v.16h0a8.39,8.39,0,0,1-.06-1V21.78h1v6.36H71.41l-1.63-3.61c-.08-.19-.17-.46-.28-.82v-.15h0a8.39,8.39,0,0,1,.06,1Z"/><path class="cls-1" d="M73.43,24.87a3.67,3.67,0,0,1,.7-2.33,2.36,2.36,0,0,1,3.31-.41,2.65,2.65,0,0,1,.41.41,3.7,3.7,0,0,1,.7,2.34,3.8,3.8,0,0,1-.7,2.4,2.35,2.35,0,0,1-3.29.44,2.62,2.62,0,0,1-.44-.44A3.91,3.91,0,0,1,73.43,24.87Zm1.12,0a3.14,3.14,0,0,0,.38,1.67,1.21,1.21,0,0,0,1.65.46,1.27,1.27,0,0,0,.46-.46,3.1,3.1,0,0,0,.38-1.66,2.86,2.86,0,0,0-.33-1.57,1.19,1.19,0,0,0-1-.59,1.21,1.21,0,0,0-1.06.59A3,3,0,0,0,74.55,24.87Zm1.79-3.55H75.5l.59-1.19h1Z"/><path class="cls-1" d="M80.26,28.14h-1l.41-6.36h1.2l.84,3.09.2,1h0c.08-.45.14-.77.19-1L83,21.78h1.2l.4,6.36h-1l-.21-3.54v-1h0c-.08.43-.16.77-.22,1L82.45,27H81.39l-.68-2.4-.21-1h0v.55a3.23,3.23,0,0,1,0,.44Z"/><path class="cls-1" d="M86.65,28.14H85.56V21.78h1.09Z"/><path class="cls-1" d="M90.32,21.67a2.3,2.3,0,0,1,1.55.53l-.46.94a1.14,1.14,0,0,0-.47-.31,1.53,1.53,0,0,0-.59-.13,1.44,1.44,0,0,0-1.25.63,2.62,2.62,0,0,0-.45,1.54,2.82,2.82,0,0,0,.44,1.67,1.43,1.43,0,0,0,1.22.67,1.86,1.86,0,0,0,1.19-.46l.44.92a2.58,2.58,0,0,1-1.71.57,2.39,2.39,0,0,1-2-.92,4.17,4.17,0,0,1,0-4.73A2.55,2.55,0,0,1,90.32,21.67Z"/><path class="cls-1" d="M92.23,24.87a3.75,3.75,0,0,1,.7-2.33,2.37,2.37,0,0,1,3.33-.4,2.16,2.16,0,0,1,.4.4,3.69,3.69,0,0,1,.69,2.34,3.88,3.88,0,0,1-.69,2.4,2.36,2.36,0,0,1-3.31.43,2.19,2.19,0,0,1-.43-.43A3.91,3.91,0,0,1,92.23,24.87Zm1.12,0a3.14,3.14,0,0,0,.39,1.67,1.2,1.2,0,0,0,1.63.47,1.18,1.18,0,0,0,.47-.47,3.11,3.11,0,0,0,.39-1.66,2.93,2.93,0,0,0-.38-1.61,1.21,1.21,0,0,0-1.06-.59,1.19,1.19,0,0,0-1,.59A2.9,2.9,0,0,0,93.35,24.87Z"/><path class="cls-1" d="M57.39,9.67,57.75,9a1,1,0,0,0,.78.38.52.52,0,0,0,.56-.48v0A.56.56,0,0,0,59,8.56a.88.88,0,0,0-.23-.24l-.3-.21a3,3,0,0,1-.38-.24,1.93,1.93,0,0,1-.3-.27,1,1,0,0,1-.23-.36,1.32,1.32,0,0,1-.09-.48,1.24,1.24,0,0,1,.36-.91,1.32,1.32,0,0,1,1-.36,1.68,1.68,0,0,1,1,.29l-.28.69a1.06,1.06,0,0,0-.33-.18,1,1,0,0,0-.37-.08.57.57,0,0,0-.43.15.59.59,0,0,0-.15.4c0,.25.19.49.56.71l.36.21a1.94,1.94,0,0,1,.31.26,1.05,1.05,0,0,1,.27.39,1.43,1.43,0,0,1-.25,1.43,1.28,1.28,0,0,1-1,.37A1.71,1.71,0,0,1,57.39,9.67Z"/><path class="cls-1" d="M62.67,10H60.45V5.54h2.14v.68H61.23V7.43h1.1v.68h-1.1V9.35h1.44Z"/><path class="cls-1" d="M65,5.47a1.58,1.58,0,0,1,1.14.4l-.33.66a.87.87,0,0,0-.32-.22A1,1,0,0,0,65,6.22a1,1,0,0,0-.89.45,1.91,1.91,0,0,0-.31,1.11,2,2,0,0,0,.27,1.09,1,1,0,0,0,.86.47A1.3,1.3,0,0,0,65.79,9l.32.65a1.83,1.83,0,0,1-1.21.41,1.71,1.71,0,0,1-1.41-.65A2.68,2.68,0,0,1,63,7.74a2.58,2.58,0,0,1,.53-1.67A1.74,1.74,0,0,1,65,5.47Z"/><path class="cls-1" d="M67.39,10h-.77V5.54h1.3a1.35,1.35,0,0,1,.59.14,1.11,1.11,0,0,1,.49.47,1.41,1.41,0,0,1,.18.73,1.55,1.55,0,0,1-.18.73,1.26,1.26,0,0,1-.47.5h0c0,.08.09.16.13.24L69.41,10h-.85l-.68-1.67h-.49Zm0-3.8V7.67h.41a.54.54,0,0,0,.43-.2.78.78,0,0,0,.17-.53.71.71,0,0,0-.24-.6.63.63,0,0,0-.35-.11Z"/><path class="cls-1" d="M72.09,10H69.88V5.54H72v.68H70.65V7.43h1.1v.68h-1.1V9.35h1.44Z"/><path class="cls-1" d="M74.2,10h-.77V6.22H72.35V5.54h2.93v.68H74.2Z"/><path class="cls-1" d="M75.83,10h-.74l1.18-4.49h.82L78.28,10h-.79l-.28-1.16H76.09Zm.69-3-.29,1.21h.86L76.8,7l-.13-.69h0c-.06.25-.1.53-.15.68Z"/><path class="cls-1" d="M79.47,10h-.78V5.54H80a1.35,1.35,0,0,1,.59.14,1.11,1.11,0,0,1,.49.47,1.41,1.41,0,0,1,.18.73,1.55,1.55,0,0,1-.18.73,1.28,1.28,0,0,1-.48.5h0c.05.08.1.16.14.24L81.48,10h-.84L80,8.35h-.48Zm0-3.8V7.67h.41a.5.5,0,0,0,.42-.2.75.75,0,0,0,.18-.53.71.71,0,0,0-.24-.6.63.63,0,0,0-.35-.11Z"/><path class="cls-1" d="M82.73,10H82V5.54h.77Zm-.11-4.79H82l.38-.86h.76Z"/><path class="cls-1" d="M83.94,10h-.77l1.17-4.49h.84L86.36,10h-.77l-.28-1.16h-1.1Zm.69-3-.29,1.21h.85L84.91,7l-.14-.69h0c-.06.25-.1.53-.14.68Z"/><path class="cls-1" d="M89.15,10H87.91V5.54h1.24a1.63,1.63,0,0,1,1.33.6A2.46,2.46,0,0,1,91,7.78a2.53,2.53,0,0,1-.48,1.66A1.63,1.63,0,0,1,89.15,10Zm-.47-3.8V9.34h.41a.88.88,0,0,0,.77-.4,2.14,2.14,0,0,0,.27-1.16,2,2,0,0,0-.27-1.14.89.89,0,0,0-.77-.41Z"/><path class="cls-1" d="M93.8,10H91.59V5.54h2.14v.68H92.36V7.43h1.1v.68h-1.1V9.35H93.8Z"/></g></g></svg>