<svg xmlns="http://www.w3.org/2000/svg" viewBox="0 0 503.59 330.05"><defs><style>.cls-1{fill:#fff;}</style></defs><g id="Capa_2" data-name="Capa 2"><g id="Capa_1-2" data-name="Capa 1"><path class="cls-1" d="M204.59,164.68s-30.63.84-57.9-22.65S112.5,94,110.82,89.79s-5.88-20.14-5.88-20.14S136,71.75,154,75.94s47.42,13,61.68,31.89c0,0-2.52-24.33,4.62-44.89S233.75,24.34,253.47,0A179.67,179.67,0,0,1,282,49.51C292.5,78,291.24,89,290.82,107.41h.42s6.29-10.49,26.85-20.14S367.6,70.91,402,70.07c0,0-3.77,25.17-23.91,53.29s-54.13,42-75.53,41.11l40.7-23.91-51.6,19.3,81.39-67.55-92.3,65,26.43-51.19-37.34,49.51,11.75-59.58-23.08,59.16-5-121.67L248,155.24,224.94,95.66l12.17,60-37.34-49.93,26,51.61-91.47-65,80.56,67.55-52-19.3Z"/><path class="cls-1" d="M223.9,269.41s7.73-1,7.73-6.87S225.06,256,220,256s-16.18.06-16.25,0,3.87,2.06,3.87,5.15v25.07h15.08c3.87,0,11.61-1.71,11.61-8.24S226.6,269.75,223.9,269.41Zm-8.51-11c.38-.34.77-.34,3.48-.34s5,2.75,5,5.84a5.23,5.23,0,0,1-5,5.15h-3.48Zm4.24,25.43c-3.3,0-4.23-.37-4.24-1.26V271.49h4.24c2.83,0,6.13,2.32,6.13,5.79S223.93,283.84,219.63,283.84Z"/><path class="cls-1" d="M146.29,248.93H130.44l-.47,8h.94s2-4.81,5.18-4.81h5.78V285.9a39.81,39.81,0,0,1,4.19-.35h.23c1.63,0,4.44.35,4.44.35V252.16h5.7c3.2,0,5.18,4.81,5.18,4.81h.93l-.47-8Z"/><path class="cls-1" d="M255.84,255.71h-9.28c2.57,2.16,3.09,2.49,3.09,3.37a4.68,4.68,0,0,1-.52,2.16c-.29.61-11,25.05-11,25.05H242l3.75-9.18h12.54l3.31,9.12a24.62,24.62,0,0,1,3.81-.48c1.47,0,4.56.14,4.56.14s-8.36-21.54-10-25.26S258.12,255.71,255.84,255.71Zm-8.92,18.56,5.45-12.49,4.78,12.49Z"/><path class="cls-1" d="M182,255.08c-10.55,0-16.84,7.11-16.84,15.88s5.41,15.87,16.84,15.87c10.48,0,16.84-7.1,16.84-15.87S194.09,255.08,182,255.08Zm0,28.79c-5.84,0-7.92-5.85-7.92-13.06S176,257.74,182,257.74s7.92,5.85,7.92,13.07S187.88,283.87,182,283.87Z"/><path class="cls-1" d="M359.49,255.08c-10.55,0-16.84,7.11-16.84,15.88s5.41,15.87,16.84,15.87c10.48,0,16.84-7.1,16.84-15.87S371.59,255.08,359.49,255.08Zm0,28.79c-5.85,0-7.93-5.85-7.93-13.06s1.93-13.07,7.93-13.07,7.92,5.85,7.92,13.07S365.38,283.87,359.46,283.87Z"/><path class="cls-1" d="M293.12,283.44c-4.6,0-9.35-5-9.35-12.77s4.6-12.78,9.2-12.78,5.55,3,6.35,4.89,2,1.24,2,1.24v-6.71s-3.14-2.19-9-2.19c-8,0-17.15,5-17.15,16.06s9.2,15.55,16.57,15.55,9.64-2.56,9.64-2.56V279.5C299.69,281.33,297.72,283.44,293.12,283.44Z"/><path class="cls-1" d="M327,283.44c-4.6,0-9.34-5-9.34-12.77s4.6-12.78,9.2-12.78,5.54,3,6.35,4.89,2,1.24,2,1.24v-6.71s-3.14-2.19-9-2.19c-8,0-17.16,5-17.16,16.06s9.2,15.55,16.58,15.55,9.63-2.56,9.63-2.56V279.5C333.6,281.33,331.63,283.44,327,283.44Z"/><path class="cls-1" d="M21.83,208.36s8.4-1.27,8.4-8.44-7.14-8-12.6-8S.08,192,0,191.91s4.2,2.53,4.2,6.32V229H20.57c4.2,0,12.6-2.11,12.6-10.13S24.77,208.78,21.83,208.36Zm-9.23-13.5c.42-.42.84-.42,3.78-.42s5.45,3.37,5.45,7.17-2.94,6.33-5.45,6.33H12.6Zm4.6,31.23c-3.58,0-4.59-.45-4.6-1.55V210.92h4.6A7.06,7.06,0,0,1,23.86,218C23.86,222.29,21.87,226.09,17.2,226.09Z"/><path class="cls-1" d="M67.56,224.24c-3.34-3.92-8.61-9.89-8.61-9.89l.13-.51s7.2-1.8,7.2-7.84-6.3-7.32-9.51-7.32-19,.13-19,.2,3.78,2.1,3.78,5v25.18s2.93-.42,4.19-.42a32.57,32.57,0,0,1,3.78.42V216.5c0-.84,1.62-.85,2.87.82s3.38,5,5.63,7.56a11.87,11.87,0,0,0,9.11,4.5h7.9A17.39,17.39,0,0,1,67.56,224.24ZM53.08,213.62c-2.32,0-3.36-.35-3.4-1.34V201.61c.38-.39,1.32-.39,4-.39s4.44,3.07,4.44,6.53S55.4,213.62,53.08,213.62Z"/><path class="cls-1" d="M377.52,224.24c-3.34-3.92-8.6-9.89-8.6-9.89l.12-.51s7.2-1.8,7.2-7.84-6.3-7.32-9.51-7.32-19,.13-19,.2,3.78,2.1,3.78,5v25.18s2.94-.42,4.19-.42a32.57,32.57,0,0,1,3.78.42V216.5c0-.84,1.62-.85,2.88.82s3.37,5,5.62,7.56a11.87,11.87,0,0,0,9.12,4.5H385A17.39,17.39,0,0,1,377.52,224.24ZM363,213.62c-2.32,0-3.36-.35-3.4-1.34V201.61c.39-.39,1.32-.39,4-.39s4.44,3.07,4.44,6.53S365.36,213.62,363,213.62Z"/><path class="cls-1" d="M76.56,198.88s3.78,2.1,3.78,5v25.18s2.94-.42,4.2-.42a32.3,32.3,0,0,1,3.77.42V198.68S76.49,198.81,76.56,198.88Z"/><path class="cls-1" d="M127.62,198.88s3.77,2.1,3.77,5v25.18s2.94-.42,4.2-.42a32.3,32.3,0,0,1,3.77.42V198.68S127.55,198.81,127.62,198.88Z"/><path class="cls-1" d="M386.4,198.88s3.77,2.1,3.77,5v25.18s2.94-.42,4.2-.42a32.57,32.57,0,0,1,3.78.42l0-30.41S386.33,198.81,386.4,198.88Z"/><path class="cls-1" d="M161.84,210.88c-5.48-3.26-5.89-4.77-5.89-6.11s.52-4.08,5-4.08,5.19,3.39,5.89,4.61l.53,1.16h1.22l-.18-6.76S166,198,160.26,198c-7.52,0-12.06,3.9-12.06,8.74s2.8,7.4,7.63,9.61,5.89,4.78,5.89,6.3-.23,4.25-5.42,4.25-8.74-6.35-8.74-6.35v6.93s3.2,2.33,9.61,2.33c10.2,0,12.3-5.3,12.3-9.67S167.31,214.15,161.84,210.88Z"/><path class="cls-1" d="M109.9,198.46H96.37L96,205.78h.85s1.8-4.19,4.72-4.19h4.35V229a36.37,36.37,0,0,1,3.82-.32h.21a36.38,36.38,0,0,1,3.83.32V201.59h4.35c2.92,0,4.72,4.19,4.72,4.19h.85l-.42-7.32Z"/><path class="cls-1" d="M198.72,198.68v12.56H186.31c0-6,0-11.31,0-11.47,0-.4-.21-1.14-.78-1.14s-11,.18-11,.25,3.78,2.1,3.78,5v25.18s2.93-.42,4.19-.42a32.57,32.57,0,0,1,3.78.42s0-7.46,0-14.85h12.41v14.85s2.93-.42,4.19-.42a32.57,32.57,0,0,1,3.78.42V198.68Z"/><path class="cls-1" d="M251.75,191.86h-9.93c2.9,2.64,3.48,3.06,3.48,4.13a6.29,6.29,0,0,1-.58,2.65c-.33.74-12.91,30.68-12.91,30.68h4.31l4.46-11.25h14.64l4.1,11.17a16,16,0,0,1,3.67-.58c1.66,0,5.13.16,5.13.16s-9.92-26.38-11.74-30.93S254.31,191.86,251.75,191.86ZM242,214.6l6.37-15.3L254,214.6Z"/><path class="cls-1" d="M456,198.73h-9.28c2.57,2.16,3.09,2.5,3.09,3.38a4.68,4.68,0,0,1-.52,2.16c-.29.61-11,25-11,25h3.82l3.76-9.18h12.54l3.31,9.11a25.12,25.12,0,0,1,3.81-.47c1.47,0,4.55.14,4.55.14s-8.35-21.54-10-25.26S458.28,198.73,456,198.73Zm-8.92,18.57,5.45-12.49,4.78,12.49Z"/><path class="cls-1" d="M425.07,226.38c-4.59,0-9.34-5-9.34-12.78s4.6-12.77,9.2-12.77,5.55,3,6.35,4.89,2,1.24,2,1.24v-6.72s-3.14-2.19-9-2.19c-8,0-17.15,5-17.15,16.06s9.19,15.55,16.57,15.55,9.63-2.55,9.63-2.55v-4.68C431.65,224.26,429.67,226.38,425.07,226.38Z"/><path class="cls-1" d="M308.44,198.69h-5.75c-2,0-2.17,1-3.21,3.21s-6.69,14.24-6.69,14.24-6.8-15.28-7.17-16.22a2,2,0,0,0-2.17-1.32h-9.53s4.06,2.83,3.87,5-5.48,25.65-5.48,25.65h3.5l4.72-21.87,9.52,22.16,10.57-22.27,4.24,21.7s1.79-.19,3.68-.19,4.34.29,4.34.29-4.53-24.44-4.81-26.13A6.24,6.24,0,0,1,308.44,198.69Z"/><path class="cls-1" d="M342,223c-.46.6-1.38,3.16-4.21,3.16H329.6v-12h10.85v-3.09H329.6v-9.34h9.34a6.65,6.65,0,0,1,2.89.92v-4.08H317.76s3.75,2.37,3.75,5.2V227c0,1.45.72,2.11,1.9,2.11h18c.66,0,1.52-.33,1.71-2.3s.46-4.35.46-4.35S342.49,222.37,342,223Z"/><path class="cls-1" d="M500.16,198.69l.08,20.2-.66-.14-16.51-20.19-9.67.07s3.49,2.63,3.49,5.19v25.39h3.88V207.64s11.71,14.8,14,17.43,4.34,4,8.81,4V198.69Z"/><path class="cls-1" d="M141.62,304.4c5.63,0,7.53,2.13,7.53,2.13l1.83-2.28s-2.82-2.66-9.21-2.66-14.31,5.7-14.31,14.46a13.65,13.65,0,0,0,13.7,14c6.85,0,9.59-2.74,9.59-2.74L149,325.18s-2,2.2-7.61,2.2-9.89-5.78-9.89-11.33S134.54,304.4,141.62,304.4Z"/><path class="cls-1" d="M176.36,301.51a13.84,13.84,0,0,0-14,14.19c0,7.84,5.79,14.2,14,14.2s13.71-6.36,13.71-14.2S184.54,301.51,176.36,301.51Zm0,25.69c-6.2,0-9.66-5.15-9.66-11.5s3.3-11.49,9.66-11.49c6,0,9.44,5.14,9.44,11.49S182.71,327.2,176.36,327.2Z"/><path class="cls-1" d="M242.4,301.51a13.84,13.84,0,0,0-14,14.19c0,7.84,5.78,14.2,14,14.2s13.71-6.36,13.71-14.2S250.58,301.51,242.4,301.51Zm0,25.69c-6.2,0-9.65-5.15-9.65-11.5s3.3-11.49,9.65-11.49c6,0,9.45,5.14,9.45,11.49S248.76,327.2,242.4,327.2Z"/><polygon class="cls-1" points="205.99 301.81 202.03 301.81 202.03 329.44 204.32 329.44 205.99 329.44 217.43 329.44 217.43 326.81 205.99 326.81 205.99 301.81"/><polygon class="cls-1" points="293.64 301.98 293.29 301.98 282.27 324.35 271.77 301.98 270.96 301.98 268.55 301.98 267.81 301.98 267.81 329.55 270.96 329.55 270.96 307.23 281.22 329.61 282.83 329.61 293.64 307.15 293.64 329.55 297.19 329.55 297.19 301.98 296.13 301.98 293.64 301.98"/><rect class="cls-1" x="338.6" y="301.85" width="3.7" height="27.68"/><path class="cls-1" d="M319.79,314.66c-.19,0-.06-.31.08-.37,2.81-1.11,4.79-3.34,4.79-6.24a6.1,6.1,0,0,0-6.1-6.1c.08-.13-5.91-.06-5.91-.06h-3.58v27.63H318a8.21,8.21,0,0,0,8.48-8.42C326.43,316.12,321.12,314.92,319.79,314.66Zm-7.15-10.09H317c3.19,0,4,2.21,4,4.43s-2.43,5.05-4.61,5.05h-3.83Zm4.8,22.43h-4.8V316.63h4.81c3.49,0,5,2.18,5,4.86C322.45,323.91,320.83,327,317.44,327Z"/><path class="cls-1" d="M367.45,301.9s-2.48-.06-2.53,0L353.8,329.5h3.28l3.24-8.26h10.33l3.11,8.26h4.18Zm-6.28,16.72,4.21-11.69.55,0,3.9,11.73Z"/></g></g></svg>