<svg xmlns="http://www.w3.org/2000/svg" viewBox="0 0 276.17 237.97"><defs><style>.cls-1{fill:#fff;}</style></defs><g id="Capa_2" data-name="Capa 2"><g id="Capa_1-2" data-name="Capa 1"><path class="cls-1" d="M204,162.29a9,9,0,0,0-.38-2.6,6.39,6.39,0,0,0-7.4-4.12c-3.59.6-6.58,2.55-6.58,8,1.44.6,6.67,1,10.11.73C202.88,163.93,204,163.88,204,162.29Z"/><path class="cls-1" d="M244,183h-.67v.9H244c.38,0,.6-.15.6-.45S244.35,183,244,183Z"/><path class="cls-1" d="M259.86,57.48,121.36,1.61c-9-3.62-21.87-.93-28.65,6L8.53,93.28c-6.79,6.9-10.24,20.19-7.69,29.53L28.33,223.19a20.74,20.74,0,0,0,22.1,14.62l208.23-28.2a20.79,20.79,0,0,0,17.45-20l.06-108C276.18,72,268.83,61.1,259.86,57.48Zm-73,45.78a31.15,31.15,0,0,1,9.77,1.55v-.67c0-4.2-2.65-6.79-9-6.79a34,34,0,0,0-13.2,2.93l-.06-10.89a47.31,47.31,0,0,1,15.69-3c13.53,0,20.61,5.14,20.61,18.07v23.36H196.58v-4.14a15.44,15.44,0,0,1-11.94,5.08c-7.73,0-13.69-4.41-13.69-12.7S177.3,103.26,186.86,103.26Zm-100,84.68H50.79V135.36H65.31l.06,39.77H86.91ZM87,90.71a18.46,18.46,0,0,0-11.15-3.2c-7.9,0-13.09,6.25-13.09,13.93,0,8.06,5.24,14.19,14.08,14.19A20.69,20.69,0,0,0,87,113v13.7a30.73,30.73,0,0,1-12.09,2.21c-16.19,0-27.18-11.49-27.18-27.34,0-15.3,11.76-27.4,28.45-27.4A28.3,28.3,0,0,1,87,76Zm28.76,97.18v-5.58c-2.59,3.43-6.35,6.46-12.15,6.46-8.62.06-13.81-5.69-13.86-14.91V147.23H104l0,22c0,4.42,2.32,6.85,5.8,6.85s5.91-2.43,5.91-6.85v-22H130l.06,40.66Zm14.83-60.11H116.48v-4.14a15.43,15.43,0,0,1-11.93,5.08c-7.73,0-13.7-4.41-13.7-12.7s6.36-12.76,15.91-12.76a31.22,31.22,0,0,1,9.78,1.55v-.67c0-4.2-2.66-6.79-9-6.79a34,34,0,0,0-13.2,2.93l-.06-10.89a47.41,47.41,0,0,1,15.69-3c13.54,0,20.61,5.14,20.61,18.07Zm18.78-14.64c-8.07-2.15-14.47-4.86-14.47-13.09,0-8.9,7.67-13.75,17.62-13.75a31.09,31.09,0,0,1,14.13,3.09v11.1c-6.29-3-11.76-4.14-14.8-4.14s-4.08.88-4.08,2c0,1.76,2.32,2.48,6.63,3.75,8,2.33,14.41,5.09,14.41,13,0,9.18-7.79,13.87-18.72,13.87a33.73,33.73,0,0,1-14.26-2.82V115.24c6.3,2.54,10.83,3.7,15,3.7,3.92,0,5-.77,5-2.21C155.86,115,153.6,114.31,149.35,113.14Zm13.35,74.69L154.52,174l-3.7,4.31v9.5l-14.25.06V135.36h14.25v25.46l11.05-13.65H178l-14.08,16.36,14.52,24.3Zm37.44-9.72a26.89,26.89,0,0,0,14-4.09v11.16a35.38,35.38,0,0,1-16.57,4c-13.53,0-22-7.68-22-21.49,0-12.49,8.23-21.72,21.48-21.33,8.95.27,14.95,4.59,16.86,13.27.59,2.69.32,8.47-1,10.12-1.46,1.28-7.74,2-12.44,2.13a42,42,0,0,1-10.82-.95C189.69,175.28,192.41,178.11,200.14,178.11Zm33.59-2.81v12.64h-14.3V147.23h14.24v8.23c2.33-5.52,6.08-9.16,12.87-8.83v15h-1.21C237.87,161.65,233.73,165.9,233.73,175.3ZM244,188.55a4.47,4.47,0,0,1-4.47-4.39,4.44,4.44,0,1,1,8.87-.08A4.47,4.47,0,0,1,244,188.55Z"/><path class="cls-1" d="M104.6,115.19c0,2.93,2.11,4.58,5,4.58,4.15,0,7.07-2.65,7.07-6.68v-1.88a15.17,15.17,0,0,0-5.58-1C107,110.17,104.6,112.21,104.6,115.19Z"/><path class="cls-1" d="M189.72,119.77c4.15,0,7.08-2.65,7.08-6.68v-1.88a15.21,15.21,0,0,0-5.58-1c-4.15,0-6.52,2-6.52,5S186.8,119.77,189.72,119.77Z"/><path class="cls-1" d="M243.9,180.72a3.42,3.42,0,0,0-3.36,3.44,3.39,3.39,0,0,0,3.36,3.34,3.39,3.39,0,1,0,0-6.78Zm.67,5.22-.82-1.12h-.45v1.12h-1v-3.79h1.79a1.68,1.68,0,0,1,1.19.36,1.22,1.22,0,0,1,.37.9,1.23,1.23,0,0,1-.75,1.18l.9,1.35Z"/></g></g></svg>