<svg xmlns="http://www.w3.org/2000/svg" viewBox="0 0 436.73 223.07"><defs><style>.cls-1{fill:#fff;}</style></defs><g id="Capa_2" data-name="Capa 2"><g id="Capa_1-2" data-name="Capa 1"><path class="cls-1" d="M434.85,67.91l-42.56-65c-2.49-3.81-6.57-3.81-9.06,0L340.67,67.91a13.75,13.75,0,0,0,0,13.84l42.56,65.05c2.49,3.81,6.57,3.81,9.06,0l42.56-65.05A13.71,13.71,0,0,0,434.85,67.91Zm-39.41,40c-.91,1.58-1.63,2.87-2,3.64-1.17,2.47-1.24,6.63-1.24,7.4v0a2.16,2.16,0,0,1-1.57,2.15,2.66,2.66,0,0,1-2.92-1.19,18.46,18.46,0,0,1-1.08-2.14,6,6,0,0,1-.6-2.67,2.72,2.72,0,0,0-.37-1.73,7.84,7.84,0,0,1-1.35-3.78,4.24,4.24,0,0,1,.5-1.92C366.23,104.87,352,89.1,352,70.08,352,49,369.43,32,390.91,32a38.86,38.86,0,0,1,15.89,3.5c-.44,0-.89,0-1.34,0a30,30,0,0,0-20.33,7.92,24.09,24.09,0,0,0,3.19,1.35,5.49,5.49,0,0,1,4,5.46c0,1.57-1.34,2.64-2.58,3.16a5.55,5.55,0,0,0,.24.78c.51.93,1.11,1.55.76,2.35-.21.46-.83.66-1.28.91a1.77,1.77,0,0,0-.45,1.1,2.88,2.88,0,0,1-1,2.14,3.38,3.38,0,0,1-1.27.5,2.66,2.66,0,0,1,.88,1.9v.16a2.22,2.22,0,0,1-1,1.67c-.11.11-.45.33-.18.72s.44.65.76,1.1a32,32,0,0,0,4,5.19l.09.08.08.09a36.15,36.15,0,0,0,3.82,3.56c1.35-.07,12.94-.47,8.26,10.18.64.24,3.57,2.52.91,7.78.41,0,.68,0,1.08,0a29.89,29.89,0,0,0,21.39-8.92A38.73,38.73,0,0,1,395.44,107.94Z"/><path class="cls-1" d="M122.21,88.7A3.8,3.8,0,0,0,119.33,92a56.85,56.85,0,0,0-1.28,13,48.18,48.18,0,0,0,1.35,12.41c.41,1.62,1.38,2.25,2.88,1.92s2.36-1.45,2.84-3.36a60.8,60.8,0,0,0,1-12.7,62.94,62.94,0,0,0-1-12.66A2.19,2.19,0,0,0,122.21,88.7Z"/><path class="cls-1" d="M70.73,100.46a3.81,3.81,0,0,0-2.88,3.26,56.63,56.63,0,0,0-1.29,13,48.17,48.17,0,0,0,1.36,12.42c.41,1.61,1.37,2.24,2.88,1.91s2.36-1.45,2.84-3.35a61.66,61.66,0,0,0,1-12.71,62.71,62.71,0,0,0-1-12.66A2.18,2.18,0,0,0,70.73,100.46Z"/><path class="cls-1" d="M17,155.35a7.46,7.46,0,1,0,7.63,7.46A7.53,7.53,0,0,0,17,155.35Zm2.27,12.5-2-4.27H15.56v4.27H13.33V157.57h4.39c2.57,0,3.56,1.7,3.56,3a2.82,2.82,0,0,1-1.88,2.57l2.21,4.69Z"/><path class="cls-1" d="M16.4,159.33h-.84v2.52h1c1,0,2.44,0,2.44-1.23S17.49,159.33,16.4,159.33Z"/><path class="cls-1" d="M208.22,76.77s0,27.55,0,27.55a5.41,5.41,0,0,0,6.25-1.86c2.21-3.58,2.38-8,2.37-14.41,0-8.34-.43-11.09-1.84-12.25C212.27,73.53,208.26,76.74,208.22,76.77Z"/><path class="cls-1" d="M335.65,85a19.79,19.79,0,0,1,0-20.53l25.86-39.53C182.33,25.1,50.54,63,0,81.63L.2,184.15c50.72-18.76,183-57.34,363.49-56.32C351.35,109,335.65,85,335.65,85ZM17,171.22a8.41,8.41,0,1,1,8.59-8.41A8.5,8.5,0,0,1,17,171.22Zm8.4-29.8c-3.73-4.34-6.63-12.41-6.63-22.56,0-14.73,4.5-32.42,21.61-34.43,7.34-.87,14,3.89,14,3.89s-.25,10.39,0,10.62c0,0-7.57-8.41-14.32-4.79-4.5,2.4-5.41,8.63-5.41,8.63a54.83,54.83,0,0,0-1.05,13.37c.28,9.25.29,7.83.65,10.25.67,4.47,2.59,10.81,9.27,9.58,3.7-.69,5.77-2.49,8.79-5.62a30.78,30.78,0,0,0,2.16,7.95C42.52,151.28,28.89,145.51,25.38,141.42Zm56.68-11.69a17.61,17.61,0,0,1-11.49,8c-5,1.15-8.79.24-11.33-2.84s-3.82-8.29-3.82-15.57q0-11.24,3.68-17.44a17.31,17.31,0,0,1,11.41-8q8.19-1.93,11.73,2.62t3.53,15.69C85.77,119.76,84.56,125.64,82.06,129.73Zm18.43.09c-.42,0-10.43-.36-10.45-16.14,0-9.06,0-24.73,0-32.54a9.1,9.1,0,0,0-2.09-5.94l13.2-3.07,0,38.55c0,14.3,7.75,17.27,7.75,17.27ZM133.55,118a17.58,17.58,0,0,1-11.5,8c-5,1.18-8.78.25-11.33-2.83s-3.82-8.29-3.82-15.57q0-11.23,3.68-17.44a17.26,17.26,0,0,1,11.41-8q8.19-2,11.74,2.61t3.52,15.69C137.25,108,136.05,113.88,133.55,118Zm46-2.81,0-32.13a2.93,2.93,0,0,0-1.83-2.93,6.9,6.9,0,0,0-5.23,1.13l0,35.06-11.14,1.76,0-32.11A2.94,2.94,0,0,0,160,83.16c-1.25-.61-4-.22-5.84.85l0,35.21-11.16,2s0-19.86,0-26.17c0-13.27-6.36-15.32-6.36-15.32L151.91,77l1,2.2a19.75,19.75,0,0,1,12-4.12,6.69,6.69,0,0,1,5.51,2.5c3.73-4.51,11.39-6.75,16.53-4.21,3.24,1.61,3.77,5,3.77,7.29,0,0,0,15.08,0,22.33,0,9.09,2.91,10.15,2.91,10.15Zm43.19-9.54c-4.36,5.68-14.55,7.56-20.21,5.58-5.52-1.64-5.23-7-5.43-9.29,0,0,.16-35.62.17-38.95a10.35,10.35,0,0,0-2.9-7.43l13.94-1.8V70.36c.77-.73,8.58-6.22,14.68-2,3.35,2.3,3.92,6.53,3.92,17.31C227,94.1,226.67,100.12,222.79,105.62Zm10.37,2.79s0-29.51,0-31.39c0-9-3.38-10.84-3.38-10.84l14.51-1.48.07,42.61Zm5.35-47.55s-2.4-6.35-7.69-9.42a29.61,29.61,0,0,0,7.6-10.31,24.64,24.64,0,0,0,7.77,9A32.51,32.51,0,0,0,238.51,60.86Zm31.36,44.27-.09-32.75a3,3,0,0,0-1.42-2.88c-1.07-.56-3.24-.72-6.13.45l.07,35.79-11.16.94L251.08,64l9-.94L260.9,65a18.68,18.68,0,0,1,13.55-2.88c4,.81,6.49,3.91,6.49,8.91,0,0,0,20.43,0,23.65,0,7.24,3.43,9.54,3.43,9.54Zm39.35-2.24a14.4,14.4,0,0,1-.8-4.37c-6.29,8.92-14.33,4.41-16.79,1.37a23.5,23.5,0,0,1-4.69-14.71c0-13.42,5.35-25,18.58-25.55,5.17-.2,5.88,1.81,9.09,1a13.8,13.8,0,0,0,4.66-2.47s0,3,0,10.34V92.92c-.11,7.07,3.55,9.5,3.55,9.5Z"/><path class="cls-1" d="M308.26,67.38c-.56-.75-3-1.42-4.69-.41-2.85,1.72-5.36,8.06-5.36,15.14,0,6.87,1.51,12.15,3.89,12.71,2.81.65,4.89-.94,6.22-2.5,0-3.57-.06-13.1-.06-14.78Z"/><path class="cls-1" d="M49.3,192.33l.06,3.18-8.47,2.13-.14,8.88,7.88-1.9,0,2.82-7.85,2v9.43l9.12-2.16.05,3-14,3.4,0-27.59Z"/><path class="cls-1" d="M58.28,190.18l.44,27.38-4.15.87-.45-27.38Z"/><path class="cls-1" d="M81.46,194.29a8.25,8.25,0,0,0-3.17,0c-1.81.41-2.71,1.63-2.43,2.87.19.81.71,1.34,2.54,2.56l.76.51c1.93,1.31,3.71,2.53,4.24,4.82.61,2.71-.73,6.47-5.72,7.61a10.58,10.58,0,0,1-5.55-.24l.61-2.5a8,8,0,0,0,4.21.22c2-.45,2.82-1.9,2.48-3.37-.27-1.2-1.18-1.81-3-3l-.81-.55c-2.7-1.82-3.45-3-3.77-4.35-.68-3,1.65-6.16,5.64-7.07a10.66,10.66,0,0,1,4.38-.06Z"/><path class="cls-1" d="M101.49,206.45l-4,.84,0-5.75c-.52,1.76-1.91,6.56-5.8,7.37-2.44.51-4.6-.9-5.36-4.55-1.19-5.67,1.23-15.42,9.31-17.12a13.65,13.65,0,0,1,5.79.13Zm-6.07-16.66c-4.31.9-5.55,9.35-4.66,13.62.1.48.49,2.34,2.12,2s2.67-3.16,2.91-4.14a49.12,49.12,0,0,0,1.28-11.54A4.31,4.31,0,0,0,95.42,189.79Z"/><path class="cls-1" d="M110.35,175.1l.24,14.62c1-3.31,2.8-6.3,5.67-6.93s4.76,1.51,5.37,4.27c1.33,6.08-1,15.66-9.11,17.43a14.38,14.38,0,0,1-6,.06l-.55-28.49ZM112.46,202c5-1.1,5.2-10.93,4.59-13.72-.16-.73-.65-2.26-2-1.95s-2.26,2.12-2.78,3.62c-1.4,4-1.52,10-1.5,12.11A4.7,4.7,0,0,0,112.46,202Z"/><path class="cls-1" d="M133,179.76c4.25-.84,7.07,1.56,7.87,5.6,1,5.22-.82,13.8-7.94,15.22-3.93.78-7.13-1.49-8-5.85C123.55,187.6,127.4,180.89,133,179.76Zm-.14,18.41c3.93-.79,3.71-10.45,3.15-13.26-.27-1.36-1.1-3.1-2.89-2.74-3.7.74-4.1,9.11-3.27,13.27C130,195.88,130.53,198.63,132.9,198.17Z"/><path class="cls-1" d="M149.49,177.45l-.11,7.32c.61-3.06,2.15-8.1,5.16-8.65a5.66,5.66,0,0,1,.88,0l-.07,4a6.59,6.59,0,0,0-1.08.08c-3.4.61-5,10.15-4.93,17.2l-4.3.78.31-20Z"/><path class="cls-1" d="M180.52,189.6c-2.59,2.17-4.67,3.5-7.23,3.9-3.21.51-6.15-1.08-6.8-5.24-1-6.11,3.49-14.89,9.88-15.89,3.1-.49,4.38,1.27,4.64,2.92.79,5.06-5.22,7.45-9.83,8.54-.48,3.93.18,7.08,2.89,6.66,1-.16,2.34-.69,4.81-2.85Zm-3.08-13.46c-.16-1.06-.82-1.4-1.56-1.28-1.46.22-3.47,2.51-4.44,6.83C174.5,181,177.93,179.23,177.44,176.14Z"/><path class="cls-1" d="M194.19,173.09a8.55,8.55,0,0,0-3.16-.23c-1.85.26-2.85,1.4-2.67,2.66.12.82.6,1.4,2.32,2.76l.72.58c1.81,1.46,3.48,2.83,3.81,5.15.39,2.75-1.26,6.4-6.33,7.11a10.55,10.55,0,0,1-5.51-.7l.82-2.45a8,8,0,0,0,4.17.58c2-.29,3-1.66,2.76-3.16-.17-1.22-1-1.89-2.7-3.26l-.78-.62c-2.53-2-3.18-3.23-3.38-4.65-.43-3.07,2.16-6,6.21-6.57a10.68,10.68,0,0,1,4.37.3Z"/><path class="cls-1" d="M214.23,167.65l-.15,19.94-4.42.53.16-19.94Zm.88-5.56-3,2.86-2.94-3.31,3-2.83Z"/><path class="cls-1" d="M223.89,166.31l-.17,5.72c.54-1.5,2.14-6.33,6.25-6.75,4.55-.48,4.59,4.1,4.53,6.08l-.38,13.74-4.44.57.35-13.81c.05-2-.18-3.36-1.55-3.21-2,.21-3.4,4.32-3.63,5.31a59.36,59.36,0,0,0-1.24,12.23l-4.31.55.47-20Z"/><path class="cls-1" d="M248.72,156.8a6.36,6.36,0,0,0-1.53-.11c-2,.18-2.37,1.9-2.47,4.59l-.13,2.78,3.31-.29-.09,2.49-3.31.29L244,179.21c-.3,6.56-.56,12.32-6.69,12.85a8.41,8.41,0,0,1-2.16-.09l.13-2.42a7.54,7.54,0,0,0,1.49.07c2.55-.22,3-2.78,3.12-9.36l.28-13.34-2.91.25.09-2.49,2.83-.24.13-2.5c.08-2.05-.07-7.13,5.91-7.64a8.61,8.61,0,0,1,2.76.12Z"/><path class="cls-1" d="M256.06,162.94l-.7,19.73-4.45.55.71-19.95Zm1.07-5.5-3.1,2.71-2.86-3.43,3.11-2.68Z"/><path class="cls-1" d="M265.7,162.07l-.24,5.69c.56-1.48,2.22-6.21,6.36-6.44,4.56-.27,4.54,4.29,4.47,6.26l-.54,13.56-4.45.37.5-13.63c.07-2-.14-3.36-1.52-3.28-2,.12-3.46,4.16-3.7,5.13a57.49,57.49,0,0,0-1.39,12.12l-4.33.36.7-19.91Z"/><path class="cls-1" d="M286.09,160.74l-.48,19.73-4.46.3.48-19.87Zm1.11-5.45-3.12,2.59-2.87-3.51,3.12-2.56Z"/><path class="cls-1" d="M297.38,154.86l-.16,5.22,3.39-.09-.06,2.47-3.44.1-.38,12c-.05,2.51.37,2.7,1.17,2.68a5,5,0,0,0,2.18-.74l1.29,2.32a12.61,12.61,0,0,1-4.79,1.25c-2.37.06-4.48-1.16-4.35-4.67l.41-12.76-2.8.07.06-2.47,3.09-.08.16-5.23Z"/><path class="cls-1" d="M311.52,159.25c4.32,0,7.15,2.84,7.91,7,1,5.32-1,13.41-8.29,13.47-4,0-7.22-2.8-8-7.25C301.77,165.18,305.78,159.3,311.52,159.25Zm-.42,18.06c4,0,3.92-9.58,3.4-12.44-.26-1.39-1.07-3.25-2.9-3.23-3.76,0-4.3,8.19-3.51,12.43C308.17,174.5,308.68,177.32,311.1,177.31Z"/><path class="cls-1" d="M401,86.75c3.6,1.16,2.76,4.72,1.27,6.84s-8.88,14.23-10.44,17.45c-1.33,2.78-1.43,7.14-1.43,8.19,0,.61-.66.58-1,0a14.4,14.4,0,0,1-.94-2c-.83-1.34,0-2.72-1.09-4.59-.12-.22-.33-.54-.49-.8-1.21-2.12,0-3.48.66-3.51a4,4,0,0,0,1.82-.5c2.36-2.05,3.85-10.24,3.85-10.24-2,.93-5.34,9.26-5.34,9.26-1,.71-1.15-2-1.45-3.21s.79-2.17.63-3.59c0-.75-.25-2.26-.23-3.31s.64-1,1-1.06a12.44,12.44,0,0,1,2,.26.69.69,0,0,0,.76-.53,15.13,15.13,0,0,1,2.19-3.73c-1.16-.6-3.36,0-3.36,0-17.36,9.35-25.41-11-25.41-11a12.07,12.07,0,0,0,7.08,0,12.7,12.7,0,0,0,5.18-3.34c-.5-3.32-1.72-8.55-1.2-11,0-2.09,1.67-4,2.3-5.44a1.45,1.45,0,0,0,0-1.56.45.45,0,0,1-.09-.42,4,4,0,0,1,.22-.6c.1-.25.16-.34.34-.27l.59.21c.43-1.11-.53-2.27-1.49-3.42s-1.42-4.34-1.42-4.34c-1,.19-1.13-.48-1.13-.48-.78,1.17.09,3.73.35,4.94a6.77,6.77,0,0,1,.19,1.4,2.71,2.71,0,1,1-5.41,0,2.74,2.74,0,0,1,0-.5,1.63,1.63,0,0,0,1.86.68,1.49,1.49,0,0,0,.82-1.42c0-1.21-.25-3-.4-4.56-.19-2.43,2.5-2.06,2.5-2.06.28-1.3,2.53-1.1,2.53-1.1a6.86,6.86,0,0,1,4.8-2.93,5.07,5.07,0,0,1,3.61,1c5.63.77,5.65,3.73,5.58,4.94S389.12,52,389.12,52a1.57,1.57,0,0,1-1.11.7s.13,1,.15,1.07a2.52,2.52,0,0,0,.16.57,11.12,11.12,0,0,0,.77,1.13.36.36,0,0,1-.23.58c-.26.07-.33.12-.42.13a.22.22,0,0,0-.19.28c0,.21.05.32.06.37s.05.15-.15.16l-.68.07s.37.36.42.42.14.07,0,.15a.81.81,0,0,0-.31.51c-.07.39,0,.89-.42,1.21-.66.53-2,.08-3.39,0-1-.11-.31,1.34-.31,1.34.37.19,2.16,1.09,2.23,2.4.06,1-.79.67-1.26,1.72a1.6,1.6,0,0,0,0,1.34c.52.76,3.42,5.43,5.58,7.35a40.37,40.37,0,0,0,4.6,4.22c9.05-.44,8,4.14,7.64,5.67A24.15,24.15,0,0,1,401,86.75m-10.06-8.12c-.48-.53-1.7-1.77-2.43-2.4-1-.82-2.44-2.31-2.44-2.31s-.39,2.63-1.36,3.55a12.78,12.78,0,0,1,.85,3.34,11.2,11.2,0,0,1,3.3-1.46C390,78.92,391.09,78.77,390.93,78.63Z"/></g></g></svg>