<svg xmlns="http://www.w3.org/2000/svg" viewBox="0 0 433.64 280.11"><defs><style>.cls-1{fill:#fff;}</style></defs><g id="Capa_2" data-name="Capa 2"><g id="Capa_1-2" data-name="Capa 1"><path class="cls-1" d="M48.56,256.2c-.05,3.21-.11,6.42-.16,9.62q5.43-1.72,10.88-3.39c0-3.2.11-6.41.16-9.61l2.94-.9-.39,23-2.94.9L59.23,265q-5.44,1.68-10.88,3.39l-.18,10.78-2.9.92.39-23Z"/><path class="cls-1" d="M75.89,270.76l-.2-2-.1,0a9,9,0,0,1-5,3.91c-3.27,1-4.9-.88-4.86-3.27.07-4,3.58-7.22,9.83-9v-.35c0-1.36-.3-3.71-3.61-2.73a11,11,0,0,0-4.23,2.47L67.1,258a13.58,13.58,0,0,1,5.33-3c4.95-1.45,6.1,1.65,6,5,0,2.06-.07,4.12-.11,6.17a22.93,22.93,0,0,0,.2,3.88Zm-.29-8.29c-3.21.86-6.86,2.53-6.92,5.73,0,1.95,1.22,2.49,2.73,2a6.11,6.11,0,0,0,4-3.91,4.06,4.06,0,0,0,.18-1C75.57,264.37,75.58,263.42,75.6,262.47Z"/><path class="cls-1" d="M94.6,264.84a14.06,14.06,0,0,1-4.67,2.25c-4.88,1.36-8-1.1-7.91-6.14a11.94,11.94,0,0,1,8.85-11.22,9.12,9.12,0,0,1,4.06-.28c-.23.84-.47,1.67-.71,2.51a6,6,0,0,0-3.4.16A8.08,8.08,0,0,0,85,260c-.07,3.82,2.3,5.49,5.51,4.59a10.79,10.79,0,0,0,3.63-1.82C94.29,263.44,94.45,264.14,94.6,264.84Z"/><path class="cls-1" d="M99.62,256.42c0,4,2.51,5,5.46,4.23a13.37,13.37,0,0,0,4.5-2c.15.68.31,1.35.47,2a16.84,16.84,0,0,1-5.42,2.45c-5,1.33-7.91-1.19-7.82-6.17s3-9.68,7.75-10.94c5.29-1.41,6.62,3,6.57,6a11.57,11.57,0,0,1-.13,1.42Q105.32,254.88,99.62,256.42Zm8.67-4.46c.07-1.91-.68-4.67-4-3.78-3,.79-4.33,3.94-4.6,6.08Z"/><path class="cls-1" d="M121.94,246.28c0-1.7,0-3.09-.06-4.43l2.59-.64c0,.87.06,1.75.08,2.62l.11,0a7.85,7.85,0,0,1,5.14-4.29,3.58,3.58,0,0,1,4.54,2.19l.07,0a9.76,9.76,0,0,1,1.85-2.58,7.17,7.17,0,0,1,3.61-2c2.15-.5,5.31.19,5.21,5.91l-.17,9.71-2.88.67q.08-4.66.16-9.33c.05-3.17-1.06-4.81-3.44-4.25a5.39,5.39,0,0,0-3.53,3.56,5.71,5.71,0,0,0-.26,1.55l-.18,10.18-2.89.7.18-9.88c0-2.62-1.07-4.25-3.31-3.7a5.73,5.73,0,0,0-3.71,3.9,4.62,4.62,0,0,0-.26,1.52c-.06,3.32-.12,6.63-.17,9.95l-2.89.72Z"/><path class="cls-1" d="M158.71,249.61c-.06-.68-.13-1.35-.2-2l-.1,0a8.14,8.14,0,0,1-5,3.55c-3.29.74-4.92-1.23-4.88-3.61.07-4,3.59-7,9.87-8.32v-.34c0-1.36-.31-3.73-3.63-3a10.14,10.14,0,0,0-4.25,2.18c-.21-.61-.43-1.22-.64-1.82a12.66,12.66,0,0,1,5.36-2.67c5-1.1,6.12,2.09,6.07,5.39,0,2.05-.08,4.11-.11,6.16a22.16,22.16,0,0,0,.2,3.89Zm-.29-8.32c-3.22.64-6.89,2.05-6.94,5.25,0,1.94,1.22,2.57,2.73,2.23a5.55,5.55,0,0,0,4-3.63,3.51,3.51,0,0,0,.18-1C158.39,243.2,158.41,242.25,158.42,241.29Zm1.74-15.5c-1.39,1.92-2.79,3.84-4.18,5.77l-2.11.47q1.51-2.78,3-5.53Z"/><path class="cls-1" d="M165.55,245.08a6.78,6.78,0,0,0,3.88.36c2.15-.45,3.17-1.74,3.19-3.1s-.8-2-3-2.4c-2.9-.45-4.25-1.78-4.21-3.76,0-2.65,2.2-5.29,5.69-6a7.21,7.21,0,0,1,4,.2l-.78,2.33a5.51,5.51,0,0,0-3.31-.27,3.17,3.17,0,0,0-2.76,2.82c0,1.36.94,1.77,3.05,2.15,2.8.5,4.22,1.63,4.17,4.08,0,2.9-2.3,5.39-6.16,6.2a8.48,8.48,0,0,1-4.55-.15Z"/><path class="cls-1" d="M186.63,243.83l.24-14.2-2.28.45c0-.76,0-1.52,0-2.28l2.28-.45,0-.78a9.39,9.39,0,0,1,2-6.12,7.11,7.11,0,0,1,4-2.29,6.5,6.5,0,0,1,2.51,0c-.15.8-.3,1.6-.44,2.4a4,4,0,0,0-1.88,0c-2.52.47-3.2,2.85-3.24,5.36,0,.3,0,.59,0,.89l3.93-.75c0,.76,0,1.52,0,2.28l-3.93.75q-.13,7.1-.25,14.19Z"/><path class="cls-1" d="M205.14,240.36c-.07-.68-.13-1.35-.2-2l-.1,0a7.76,7.76,0,0,1-5,3.35c-3.3.6-4.94-1.42-4.89-3.81.06-4,3.6-6.82,9.88-7.92v-.34c0-1.36-.3-3.75-3.63-3.14a9.62,9.62,0,0,0-4.25,2c-.21-.62-.43-1.24-.64-1.85a11.93,11.93,0,0,1,5.37-2.45c5-.9,6.12,2.33,6.06,5.63,0,2-.07,4.1-.1,6.15a22.33,22.33,0,0,0,.2,3.9Zm-.29-8.32c-3.23.5-6.9,1.76-6.95,5a2.12,2.12,0,0,0,2.74,2.35,5.24,5.24,0,0,0,4-3.47,3.6,3.6,0,0,0,.19-1C204.82,233.94,204.83,233,204.85,232Zm1.74-15.44-4.18,5.6-2.12.39c1-1.81,2-3.61,3-5.41Z"/><path class="cls-1" d="M223.93,236.53a12.54,12.54,0,0,1-4.68,1.73c-4.91.82-8-2-7.95-7A10.39,10.39,0,0,1,220.18,221a9.18,9.18,0,0,1,4.09.17l-.72,2.42a6.21,6.21,0,0,0-3.41-.21,7.06,7.06,0,0,0-5.85,7.19c-.07,3.81,2.31,5.74,5.54,5.21a9.79,9.79,0,0,0,3.64-1.42C223.62,235.09,223.78,235.81,223.93,236.53Z"/><path class="cls-1" d="M231,215a2.16,2.16,0,0,1-1.91,2.13,1.44,1.44,0,0,1-1.75-1.55,2.25,2.25,0,0,1,1.88-2.17A1.45,1.45,0,0,1,231,215Zm-3.65,21.61q.13-8.24.28-16.47l3-.46q-.15,8.22-.29,16.46Z"/><path class="cls-1" d="M235.67,211.21l3-.45-.42,24.14-2.95.45Z"/><path class="cls-1" d="M261.89,231a12.1,12.1,0,0,1-4.68,1.57c-4.9.66-8-2.25-7.95-7.28a10,10,0,0,1,8.88-9.94,9.14,9.14,0,0,1,4.08.31c-.23.8-.47,1.6-.71,2.4a6.17,6.17,0,0,0-3.41-.33c-3.72.5-5.79,3.57-5.85,7-.06,3.81,2.31,5.82,5.54,5.39a9.43,9.43,0,0,0,3.64-1.3C261.58,229.51,261.74,230.23,261.89,231Z"/><path class="cls-1" d="M279,225c0,1.7,0,3.19.06,4.47l-2.62.31-.12-2.66h-.07a7.23,7.23,0,0,1-5.42,3.71c-2.55.31-5.58-.73-5.48-6.5.06-3.21.11-6.42.17-9.62l3-.38q-.08,4.56-.16,9.11c-.05,3.13.85,5.12,3.54,4.79A5.11,5.11,0,0,0,275.8,225a4.91,4.91,0,0,0,.29-1.56l.18-10.09,3-.35Z"/><path class="cls-1" d="M287.49,207.48a2.05,2.05,0,0,1-1.91,2,1.53,1.53,0,0,1-1.75-1.64,2.11,2.11,0,0,1,1.88-2.07A1.53,1.53,0,0,1,287.49,207.48Zm-3.65,21.43.28-16.45,2.95-.32q-.13,8.22-.28,16.44Z"/><path class="cls-1" d="M306.11,202.55q-.17,9.94-.34,19.87c0,1.47,0,3.13.06,4.24l-2.65.25c0-.95-.05-1.9-.08-2.84H303a6.9,6.9,0,0,1-5.59,3.77c-3.92.39-6.88-2.65-6.79-7.64.06-5.47,3.47-9.19,7.43-9.58,2.48-.25,4.13.78,4.85,2H303c.05-3.28.11-6.55.16-9.82Zm-3.19,14.65a5.3,5.3,0,0,0-.12-1.25,3.77,3.77,0,0,0-4.19-3c-3.05.31-4.91,3.22-5,6.85-.06,3.33,1.5,5.91,4.69,5.6a5.16,5.16,0,0,0,4.38-4,5.47,5.47,0,0,0,.16-1.31C302.88,219.1,302.9,218.15,302.92,217.2Z"/><path class="cls-1" d="M319.57,225.46c-.07-.68-.13-1.36-.2-2.05h-.1a6.81,6.81,0,0,1-5,2.86c-3.28.28-4.92-1.91-4.88-4.29.07-4,3.6-6.47,9.86-7v-.34c0-1.35-.3-3.77-3.61-3.5a8.76,8.76,0,0,0-4.25,1.59l-.63-1.91a10.78,10.78,0,0,1,5.35-1.92c4.95-.41,6.1,2.93,6,6.22,0,2-.07,4.1-.1,6.15a22.68,22.68,0,0,0,.2,3.92Zm-.29-8.35c-3.22.19-6.88,1.09-6.93,4.28a2.34,2.34,0,0,0,2.73,2.62,4.61,4.61,0,0,0,4-3.08,3.76,3.76,0,0,0,.18-1C319.25,219,319.26,218.06,319.28,217.11Z"/><path class="cls-1" d="M326.93,213.59c0-1.93,0-3.59,0-5.11l2.57-.19c0,1.07,0,2.14.05,3.22h.13a5.44,5.44,0,0,1,4.55-3.92,3.17,3.17,0,0,1,.83,0c0,.94,0,1.88,0,2.82a4.56,4.56,0,0,0-1,0c-2.07.14-3.57,1.84-4,4.12a8.18,8.18,0,0,0-.16,1.4l-.15,8.76-2.91.21Z"/><path class="cls-1" d="M338.23,200l2.94-.19-.42,24.11-2.94.19Z"/><path class="cls-1" d="M360.48,214.52c-.11,6.08-4.29,8.91-8.2,9.12-4.38.23-7.7-2.82-7.61-8,.1-5.5,3.7-8.94,8.17-9.17C357.49,206.21,360.56,209.5,360.48,214.52Zm-12.83.83c-.06,3.6,1.93,6.2,4.8,6.05s5-2.94,5-6.64c0-2.78-1.26-6.25-4.73-6.07S347.7,212.23,347.65,215.35Z"/><path class="cls-1" d="M363.69,219.67a7.4,7.4,0,0,0,3.86,1c2.13-.09,3.15-1.21,3.17-2.57s-.79-2.17-3-2.9c-2.88-.94-4.22-2.51-4.19-4.48.05-2.64,2.19-4.91,5.66-5a7.56,7.56,0,0,1,3.95.87c-.26.73-.52,1.46-.77,2.2a5.88,5.88,0,0,0-3.29-.83,2.53,2.53,0,0,0-2.74,2.35c0,1.35.93,1.92,3,2.66,2.78,1,4.19,2.36,4.15,4.8-.05,2.88-2.28,5-6.12,5.14a8.69,8.69,0,0,1-4.52-.93C363.18,221.21,363.44,220.44,363.69,219.67Z"/><path class="cls-1" d="M105.48,117.11c-5.25-4.73-13.47-5.93-24.43-3.43-9.3,2.13-18.06,4.14-26.1,9,0,.07,0,17.44,0,17.55.1.27.2.53.3.81a1.79,1.79,0,0,0,1.27,1.1,2.23,2.23,0,0,0,1.77-.4c4.49-3.18,11.63-5.55,18.26-7.09,4-.93,6.44-.88,7.54.08a4,4,0,0,1,.92,3.07c0,.38,0,.76,0,1.14-18.69,6.17-39.33,16.59-39.49,37.21-.06,6.77,1.85,11.84,5.64,15.13,4.54,3.91,11.72,5.21,21.4,3.95,2.45-.32,5.1-.81,7.87-1.44,12.63-2.9,23.81-7.39,30.63-12.47a2.84,2.84,0,0,0,1.3-1.87c0-1.31-.1-28.05,0-42.07C112.39,128.11,110.1,121.27,105.48,117.11Zm-20.78,57a15.6,15.6,0,0,1-3.47,1.15,14.83,14.83,0,0,1-1.73.32c-2.21.27-3.87-.06-4.93-1s-1.78-3-1.76-5.71c.06-7.8,4.42-11.33,12-14Q84.78,164.52,84.7,174.14Z"/><path class="cls-1" d="M43.69,111.42a2,2,0,0,0,1.66-2l.13-15.83A2,2,0,0,0,44.79,92a2.1,2.1,0,0,0-1.61-.52c-21.6,2.56-35.65,17.34-35.81,37.64l0,4.26L1.61,135a2.07,2.07,0,0,0-1.49,2L0,153.37A2,2,0,0,0,.82,155a2.07,2.07,0,0,0,1.8.35c1.52-.44,2.65-.88,4.16-1.3v52a2.12,2.12,0,0,0,.8,1.65,2.08,2.08,0,0,0,1.26.42,2.1,2.1,0,0,0,.56-.08c7.92-2.23,16-4.43,24-6.54a2.08,2.08,0,0,0,1.54-2V146.38c2.73-.71,5.88-1.42,8.62-2.13a2,2,0,0,0,1.55-2l.12-16.37a2,2,0,0,0-.79-1.63,2.06,2.06,0,0,0-1.78-.38l-7.16,1.85,0-5C35.58,114.89,37.57,112.62,43.69,111.42Z"/><path class="cls-1" d="M199.38,91.87c-9.66,1.4-17.51,4.55-23.37,9.37-5.29-3-12.72-3.74-22.15-2.08-12.41,2.19-21.83,5.66-30.57,11.27-.58.38-1.46,1-1.46,1.71v67a2.08,2.08,0,0,0,2,2.08,2.46,2.46,0,0,0,.4,0c8.06-1.6,16.19-3.14,24.15-4.58a2.08,2.08,0,0,0,1.69-2V119.92a20.51,20.51,0,0,1,4.59-1.2c2.28-.4,4-.12,4.93.81.67.68.63,1.77.62,3.21v49.33a2,2,0,0,0,.72,1.58,2.07,2.07,0,0,0,1.69.47c8-1.36,16.1-2.67,24.15-3.91a2.05,2.05,0,0,0,1.75-2v-54a11.59,11.59,0,0,1,4.79-1.74c2.18-.31,3.84,0,4.79,1s.7,2.29.69,3.29V166a2.06,2.06,0,0,0,.7,1.57,2,2,0,0,0,1.64.49c8-1.14,16.17-2.23,24.17-3.23a2.05,2.05,0,0,0,1.8-2V113.65c.06-6.56-1.59-12.1-5.49-16C216.65,92.57,208.79,90.53,199.38,91.87Z"/><path class="cls-1" d="M411.86,107.92c.07-9-1.83-16.19-6.28-21.18-5.09-5.71-13-8.61-23.67-8.48-9,.12-17.5.23-25.32,3.31,0,.06,0,.12,0,.19V98.3a1.24,1.24,0,0,1,0,.33c.1.28.2.56.29.84a2.33,2.33,0,0,0,1.23,1.33,2.09,2.09,0,0,0,1.73,0c4.36-2.16,11.31-3,17.73-3,3.87-.07,6.25.5,7.3,1.66a4.5,4.5,0,0,1,.89,3.17c0,.37,0,.74,0,1.11-18.1,2.06-38.2,7.85-38.35,27.87-.05,6.56,1.79,11.91,5.49,15.89,4.4,4.75,11.4,7.52,20.79,8.35,2.36.2,4.94.28,7.63.25,12.25-.16,23.05-2.18,29.64-5.69a1.78,1.78,0,0,0,.94-1.61C411.86,135,411.76,121.53,411.86,107.92ZM385.47,137.8a13.36,13.36,0,0,1-3.38.4,15.08,15.08,0,0,1-1.67-.06,7.08,7.08,0,0,1-4.79-2c-1.15-1.26-1.72-3.25-1.71-5.92.06-7.57,4.3-10.08,11.69-11.12Q385.54,128.46,385.47,137.8Z"/><path class="cls-1" d="M251.13,86.74c-14,.75-14.46,13-14.46,13v61.41a2.12,2.12,0,0,0,.68,1.55,2,2,0,0,0,1.38.52c.09,0,16.43-1.81,24.4-2.59,1-.1,2.4-1,2.41-2V96.73S265.17,86,251.13,86.74Z"/><path class="cls-1" d="M327.74,80.73c-14,0-14.46,12.25-14.46,12.25v61.41a2.23,2.23,0,0,0,2.05,2.19c.09,0,16.43-.94,24.4-1.29,1,0,2.4-.85,2.41-1.9V91.5S341.78,80.73,327.74,80.73Z"/><path class="cls-1" d="M327.51,48.66c-7.93.4-14.42,6.65-14.48,13.93a12,12,0,0,0,3.56,8.66,14.32,14.32,0,0,0,10.15,4.08c.27,0,.54,0,.81,0,8-.41,14.55-6.67,14.61-14a12.06,12.06,0,0,0-3.54-8.62A14.43,14.43,0,0,0,327.51,48.66Z"/><path class="cls-1" d="M301.51,42.39a203.46,203.46,0,0,0-24.23-9.08,1.9,1.9,0,0,0-2.37,1.56V157.31a2.17,2.17,0,0,0,.69,1.56,2.12,2.12,0,0,0,1.38.56c.07,0,16.41-1.41,24.4-2,1-.08,2.39-.92,2.39-2V45.54a3.34,3.34,0,0,0-.67-1.86A4,4,0,0,0,301.51,42.39Z"/><path class="cls-1" d="M249.09,81.25c.56,0,1.12,0,1.68-.09,8-.86,14.46-7.43,14.53-14.66A11.51,11.51,0,0,0,262,58.24a13.88,13.88,0,0,0-11.44-3.72c-7.89.84-14.36,7.4-14.4,14.61a11.5,11.5,0,0,0,3.36,8.3A13.41,13.41,0,0,0,249.09,81.25Z"/><path class="cls-1" d="M410.53,164.77a4.15,4.15,0,0,0-1.66-.38c-3.49.15-94.59-.91-189,13.21C125.57,189.49,28,216.58,12,221.7h0l-.08,0h0c-5.25,1.43-9.48,6.8-9.48,12s4.24,8.3,9.48,7v0c132-42.44,266.08-65.74,398-69.88a1.52,1.52,0,0,0,.32-.06,2.94,2.94,0,0,0,2.48-3.13A3.56,3.56,0,0,0,410.53,164.77Z"/><path class="cls-1" d="M431.93,161.17a5.61,5.61,0,0,1-4.13,1.69,5.77,5.77,0,0,1-5.83-5.81,5.65,5.65,0,0,1,1.73-4.1,5.82,5.82,0,1,1,8.23,8.22Zm-7.69-7.63a5,5,0,0,0,0,7.06,5,5,0,1,0,3.56-8.51A4.92,4.92,0,0,0,424.24,153.54Zm3.44.34a4.63,4.63,0,0,1,1.76.22,1.55,1.55,0,0,1,1,1.59,1.37,1.37,0,0,1-.63,1.27,2.12,2.12,0,0,1-.93.31,1.55,1.55,0,0,1,1.1.61,1.88,1.88,0,0,1,.36,1v.46c0,.16,0,.32,0,.49s0,.27,0,.3l0,.08h-1v0s-.06,0-.06-.07v-.71c0-.76-.2-1.24-.6-1.46a2.89,2.89,0,0,0-1.29-.2h-.92v2.48h-1.07v-6.33Zm1.24,1a3,3,0,0,0-1.39-.22h-1v2.23h1.05a3.18,3.18,0,0,0,1.09-.14,1.1,1.1,0,0,0,.26-1.87Z"/><path class="cls-1" d="M410.3,63.41a2.41,2.41,0,0,0-.48-.41c-3-1.82-33.83-18.74-44.9-25.12-.11-2.61,0-9.3,0-12.44A4.29,4.29,0,0,0,362.71,22s-18.88-10.54-19.42-10.72a5.38,5.38,0,0,0-.8-.14s-2.68-.15-3.29,2.26a2.29,2.29,0,0,0,0,.47c0,1,0,4,.34,13.4-12.18-5.7-47.41-22.19-55.31-25.67C282.29.87,280.86.05,278.8,0a8.23,8.23,0,0,0-3.52.59,18.78,18.78,0,0,0-2.11,1.29c-8.24,6.12-48.67,36.17-64.6,48.9-10.08,8-18.73,15.08-24.21,19.56-6.61,5.41-9,7.53-9,7.53A4.94,4.94,0,0,0,174,81.25a5.17,5.17,0,0,0,5.27,5.06,5.26,5.26,0,0,0,3.05-1c8.11-5.42,86.4-65.85,93.91-68a11.06,11.06,0,0,1,7.83.17c4.14,1.49,56.21,21.39,120.7,52.71a5.54,5.54,0,0,0,2.13.71,4.48,4.48,0,0,0,4.43-2A4.4,4.4,0,0,0,410.3,63.41Z"/></g></g></svg>