<svg xmlns="http://www.w3.org/2000/svg" viewBox="0 0 254.06 241.54"><defs><style>.cls-1{fill:#fff;}</style></defs><g id="Capa_2" data-name="Capa 2"><g id="Capa_1-2" data-name="Capa 1"><g id="_3YR7TX" data-name="3YR7TX"><path class="cls-1" d="M42.66,218.65V179.73c0-4.53,1.34-5.85,5.93-5.85H148c3.74,0,4.43.69,4.44,4.43,0,5.5-.21,5.71-5.81,5.71q-44.31,0-88.61,0c-1.85,0-2.28.47-2.28,2.29.08,16.23,0,32.45,0,48.68,0,4.33-1.37,5.71-5.67,5.72-1.71,0-3.42,0-5.13,0A8.29,8.29,0,0,1,37,236q-11.16-19.87-22.43-39.68a4.42,4.42,0,0,0-1.28-1.52v2q0,19,0,38c0,4.54-1.33,5.85-5.93,5.85-.89,0-1.77,0-2.66,0C1.51,240.53,0,239,0,235.71c0-6.15,0-12.3,0-18.45V179.05c0-3.9,1.36-5.26,5.26-5.28,2.21,0,4.43,0,6.65,0a7.8,7.8,0,0,1,7.56,4.42c4.39,7.92,8.86,15.8,13.29,23.69l9.48,16.87Z"/><path class="cls-1" d="M234.9,220.07c-4.88,0-9.76.05-14.64,0-1.43,0-1.73.42-1.39,1.77,1.13,4.44,3.78,7.51,8.25,8.53,4.68,1.07,9,.25,12.11-3.84a4.78,4.78,0,0,1,4.36-2.12c2,.1,4.06,0,6.09,0s2.87.92,2.53,3a12.74,12.74,0,0,1-3.91,7c-6,5.87-13.43,7.85-21.51,6.79-13.17-1.72-21.85-12.81-21.17-26.46.56-11.31,6.86-20.06,16.76-22.9s22.46-.57,28.4,10.34a26.8,26.8,0,0,1,3.28,13.31c0,3.18-1.16,4.43-4.33,4.48-4.94.08-9.88,0-14.83,0Zm-5-9.63c3.24,0,6.47,0,9.7,0,1.22,0,1.5-.28,1.2-1.52-1.14-4.78-5.49-8.07-10.85-8.1s-9.72,3.15-11,7.95c-.37,1.47.08,1.71,1.41,1.67C223.6,210.39,226.77,210.44,229.93,210.44Z"/><path class="cls-1" d="M89.64,220.07c-4.81,0-9.63.07-14.45,0-1.8,0-2,.6-1.55,2.11,1.23,4.34,3.91,7.29,8.32,8.24,4.62,1,8.89.17,11.93-3.85a4.91,4.91,0,0,1,4.54-2.15c2,.1,3.93,0,5.9,0,2.13,0,2.91.88,2.57,3a13,13,0,0,1-4.15,7.31c-6,5.66-13.29,7.47-21.25,6.59-13.78-1.53-21.85-13.69-21.17-26.65.53-10,4.87-17.83,14.39-21.89,16.71-7.13,33.63,3.95,34,22.08.08,3.91-1.11,5.19-5,5.21C99,220.1,94.33,220.07,89.64,220.07Zm-5.17-9.63c3.23,0,6.47-.08,9.69,0,1.55.06,1.62-.54,1.31-1.76-1.23-4.74-5.67-7.93-11-7.87s-9.66,3.34-10.76,8.18c-.26,1.15,0,1.45,1.11,1.44C78,210.41,81.24,210.44,84.47,210.44Z"/><path class="cls-1" d="M117.05,224.41c1,0,1.9,0,2.85,0a3.39,3.39,0,0,1,3.43,1.94c2.61,5.55,11.65,5.76,15.55,3.7a4.15,4.15,0,0,0,2.46-4c-.06-1.88-1.42-2.78-3-3.23-4.21-1.17-8.43-2.26-12.66-3.37a26,26,0,0,1-7-2.78,12.86,12.86,0,0,1-1.46-21.25,20.46,20.46,0,0,1,10.8-4.28c6-.74,11.78-.32,17.21,2.5,3.42,1.77,6.19,4.21,7.38,8,1,3.35.09,4.62-3.37,4.64-.95,0-1.91,0-2.85,0a5.78,5.78,0,0,1-5.72-2.72c-2.51-3.65-6.63-3.43-10.55-3a7.7,7.7,0,0,0-2.35.71,3.88,3.88,0,0,0-2.52,3.7,3.35,3.35,0,0,0,2.74,3.25c3.89,1.12,7.81,2.14,11.72,3.18a38.13,38.13,0,0,1,6.5,2.08c4.81,2.22,7.76,5.87,8.13,11.24a13.13,13.13,0,0,1-6,12.55c-5.69,3.8-12.1,4.62-18.75,4A24.69,24.69,0,0,1,117,236.8c-2.9-2.11-5.14-4.69-5.67-8.42-.41-2.94.46-3.95,3.45-4Z"/><path class="cls-1" d="M160.53,214.4c0-3.68,0-7.35,0-11,0-1.17-.23-1.66-1.54-1.68-3.51,0-4-.61-4-4.18,0-.51,0-1,0-1.52.09-2.57.92-3.55,3.45-3.44,1.83.08,2.17-.58,2.13-2.23-.12-3.93,0-7.86,0-11.79,0-3.26,1.37-4.61,4.63-4.65,1.27,0,2.54,0,3.81,0,3,.06,4.43,1.42,4.46,4.43,0,4.18.06,8.37,0,12.55,0,1.36.41,1.73,1.71,1.66,2.09-.1,4.19-.07,6.28,0s3.06,1,3.15,3.16c.25,5.72-.06,6-5.76,6.06-1.7,0-3.9-.72-5,.3s-.36,3.35-.38,5.1c-.06,5.26,0,10.52,0,15.78s2,7.37,7.25,7.65c2.67.14,3.52,1,3.61,3.6,0,1.14,0,2.28,0,3.42-.13,2-1,2.93-3,3a34.43,34.43,0,0,1-8.72-.4c-7.31-1.48-11.81-7.07-12-15-.1-3.61,0-7.23,0-10.84Z"/><path class="cls-1" d="M201.14,207.26v28.32c0,3.87-1.24,5.08-5.16,5.09-1.33,0-2.66,0-4,0a3.81,3.81,0,0,1-4-3.9c-.05-.57,0-1.14,0-1.71V179.54c0-4.64,1-5.66,5.74-5.66h2.85c3.24.05,4.6,1.4,4.61,4.67q0,13.3,0,26.62Z"/><path class="cls-1" d="M230.33,184H212.1c-2.53,0-3.21-.5-3.31-2.34-.24-4,.22-4.82,3-5.11,7.93-.81,15.87-1.57,23.8-2.35,4.34-.42,8.69-.87,13-1.23,2.94-.24,3.88.68,4,3.65,0,1.08,0,2.15,0,3.23,0,3.41-.73,4.15-4.09,4.15H230.33Z"/><path class="cls-1" d="M123.69,22c1.11,0,2.22.07,3.33,0,1.59-.11,1.55.46.81,1.57s-1.36,2.29-2.21,3.74c1.42-.2,2.59-.34,3.75-.52a19.39,19.39,0,0,1,4.69-.14c5,.43,7.56,2.6,8.87,7.47A87.27,87.27,0,0,1,145,47.35c1.26,11,6.2,20.33,13.19,28.69,1.76,2.11,3.67,4.08,5.51,6.11.36.4,1,.82.43,1.39s-1,0-1.47-.3a67.59,67.59,0,0,1-16-16.8c-3.58-5.53-5.13-11.73-6.17-18.12-.67-4.08-1-8.22-2-12.25-.89-3.8-2.66-5.23-6.56-5.45a39.74,39.74,0,0,0-10.65,1.12c-.48.1-1,.18-1.78.33,1-1.88,1.78-3.51,2.69-5.08.67-1.16.65-1.68-.9-1.6-1.72.09-3.45,0-5.16,0-.27-.78.26-1.16.51-1.61,2.53-4.52,5.27-8.89,7.27-13.75,3.6-8.74,14.69-12.41,24-8.45,4.94,2.1,8.7,5.74,12,9.81a91.17,91.17,0,0,0,15.35,15.19A101.62,101.62,0,0,1,196,48.86c13.68,19.57,26,40,35.92,61.7,2.93,6.4,5.73,12.88,7.11,19.84.23,1.2.68,2.6-.34,3.51s-2.49.23-3.65-.24c-4-1.63-7.52-4.16-11-6.65l-1.4-1c-.29.73.16,1.25.35,1.78,2.3,6.48,4.65,12.94,7,19.42,1.94,5.45.67,7.23-5.09,7.25-7.44,0-6-.5-11.41,4.71-.36.35-.7.73-1.08,1.07-2.83,2.59-6.13,1.73-7-2-.82-3.42-1.41-6.9-2-10.37-1.68-10-3.31-20-5-30a.5.5,0,0,1,0-.17c.07-.75-.64-1.9.5-2.13s1.11,1.07,1.29,1.79c3,11.7,5.94,23.41,8.52,35.2.19.86.18,1.9,1.18,2.25s1.65-.64,2.39-1.19c2.61-1.94,3.18-4.24,2.3-7.45-1.31-4.79-2.07-9.73-3.06-14.61a1.91,1.91,0,0,1-.06-.33c0-.62-.52-1.51.36-1.76s1,.74,1.17,1.31c1.63,4.64,3.22,9.3,4.82,13.95.09.26.19.52.28.79,1.47,4.29,1.52,4.29,6.12,4.05,1.47-.08,1.91-.83,1.55-2.09-.42-1.51-1-3-1.51-4.45-2.22-6.38-4.5-12.76-6.65-19.16a6.43,6.43,0,0,0-2.43-3.25c-15-11.14-28.86-23.43-40.75-37.86-8.32-10.09-15.33-21-19.24-33.57-.69-2.24-1.22-4.53-1.75-6.81-.14-.59-.56-1.48.33-1.75s1,.7,1.25,1.27a169,169,0,0,0,22.69,38.1c10.14,12.63,22.21,23.18,35.07,32.89,6.35,4.79,12.86,9.35,19.43,13.82.39.27.8.51,1.46.91-1.26-3.69-2.62-7-4.06-10.36A351.81,351.81,0,0,0,190,48.92a98.2,98.2,0,0,0-22.15-22.1C163.9,24,161,20.25,158,16.55a47.2,47.2,0,0,0-8.34-8.49A15.21,15.21,0,0,0,137.79,5a12.13,12.13,0,0,0-9.53,6.89c-1.57,3.25-2.5,6.81-4.86,9.69Z"/><path class="cls-1" d="M14.81,132a4.17,4.17,0,0,0,0-.5c-.71-7.48,2.87-12,9.67-14.62,4.85-1.86,9.58-4,14.39-6,1-.43,1.32-.7.41-1.64A77,77,0,0,1,33,102.09a12.64,12.64,0,0,1-2.4-11.38,4,4,0,0,0-.79-3.77,19.62,19.62,0,0,1-2.52-4,7.08,7.08,0,0,1-.48-5.07,8.77,8.77,0,0,0-.07-6.06,3.64,3.64,0,0,1,1.05-4A14.64,14.64,0,0,1,33,64.57,52.9,52.9,0,0,1,51.15,61c.93,0,1.19.12.83,1.12-.64,1.76-1.5,2.72-3.65,2.85a37.62,37.62,0,0,0-11.91,2.6c-1.55.63-3.39,1.24-3.61,3.16s1.43,3,2.87,4a25.93,25.93,0,0,0,9.6,3.83,7.54,7.54,0,0,0,5.07-.69c4.72-2.49,9.48-2.05,14.32-.46a70.47,70.47,0,0,1,11.87,5c.56.3,1.79.31,1.31,1.5s-1.11,2-2.45,1.9a7.47,7.47,0,0,1-2.08-.64,58,58,0,0,0-12.58-4c-2.35-.38-4.77-.62-6.94.48-7.32,3.72-13.64,1-19.86-2.81-.45-.28-.84-1-1.38-.72S32,79.21,32,79.82a6.64,6.64,0,0,0,1.8,4.58,28.91,28.91,0,0,0,13.3,9c1.09.39,2.33,2.7,1.94,3.74-.22.62-.77.32-1.14.26a27.93,27.93,0,0,1-11.24-4.15c-.4-.26-.78-.87-1.26-.62s-.43,1-.47,1.53a6.17,6.17,0,0,0,1.4,4.21,92.84,92.84,0,0,0,6.28,7.44,4.84,4.84,0,0,0,5.35,1.53c5.37-1.84,10.12-.3,14.73,2.36a49.33,49.33,0,0,1,10.9,8.33c.79.81.75,1.24-.15,1.91-2.23,1.68-2.17,1.69-4.28-.25A37.82,37.82,0,0,0,56,111.48a11.27,11.27,0,0,0-8.2.29q-11.46,4.74-22.9,9.57c-3.52,1.48-5.36,4.06-5.19,8,.07,1.56.06,3.13,0,4.7a2.84,2.84,0,0,1-1.65,2.87c-2.18.91-3.2.31-3.24-2,0-1,0-1.91,0-2.86Z"/><path class="cls-1" d="M34,32.47a4.82,4.82,0,0,1-2.9-2.6c-.22-.58-.84-.46-1.32-.52A12.41,12.41,0,0,1,19.25,18.49,2,2,0,0,0,18.41,17c-5-3.8-4.15-10-1.47-13.28A9.67,9.67,0,0,1,30.45,2.08a2.61,2.61,0,0,0,1.83.59c5.87-.3,9.83,2.11,12.22,7.5a3,3,0,0,0,2.12,2,5.47,5.47,0,0,1,3.61,3.66c.74-.33.47-.92.52-1.35A11.47,11.47,0,0,1,59.84,4.38a2.65,2.65,0,0,0,1.45-1A9.26,9.26,0,0,1,71.34.45,9.29,9.29,0,0,1,78.13,8a7.73,7.73,0,0,1-1.5,6.34A2.05,2.05,0,0,0,76,16a9.58,9.58,0,0,1-5.21,10.14A2.92,2.92,0,0,0,69.14,28c-1.07,3.17-5.85,5.82-9.17,5.22-.47-.09-.94-.24-1-.74s.4-.75.82-.94c1.69-.77,3.56-1.49,4.47-3.13a18.79,18.79,0,0,1,6-6.93c1.95-1.29,2-3.77,1.59-6a2.07,2.07,0,0,1,.54-2.06,5.29,5.29,0,1,0-8.25-6.62,2.25,2.25,0,0,1-1.76,1,9.11,9.11,0,0,0-8,7.71,5.8,5.8,0,0,1-1.35,3.14,8.76,8.76,0,0,0-1.69,4.15c-.13.58-.26,1.34-1.06,1.28s-.73-.76-.88-1.29c-.25-.91-.41-1.86-.73-2.75A7.46,7.46,0,0,0,45,15.75a17.64,17.64,0,0,1-4.12-4C38.6,8,35.2,6.46,30.94,6.72a3.68,3.68,0,0,1-2.88-.8,5.15,5.15,0,0,0-7.43,1,5.27,5.27,0,0,0,1.24,7.56A2.09,2.09,0,0,1,23,16.14a10.15,10.15,0,0,0,9.2,9.37,1.82,1.82,0,0,1,1.63,1.11A8.81,8.81,0,0,0,40,31.31c.33.07.65.18,1,.25.53.11,1,.37,1,1a1,1,0,0,1-1,1,8.93,8.93,0,0,0-6.07,2.88c-.34.4-.84.17-1.27.15A15,15,0,0,0,29,37a8,8,0,0,0-2.75,1.21c-2.85,2.17-4.34,5.45-6.31,8.29-1.21,1.74-.11,4.4,1.53,5.71a5.33,5.33,0,0,0,6.27.25,2,2,0,0,1,2.37-.24c3.23,1.56,6.36.82,8.73-2a2.59,2.59,0,0,1,2.08-1.12c3.33-.12,6.42-.93,8.72-3.61.26-.31.59-.61,1-.36.62.38.4,1,.23,1.5A9.32,9.32,0,0,1,43,52.82,3,3,0,0,0,40.6,54c-2.51,2.86-5.82,3.36-9.36,2.74a3.35,3.35,0,0,0-2.35.4A9.67,9.67,0,0,1,17.6,55.26c-2.9-3-3.89-7.92-1.65-11.12,1.8-2.58,3.74-5.12,5.78-7.5,2.37-2.75,6-3.37,9.47-3.66.87-.07,1.75,0,2.63,0Z"/><path class="cls-1" d="M49.82,123.35c1.38-.83,2.49-1.45,3.56-2.13.51-.32.93-.13,1.42,0,7,2.59,9.34,6,9.33,13.4v1.52c.78.09,1.13-.51,1.58-.84,5.8-4.3,11.61-8.6,17.35-13,1-.75,1.53-.65,2,.37.4.82,2,1.52.26,2.59a15.69,15.69,0,0,0-1.59,1.23c-1.88,1.48-1.89,1.51.15,2.92a17.41,17.41,0,0,0,15.48,2.75,75.08,75.08,0,0,1,22.7-2.87c6.38.09,12.76.28,19.14-.2,5.9-.44,10.94-3,15.67-6.32a60.7,60.7,0,0,0,19.61-23c.57-1.15,1-1.39,2.13-.61,2.47,1.7,2.52,1.64,1.18,4.26A62.15,62.15,0,0,1,154.6,130a36,36,0,0,1-18,4.38c-7.05,0-14.11.09-21.16,0-5.46,0-10.57,1.69-15.81,2.82-7.69,1.67-14.51-.28-20.42-5.41-.81-.71-1.23-.55-1.93,0-5.23,4.13-10.54,8.15-15.71,12.34a23.17,23.17,0,0,1-15.28,5.55c-.73,0-1.91.73-2.09-.82s.5-2.93,1.76-3.24a10.26,10.26,0,0,1,1.67-.12A18.48,18.48,0,0,0,56.35,143a7.38,7.38,0,0,0,3.74-5.68c.7-7.08-.59-10.07-7.08-12.68Z"/><path class="cls-1" d="M166.87,93.37a41.49,41.49,0,0,0-13.37,11.07c-2,2.51-3.68,5.2-5.41,7.88-.57.89-.31,1.16.61,1.22a13.82,13.82,0,0,0,6.66-1.39,34,34,0,0,0,6.2-4l1.34-1c.93,2.84.6,4.09-1.59,5.64-4.38,3.1-9.08,5.46-14.63,4.78a8,8,0,0,0-4.88.94c-6.94,3.49-14.45,4.94-22.1,5.79a141.45,141.45,0,0,1-14.41.72c-1.57,0-1.6-.51-1.22-1.75a2.65,2.65,0,0,1,2.84-2.06A112.33,112.33,0,0,0,122.12,120c1.3-.22,1.84-.57,1-1.84-.26-.43-.44-.91-.68-1.35-2.88-5.34-5.66-6.5-11.42-4.56a129.22,129.22,0,0,0-16,7c-.44.23-1,.85-1.47.21A21.9,21.9,0,0,1,91.94,117s.41-.47.69-.63c6.6-3.68,13.31-7.09,20.58-9.29,3.76-1.13,6.94-.1,9.71,2.54a19.49,19.49,0,0,1,4.94,7.5c.47,1.29,1.1,1.41,2.21,1,1.8-.6,3.62-1.13,5.43-1.71a16.63,16.63,0,0,0,9.32-7.27,57.43,57.43,0,0,1,12.31-14.11c1-.84,2.12-1.64,3.25-2.38C163.52,90.66,163.82,90.71,166.87,93.37Z"/><path class="cls-1" d="M111.72,18.62c-1.18,1.74-2.15,3.38-3.33,4.85-1,1.24-.74,1.9.49,2.7,1.49,1,2.86,2.13,4.39,3.29-1.88.72-3.6,1.35-5.31,2a16.16,16.16,0,0,0-7,5.09,7.82,7.82,0,0,1-.67.75c-.4.39-.81.91-1.43.57s-.31-1-.11-1.49a13.56,13.56,0,0,1,6.75-7.58c.29-.13.58-.28,1.08-.54a17.8,17.8,0,0,0-2.24-1.6c-1.34-.69-1.26-1.4-.33-2.39A24.68,24.68,0,0,0,105.76,22c-3.36.52-6-.86-8.7-1.74-5.56-1.78-10.37.79-12.13,6.34-.34,1.07-.62,2.15-.87,3.24a33,33,0,0,1-7,14c-2.36,2.84-4.8,5.61-7,8.54-4,5.22-6.9,11.11-9.57,17.09-.68,1.51-1.41,2.18-3.2,2.09-3-.15-2.95,0-1.83-2.81A73.79,73.79,0,0,1,70.58,44.35a34.48,34.48,0,0,0,9.1-17.08,21.75,21.75,0,0,1,1.37-4.13c2.72-6.27,9.77-9.71,16.11-7.26A32.2,32.2,0,0,0,111,18.42,2.9,2.9,0,0,1,111.72,18.62Z"/><path class="cls-1" d="M115,50.22c-1-.39-1.92-.82-2.89-1.16s-1.08-.76-.64-1.62.77-1.85,1.31-3.2c-3.32,1.6-6.37.56-9.45.35a9.29,9.29,0,0,0-10.14,9.33,24.68,24.68,0,0,1-5.54,15.27c-2.23,2.94-4.3,6-6.35,9.07-.59.88-1,.86-1.88.41-3-1.64-3.12-1.65-1.2-4.5s3.87-5.77,6.05-8.46a18.24,18.24,0,0,0,4.12-11.43,15,15,0,0,1,2.73-8.67c3.19-4.32,7.55-6.26,12.75-5.28A28,28,0,0,0,116.65,40c.37-.1.75-.13,1.38-.25-.87,2.13-1.6,4.09-2.46,6-.4.89-.18,1.28.66,1.62,1.81.74,3.58,1.55,5.41,2.34-.14.59-.61.71-.93.95a27.16,27.16,0,0,0-11.14,19.86c-.17,1.73-.24,3.46-.36,5.19,0,.54.1,1.26-.64,1.37s-.87-.68-1-1.24c-2.42-9.79-.25-18.26,7.26-25.19A2.25,2.25,0,0,0,115,50.22Z"/><path class="cls-1" d="M234.5,17.88c0,1.45,0,2.67,0,3.89a1,1,0,0,1-.78,1.12c-7,2.28-13.8,5.24-21.11,6.54a14.18,14.18,0,0,1-3.68.15,6.84,6.84,0,0,1-6.63-6.74c-.05-.59.16-1.21-.22-1.8-.76.1-.89.79-1.2,1.26-2.45,3.75-4.73,7.61-7.41,11.2-.8,1.07-1.3,1.39-2.33.16-1.8-2.15-1.85-2.07-.15-4.36A215.48,215.48,0,0,0,205.58,7a3.7,3.7,0,0,1,4-2.24c2,.17,2,0,1.18,1.92a51.67,51.67,0,0,0-3.95,11.55c-1.12,5.95.86,7.87,6.8,6.53s11.61-3.68,17.36-5.68C232.11,18.67,233.22,18.31,234.5,17.88Z"/><path class="cls-1" d="M100.3,103c1.37,3.51,1.36,3.49-1.82,5A30.76,30.76,0,0,1,85,111.46a20.68,20.68,0,0,1-17.19-8.9,1.83,1.83,0,0,0-2.21-.84,40.75,40.75,0,0,1-9.68.75,7.86,7.86,0,0,1-1.81-.29c-1.46-.44-1.53-1.82-1.47-2.9s1.17-.44,1.79-.46a70.91,70.91,0,0,0,8.85-.75c1-.16,1.53-.47.85-1.58s-1.16-2.3-1.84-3.38c-1.64-2.65-3.5-3.45-6.53-2.82-1.31.28-2.58.74-3.87,1.08a1.85,1.85,0,0,1-2.44-.87c-.54-1.09-.63-1.9.82-2.44a29.13,29.13,0,0,1,7.71-2.17,7.37,7.37,0,0,1,7,3,32.36,32.36,0,0,1,2.19,3.56c.81,1.47,1.52,3,2.3,4.47,5.17,9.86,12.8,12.9,23.37,9.34A54.47,54.47,0,0,0,100.3,103Z"/><path class="cls-1" d="M134.75,107.17a5.76,5.76,0,0,1-4.71-2.59,12.24,12.24,0,0,1-2-5.46c-.3-2.25-.28-2.24-2.56-1.87a54.25,54.25,0,0,0-18.21,6.54c-.44.25-1,1.25-1.65.32s-.71-3.12,0-3.53a67.28,67.28,0,0,1,24.76-8.46c1.5-.18,2.1.14,2,1.77a17.11,17.11,0,0,0,.64,6c.73,2.38,2.22,3,4.35,1.7a24.42,24.42,0,0,0,5.15-4.53,146.12,146.12,0,0,0,9.76-11.75c1.36-1.78,1.89.19,2.75.49,1.07.38.79,1,.2,1.77-3.75,4.74-7.32,9.63-11.52,14a21.66,21.66,0,0,1-6.3,5A7.28,7.28,0,0,1,134.75,107.17Z"/><path class="cls-1" d="M239.26,27.57a28.83,28.83,0,0,0,0,3.1c.16,1.28-.36,1.85-1.54,2.3-5.16,2-10.29,4-15.42,6.08-.37.14-.73.29-1.08.46s-1.06.37-1,1,.72.62,1.21.66c3,.22,5.89-.46,8.81-.9.61-.09,1.21-.21,1.82-.32,2.25-.43,3,.49,2.37,2.72-.19.64-.69.63-1.17.74A56.13,56.13,0,0,1,219.19,45a34.38,34.38,0,0,0-14.53,2.78c-1.29.55-2,.45-2.82-.81-1.46-2.29-1.55-2.25.89-3.5a349.19,349.19,0,0,1,35.42-15.52C238.45,27.8,238.77,27.72,239.26,27.57Z"/><path class="cls-1" d="M86.34,101.44a14.54,14.54,0,0,1-4.48-.61,5.35,5.35,0,0,1-3.07-8.11,13.78,13.78,0,0,1,3.57-4,53.63,53.63,0,0,1,13.35-7.29c.53-.22,1.05-.44,1.45.24s1.43,1.34,1.5,2.32c0,.41-.69.47-1.09.63a72.5,72.5,0,0,0-9.8,4.74,15.62,15.62,0,0,0-4.32,3.43c-1.72,2.11-1,4,1.64,4.45,3.29.5,6.44-.34,9.54-1.33A71.74,71.74,0,0,0,103.89,92a4.79,4.79,0,0,1,1.89-.62c1.4,0,2,1,2.45,2s-.84,1-1.37,1.25C101.57,97.48,96.15,100,90.17,101,88.79,101.22,87.39,101.32,86.34,101.44Z"/><path class="cls-1" d="M117.78,80.34a94.21,94.21,0,0,1,11.86,1.1,34.29,34.29,0,0,0,16.29-2.26c1-.39,3.52.92,3.78,2,.14.59-.41.62-.7.77-5.82,3-11.95,4.7-18.58,4-3-.32-5.9-.61-8.84-1a31.64,31.64,0,0,0-14.53,1.74c-1,.33-3.24-1.37-3.1-2.34.07-.5.6-.62,1-.84C108.87,81.07,113.23,80.33,117.78,80.34Z"/><path class="cls-1" d="M185,67.68a2,2,0,0,1,1.07.83,348.09,348.09,0,0,0,30.36,32.27c.43.41,1.11.84.57,1.51s-1,.06-1.46-.24c-12.27-8.45-22.91-18.46-30.36-31.54a11.1,11.1,0,0,1-.88-1.8C184.1,68.12,184.4,67.75,185,67.68Z"/><path class="cls-1" d="M58.41,50.1c-1.25-2.59-2.39-5.05-3.61-7.47a71.78,71.78,0,0,0-4.87-8.41c-.85-1.24.4-1.5.87-2.09.62-.78,1,0,1.25.38A69,69,0,0,1,60.91,44.9a1.61,1.61,0,0,1-.21,2.19C59.88,48,59.22,49,58.41,50.1Z"/><path class="cls-1" d="M127.88,65.51c-3,0-5.93,0-8.89,0-1,0-1-.26-.7-1.15.72-1.86,1.73-2.74,3.94-2.61,4.18.23,8.38.07,12.57.07a3.31,3.31,0,0,1,3,3.18c-.06.75-.64.48-1,.48C133.8,65.52,130.84,65.51,127.88,65.51Z"/><path class="cls-1" d="M66.3,13.77c-.2.38-.36.74-.56,1.07L58.15,26.7c-.37.57-.67,1.22-1.53.57-.65-.49-1.43-.67-.89-1.89a32.5,32.5,0,0,1,8.84-11.66c.37-.32.75-.75,1.32-.47C66.06,13.33,66.15,13.57,66.3,13.77Z"/><path class="cls-1" d="M29.86,13.16c.26.1.63.22,1,.37a32.93,32.93,0,0,1,11.48,8.19c.8.88.63,1.37,0,2.2-.83,1-1.28.34-1.86-.15q-5.39-4.51-10.75-9c-.36-.31-.88-.6-.62-1.23C29.17,13.2,29.46,13.14,29.86,13.16Z"/><path class="cls-1" d="M44,38.93c.87-.12.6.92.89,1.49.42.79-.18.94-.72,1.13l-13.81,4.7c-.43.14-.89.33-1.22-.11s0-.84.37-1.12A29.71,29.71,0,0,1,44,38.93Z"/><path class="cls-1" d="M135.88,11.48c.28.07.84.15,1.37.32.92.3,1.87.69,2.08,1.74s-.66,1.59-1.32,2.18a8.41,8.41,0,0,1-3.45,2,1.64,1.64,0,0,1-2-.75,3.91,3.91,0,0,1,.19-3.86A3.09,3.09,0,0,1,135.88,11.48Z"/><path class="cls-1" d="M92,26.78c0-2.05,1.36-3.47,3.14-3.4,1.56.07,3,1.19,3.08,2.33,0,1.46-2.4,3.29-4.34,3.26C92.54,29,92,28.29,92,26.78Z"/><path class="cls-1" d="M104.2,48.05c1.22.06,2.41.32,2.89,1.57s-.43,2-1.19,2.73a3.24,3.24,0,0,1-.66.51c-1,.56-2,1.52-3.18.58s-1-2.17-.58-3.4A2.5,2.5,0,0,1,104.2,48.05Z"/></g></g></g></svg>