<svg xmlns="http://www.w3.org/2000/svg" viewBox="0 0 560.17 137.17"><defs><style>.cls-1{fill:#fff;}</style></defs><g id="Capa_2" data-name="Capa 2"><g id="Capa_1-2" data-name="Capa 1"><path class="cls-1" d="M492,109.46a4.84,4.84,0,0,1,0-7.15l12-12a4.86,4.86,0,0,1,7.14,0l12,12a4.81,4.81,0,0,1,0,7.15l-12,12a4.8,4.8,0,0,1-7.14,0Z"/><path class="cls-1" d="M508.48,75a7.64,7.64,0,0,1,0-11.28l19-19a7.67,7.67,0,0,1,11.27,0l19,19a7.63,7.63,0,0,1,0,11.28l-19,19a7.56,7.56,0,0,1-11.27,0Z"/><path class="cls-1" d="M460.42,39.52a9.21,9.21,0,0,1,0-13.62L483.33,3a9.27,9.27,0,0,1,13.61,0L519.86,25.9a9.19,9.19,0,0,1,0,13.62L496.94,62.43c-4.05,4.06-9.55,4.06-13.61,0Z"/><path class="cls-1" d="M29.73,80.82h0a16.17,16.17,0,1,1,16.2-16.17,16.2,16.2,0,0,1-16.2,16.17M29.62,35A29.32,29.32,0,0,0,0,64.65v52a3.23,3.23,0,0,0,3.23,3.23H10.3a3.24,3.24,0,0,0,3.23-3.23V89.69a30.16,30.16,0,0,0,16.09,4.64A29.84,29.84,0,0,0,59.45,64.54,29.38,29.38,0,0,0,29.62,35"/><path class="cls-1" d="M414.24,49.21h0a16.16,16.16,0,1,1-16.07,16.26,16.18,16.18,0,0,1,16.07-16.26m.19,45.19A29.29,29.29,0,0,0,444,64.72l-.06-51.92a3.22,3.22,0,0,0-3.23-3.21h-7.07a3.24,3.24,0,0,0-3.23,3.22l0,26.91a30.14,30.14,0,0,0-16.08-4.63A29.83,29.83,0,0,0,384.58,64.9a29.37,29.37,0,0,0,29.85,29.5"/><path class="cls-1" d="M119.6,35h-7.08a3.23,3.23,0,0,0-3.23,3.22V64.62a16.2,16.2,0,1,1-32.39,0V38.18A3.21,3.21,0,0,0,73.68,35H66.61a3.23,3.23,0,0,0-3.23,3.22V64.62A29.83,29.83,0,0,0,93.21,94.4a30.17,30.17,0,0,0,16.08-4.62v.67a3.23,3.23,0,0,0,3.23,3.22h7.08a3.22,3.22,0,0,0,3.22-3.22V38.18A3.22,3.22,0,0,0,119.6,35"/><path class="cls-1" d="M156.36,35a29.7,29.7,0,0,0-16.08,4.59V38.9A3.22,3.22,0,0,0,137,35.69H130a3.22,3.22,0,0,0-3.23,3.21V91.19A3.23,3.23,0,0,0,130,94.4H137a3.23,3.23,0,0,0,3.24-3.21V64.12a16.2,16.2,0,0,1,32.4.61V91.19a3.22,3.22,0,0,0,3.23,3.21H183a3.22,3.22,0,0,0,3.22-3.21V64.73A29.84,29.84,0,0,0,156.36,35"/><path class="cls-1" d="M219.73,80.9a16,16,0,0,1-16.1-16V48.87h16a3.22,3.22,0,0,0,3.23-3.21V38.59a3.23,3.23,0,0,0-3.23-3.23h-16V29a3.23,3.23,0,0,0-3.22-3.23h-7.07A3.22,3.22,0,0,0,190.12,29V64.94A29.22,29.22,0,0,0,219.73,94.4,3.23,3.23,0,0,0,223,91.19V84.12a3.23,3.23,0,0,0-3.24-3.22"/><path class="cls-1" d="M254.73,80.86h0A16.22,16.22,0,1,1,271,64.64a16.27,16.27,0,0,1-16.24,16.22m-.11-46a29.47,29.47,0,0,0-29.69,29.88,29.8,29.8,0,0,0,59.6,0,29.93,29.93,0,0,0-29.91-29.88"/><path class="cls-1" d="M322.31,44.06v-6c0-1.75-.44-2.75-2.1-3A15.5,15.5,0,0,0,318.6,35a10.6,10.6,0,0,0-1.13,0,18.64,18.64,0,0,0-12.2,4.34,38.07,38.07,0,0,0-3.87,3.58V39.32a3.16,3.16,0,0,0-3.19-3.18l-6.38,0a3.32,3.32,0,0,0-3.38,3.2V91.16a3.31,3.31,0,0,0,3.24,3.24h7.09a3.18,3.18,0,0,0,3.16-3.24V61.07a13.45,13.45,0,0,1,4-9.65c2.66-2.77,6.41-4.12,11.45-4.12.6,0,1.15.06,1.67,0a3,3,0,0,0,1.95-.59,3.13,3.13,0,0,0,1.28-2.69"/><path class="cls-1" d="M351.79,45.21h0c6.11,0,10.36,1.94,12.93,6a19.13,19.13,0,0,1,2.58,7.57h-31a14.52,14.52,0,0,1,4.6-9.38,15.18,15.18,0,0,1,10.93-4.16m23.67-.13a24.1,24.1,0,0,0-9.82-7.4,32.6,32.6,0,0,0-13.21-2.81c-8.95,0-16.31,2.86-21.89,8.51s-8.33,13-8.33,21.93c0,9.11,2.8,16.3,8.33,21.41a28.93,28.93,0,0,0,20.28,7.68,41.56,41.56,0,0,0,8.69-.83,25.62,25.62,0,0,0,17.5-12,19.75,19.75,0,0,0,2.53-5.67,2.18,2.18,0,0,0-2.3-2.78H369.3a2.69,2.69,0,0,0-2.58,2,13.08,13.08,0,0,1-3.11,4.75c-3,2.91-6.85,4.32-11.87,4.32-5.37,0-9.19-1.47-11.68-4.51-2.35-2.84-3.7-6.61-4-11.24H377.7a3.42,3.42,0,0,0,3-3.26c0-5.58-.31-7.53-.93-10.07a23.68,23.68,0,0,0-4.33-10"/><path class="cls-1" d="M151.24,114.73a1.82,1.82,0,0,1,.55,1.36,1.74,1.74,0,0,1-.55,1.34,2,2,0,0,1-1.43.5h-5.07v16.95a1.81,1.81,0,0,1-.62,1.4,2.14,2.14,0,0,1-1.52.57,2,2,0,0,1-1.48-.57,1.86,1.86,0,0,1-.59-1.4V117.93h-5.07a2,2,0,0,1-1.43-.51,1.82,1.82,0,0,1-.55-1.36,1.72,1.72,0,0,1,.57-1.33,2,2,0,0,1,1.41-.52h14.35a2,2,0,0,1,1.43.52"/><path class="cls-1" d="M165.89,129.06a2.09,2.09,0,0,1-1.36.48H153.86a4.87,4.87,0,0,0,1.77,3,5,5,0,0,0,3.14,1.09,6.69,6.69,0,0,0,2.07-.25,5.37,5.37,0,0,0,1.18-.51c.29-.19.49-.31.6-.37a2.4,2.4,0,0,1,1.1-.3,1.6,1.6,0,0,1,1.16.49,1.52,1.52,0,0,1,.49,1.13,2,2,0,0,1-.91,1.59,7.92,7.92,0,0,1-2.42,1.26,9.64,9.64,0,0,1-3.07.51,9.47,9.47,0,0,1-4.74-1.13,7.81,7.81,0,0,1-3.12-3.12,9,9,0,0,1-1.1-4.48,10,10,0,0,1,1.16-4.88,8.36,8.36,0,0,1,3.07-3.22,8,8,0,0,1,4.08-1.11,7.5,7.5,0,0,1,4,1.16,8.78,8.78,0,0,1,3,3.14,8.47,8.47,0,0,1,1.13,4.27,1.7,1.7,0,0,1-.61,1.26m-12-2.75h8.47v-.23a3.37,3.37,0,0,0-1.33-2.33,4.21,4.21,0,0,0-2.71-1q-3.75,0-4.43,3.53"/><path class="cls-1" d="M194.18,113.47a1.91,1.91,0,0,1,.55,1.42v20a1.9,1.9,0,0,1-.55,1.4,1.85,1.85,0,0,1-1.39.57,1.8,1.8,0,0,1-1.37-.55,2,2,0,0,1-.57-1.39,7,7,0,0,1-5.08,2.26,7.42,7.42,0,0,1-4-1.14,8.05,8.05,0,0,1-2.86-3.19,10,10,0,0,1-1.05-4.62,10.15,10.15,0,0,1,1-4.64,8,8,0,0,1,2.83-3.2,7.18,7.18,0,0,1,4-1.15,7.58,7.58,0,0,1,2.91.56,7.77,7.77,0,0,1,2.3,1.44v-6.34a1.92,1.92,0,0,1,.55-1.4,1.84,1.84,0,0,1,1.39-.57,1.88,1.88,0,0,1,1.39.55m-4.49,18.61a6.33,6.33,0,0,0,0-7.74,4.3,4.3,0,0,0-3.43-1.56,4.26,4.26,0,0,0-3.4,1.56,6.37,6.37,0,0,0,0,7.74,4.58,4.58,0,0,0,6.85,0"/><path class="cls-1" d="M214.33,119.78a1.93,1.93,0,0,1,.54,1.42v13.68a1.93,1.93,0,0,1-.54,1.4,1.88,1.88,0,0,1-1.4.57,1.82,1.82,0,0,1-1.37-.55,2,2,0,0,1-.57-1.39,6.5,6.5,0,0,1-2.18,1.6,6.61,6.61,0,0,1-2.89.66,7.4,7.4,0,0,1-4-1.14,8.08,8.08,0,0,1-2.87-3.19,10,10,0,0,1-1-4.62,10.15,10.15,0,0,1,1-4.64,7.88,7.88,0,0,1,2.83-3.2,7.13,7.13,0,0,1,4-1.15,7.68,7.68,0,0,1,5.2,2v0a2,2,0,0,1,.55-1.41,2,2,0,0,1,2.79,0m-4.5,12.3a6.3,6.3,0,0,0,0-7.74,4.29,4.29,0,0,0-3.43-1.56,4.24,4.24,0,0,0-3.39,1.56,6.33,6.33,0,0,0,0,7.74,4.25,4.25,0,0,0,3.41,1.54,4.3,4.3,0,0,0,3.43-1.54"/><path class="cls-1" d="M243.46,121.18a10.16,10.16,0,0,1,1.23,5.42v8.28a1.94,1.94,0,0,1-.55,1.4,2,2,0,0,1-2.78,0,1.9,1.9,0,0,1-.55-1.4V126.6a4.88,4.88,0,0,0-.7-2.8,2.73,2.73,0,0,0-2.44-1,3.71,3.71,0,0,0-2.83,1.09,3.82,3.82,0,0,0-1,2.73v8.28a1.9,1.9,0,0,1-.55,1.4,2,2,0,0,1-2.78,0,1.94,1.94,0,0,1-.55-1.4V126.6a5,5,0,0,0-.69-2.8,2.75,2.75,0,0,0-2.44-1,3.71,3.71,0,0,0-2.83,1.09,3.82,3.82,0,0,0-1,2.73v8.28a1.94,1.94,0,0,1-.55,1.4,2,2,0,0,1-2.78,0,1.9,1.9,0,0,1-.55-1.4V121.52a1.9,1.9,0,0,1,.55-1.4,2,2,0,0,1,2.78,0,1.94,1.94,0,0,1,.55,1.4V122a8,8,0,0,1,2.21-2,5.6,5.6,0,0,1,3-.82c2.72,0,4.45,1.18,5.21,3.55a7.71,7.71,0,0,1,2.25-2.45,5.58,5.58,0,0,1,3.41-1.1q3.19,0,4.43,2"/><path class="cls-1" d="M264.35,132.86a8.19,8.19,0,0,1-3.19,3.18,9.33,9.33,0,0,1-8.9,0,8.14,8.14,0,0,1-3.17-3.18,9.79,9.79,0,0,1,0-9.28,8.26,8.26,0,0,1,3.17-3.2,9.18,9.18,0,0,1,8.9,0,8.31,8.31,0,0,1,3.19,3.2,9.86,9.86,0,0,1,0,9.28M261,125.39a5,5,0,0,0-1.78-1.93,4.84,4.84,0,0,0-4.95,0,4.94,4.94,0,0,0-1.77,1.93,5.83,5.83,0,0,0-.67,2.83,5.75,5.75,0,0,0,.67,2.81,4.88,4.88,0,0,0,1.77,1.91,4.84,4.84,0,0,0,4.95,0A4.9,4.9,0,0,0,261,131a5.86,5.86,0,0,0,.66-2.81,5.94,5.94,0,0,0-.66-2.83"/><path class="cls-1" d="M267.45,133.2a1.71,1.71,0,0,1,.84-1.43,1.78,1.78,0,0,1,.94-.29,1.85,1.85,0,0,1,1.3.62,6.62,6.62,0,0,0,2,1.48,5.89,5.89,0,0,0,2.53.49c1.69-.06,2.53-.7,2.53-1.91a1.55,1.55,0,0,0-.86-1.42,12,12,0,0,0-2.67-1,22.6,22.6,0,0,1-3.05-1,5.32,5.32,0,0,1-2-1.56,4.36,4.36,0,0,1-.86-2.83,4.28,4.28,0,0,1,.89-2.7,5.79,5.79,0,0,1,2.33-1.78,7.54,7.54,0,0,1,3-.63,9.34,9.34,0,0,1,3.3.61,5.83,5.83,0,0,1,2.59,1.81,1.83,1.83,0,0,1,.42,1.17,1.51,1.51,0,0,1-.61,1.23,1.69,1.69,0,0,1-1,.35,1.58,1.58,0,0,1-1.16-.45,4,4,0,0,0-1.51-1.13,5,5,0,0,0-2.08-.42c-1.64,0-2.46.59-2.46,1.78a1.51,1.51,0,0,0,.45,1.14,3.11,3.11,0,0,0,1.15.68c.46.16,1.12.36,2,.6a22,22,0,0,1,2.91,1,5.11,5.11,0,0,1,2,1.59,4.53,4.53,0,0,1,.81,2.81,4.3,4.3,0,0,1-.94,2.77,6,6,0,0,1-2.41,1.79,7.76,7.76,0,0,1-3,.61,10.86,10.86,0,0,1-4-.71,6.63,6.63,0,0,1-3-2.29,1.62,1.62,0,0,1-.29-1"/><path class="cls-1" d="M317.77,121.18A10.16,10.16,0,0,1,319,126.6v8.28a1.94,1.94,0,0,1-.55,1.4,2,2,0,0,1-2.78,0,1.9,1.9,0,0,1-.55-1.4V126.6a5,5,0,0,0-.7-2.8,2.74,2.74,0,0,0-2.44-1,3.71,3.71,0,0,0-2.83,1.09,3.82,3.82,0,0,0-1,2.73v8.28a1.9,1.9,0,0,1-.55,1.4,2,2,0,0,1-2.78,0,1.9,1.9,0,0,1-.55-1.4V126.6a5,5,0,0,0-.69-2.8,2.76,2.76,0,0,0-2.45-1,3.72,3.72,0,0,0-2.83,1.09,3.85,3.85,0,0,0-1,2.73v8.28a1.94,1.94,0,0,1-.55,1.4,1.85,1.85,0,0,1-1.39.57,1.82,1.82,0,0,1-1.39-.57,1.9,1.9,0,0,1-.55-1.4V121.52a1.9,1.9,0,0,1,.55-1.4,1.82,1.82,0,0,1,1.39-.57,1.85,1.85,0,0,1,1.39.57,1.94,1.94,0,0,1,.55,1.4V122a8,8,0,0,1,2.21-2,5.6,5.6,0,0,1,3-.82c2.72,0,4.45,1.18,5.21,3.55a7.48,7.48,0,0,1,2.25-2.45,5.58,5.58,0,0,1,3.41-1.1q3.2,0,4.43,2"/><path class="cls-1" d="M338.59,119.78a1.9,1.9,0,0,1,.55,1.42v13.68a1.9,1.9,0,0,1-.55,1.4,1.85,1.85,0,0,1-1.39.57,1.8,1.8,0,0,1-1.37-.55,2,2,0,0,1-.57-1.39,6.5,6.5,0,0,1-2.18,1.6,6.62,6.62,0,0,1-2.9.66,7.45,7.45,0,0,1-4-1.14,8.13,8.13,0,0,1-2.86-3.19,10,10,0,0,1-1-4.62,10.15,10.15,0,0,1,1-4.64,7.93,7.93,0,0,1,2.82-3.2,7.19,7.19,0,0,1,4-1.15,7.68,7.68,0,0,1,5.2,2v0a1.94,1.94,0,0,1,.55-1.41,2,2,0,0,1,2.78,0m-4.49,12.3a6.33,6.33,0,0,0,0-7.74,4.52,4.52,0,0,0-6.83,0,6.35,6.35,0,0,0,0,7.74,4.25,4.25,0,0,0,3.41,1.54,4.32,4.32,0,0,0,3.43-1.54m-3.77-13.92a.85.85,0,0,1-.34-.78,1.3,1.3,0,0,1,.19-.61l1.88-3.3a3.19,3.19,0,0,1,.78-.94,1.6,1.6,0,0,1,1-.35,1.75,1.75,0,0,1,1.31.45,1.51,1.51,0,0,1,.4,1.17,2.51,2.51,0,0,1-.61,1.39l-2.46,2.71a1.88,1.88,0,0,1-1.45.55,1.19,1.19,0,0,1-.7-.29"/><path class="cls-1" d="M342.05,133.2a1.71,1.71,0,0,1,.84-1.43,1.78,1.78,0,0,1,.94-.29,1.83,1.83,0,0,1,1.29.62,6.66,6.66,0,0,0,2,1.48,5.89,5.89,0,0,0,2.53.49c1.69-.06,2.53-.7,2.53-1.91a1.55,1.55,0,0,0-.86-1.42,12,12,0,0,0-2.67-1,22.6,22.6,0,0,1-3.05-1,5.32,5.32,0,0,1-2-1.56,4.36,4.36,0,0,1-.86-2.83,4.28,4.28,0,0,1,.89-2.7,5.79,5.79,0,0,1,2.33-1.78,7.54,7.54,0,0,1,3.05-.63,9.38,9.38,0,0,1,3.3.61,5.83,5.83,0,0,1,2.59,1.81,1.83,1.83,0,0,1,.42,1.17,1.51,1.51,0,0,1-.61,1.23,1.69,1.69,0,0,1-1,.35,1.58,1.58,0,0,1-1.16-.45,4,4,0,0,0-1.51-1.13,5,5,0,0,0-2.08-.42c-1.64,0-2.46.59-2.46,1.78a1.51,1.51,0,0,0,.45,1.14,3.11,3.11,0,0,0,1.15.68c.46.16,1.12.36,2,.6a22,22,0,0,1,2.91,1,5.11,5.11,0,0,1,2,1.59,4.53,4.53,0,0,1,.81,2.81,4.3,4.3,0,0,1-.94,2.77,6,6,0,0,1-2.41,1.79,7.76,7.76,0,0,1-3,.61,10.86,10.86,0,0,1-4-.71,6.63,6.63,0,0,1-3-2.29,1.62,1.62,0,0,1-.29-1"/></g></g></svg>