<svg xmlns="http://www.w3.org/2000/svg" viewBox="0 0 273.63 118.67"><defs><style>.cls-1{fill:#fff;}</style></defs><g id="Capa_2" data-name="Capa 2"><g id="Capa_1-2" data-name="Capa 1"><g id="yhDLLj"><path class="cls-1" d="M39.45,116c-2.59.24-37.84,0-39.45-.25a23.79,23.79,0,0,0,3.45-2.83,15.23,15.23,0,0,0,3.71-6.09q15.47-48.52,31-97c1.09-3.41.84-6.46-2-9,.46-.46.89-.29,1.26-.28Q63,.68,88.51.81A41.3,41.3,0,0,1,102.8,3.42C115.09,8,120.72,18,118.1,30.87c-4.31,21.16-17.5,33.85-38,39.34a84.56,84.56,0,0,1-29.84,2.41c-1.74-.16-2.57.19-3.14,2q-5,16-10.23,31.95C35.62,110.29,36.14,113.35,39.45,116Zm34-106.7a35,35,0,0,1-3.51,0c-1.46-.18-2,.45-2.46,1.8-1.23,4.15-2.61,8.26-3.93,12.39C59.39,36.3,55.31,49.14,51.14,62c-.5,1.55-.18,2.19,1.39,2.28.36,0,.71.07,1.06.1C62.44,65,70,62.1,75.77,55.44,84.11,45.8,88,34.31,88.11,21.66,88.18,15.79,85,11.73,80,10.12A20,20,0,0,0,73.4,9.32Z"/><path class="cls-1" d="M226.09,57.76l42.67.2c-.08.53-.51.53-.8.67a15.26,15.26,0,0,0-7.85,9.46c-4.22,13.34-8.55,26.66-12.79,40a3.63,3.63,0,0,1-2.17,2.5c-11.88,5.33-24.27,8.38-37.35,8.06A58.63,58.63,0,0,1,186.26,114c-10.25-4.33-16-12.35-18.71-22.76-3.23-12.48-2.28-24.93,1.39-37.12,8.89-29.5,28.78-47.09,59-52.78C243-1.54,258,.54,272.59,5c1,.31,1.23.73.88,1.75-1.33,3.94-2.62,7.9-3.82,11.88-.42,1.41-.77,1.66-2,.64a42.6,42.6,0,0,0-17.54-9c-10.07-2.3-18.93.46-26.87,6.66-8.13,6.34-13.83,14.63-18.39,23.72a120.11,120.11,0,0,0-12,42.18,37.13,37.13,0,0,0,1.24,14.63c2.94,9.63,10.53,13,19.16,12.6,3.08-.14,4.36-1.41,5.23-4.3q5.46-18,11.43-35.82C231.54,65,231.37,60.93,226.09,57.76Z"/><path class="cls-1" d="M146.22,76.37c4.24,0,8.06.14,11.87,0,1.74,0,2.11.57,1.87,2.13a32.88,32.88,0,0,1-6.74,16,42.75,42.75,0,0,1-3,3.46c-.86.87-.8,1.47,0,2.32a74.71,74.71,0,0,0,14.33,10.74,75,75,0,0,0,11.31,5.63c-.89.07-1.3.12-1.71.12-7.92,0-15.85-.09-23.77-.08a5.32,5.32,0,0,1-3.26-1,72.11,72.11,0,0,1-7.76-6.62,1.8,1.8,0,0,0-2.7-.2c-6.47,4.26-13.35,7.6-21.08,8.89a32,32,0,0,1-17.47-1.68A21.69,21.69,0,0,1,84.83,93.7c.88-9.6,6.12-16.08,13.9-21a69.74,69.74,0,0,1,16.44-7.06c1.79-.56,2.4-1.4,2.35-3.36A42.49,42.49,0,0,1,122,41c5.44-10.41,18.16-16,29.07-12.81,6.44,1.88,10.39,6.25,11,12.45a14,14,0,0,1-2.35,8.84c-2.9,4.74-7.19,8-11.86,10.78a110.81,110.81,0,0,1-12.45,6.17A2.16,2.16,0,0,0,134,69.29c1.52,8.1,5.13,15.27,9.7,22,.67,1,1.12.77,1.66-.07a18.71,18.71,0,0,0,3.17-10.08A6.8,6.8,0,0,0,146.22,76.37ZM116.11,107c5.17-.15,10.25-2,15.15-4.53,1-.52.82-1,.28-1.78a74.29,74.29,0,0,1-5.6-9.14,83.82,83.82,0,0,1-6.6-16.44c-.2-.73-.28-1.67-1.42-1.1-6.26,3.12-11.86,7-14.78,13.7C98.8,97.56,104.92,106.87,116.11,107Zm16.14-52c0,.76,0,1.52,0,2.28,0,.18,0,.35,0,.53.09,1.74.37,1.92,1.83.95a41.3,41.3,0,0,0,13.41-13.91,13.37,13.37,0,0,0,2-6.12c.17-4.51-3-6.64-7.16-4.85a12.48,12.48,0,0,0-5.45,4.82C133.52,43.62,132.3,49.15,132.25,55Z"/></g></g></g></svg>