<svg xmlns="http://www.w3.org/2000/svg" viewBox="0 0 459.71 151.24"><defs><style>.cls-1{fill:#fff;}</style></defs><g id="Capa_2" data-name="Capa 2"><g id="Capa_1-2" data-name="Capa 1"><g id="AccsN2"><path class="cls-1" d="M76.26,151.24a2.65,2.65,0,0,0-1.21-.16c-4.08-.07-8.16-.22-12.22-.57-11.86-1-23.5-3.06-34.57-7.62a55.61,55.61,0,0,1-16.91-10.42A34.09,34.09,0,0,1,1,115.5,35.45,35.45,0,0,1,0,107.83c0-1.86,0-3.74,0-5.61,0-1,0-1,1-1H19.29a7.51,7.51,0,0,1,6.13,3.2,16,16,0,0,1,3,6.6c.47,2.15,1.11,4.26,1.67,6.39A25.91,25.91,0,0,0,38,130a46.21,46.21,0,0,0,13.55,8.43,68,68,0,0,0,21.07,5,61,61,0,0,0,21.56-1.87,45.94,45.94,0,0,0,20.87-12,34.32,34.32,0,0,0,9.42-17.41,26.78,26.78,0,0,0,.59-4.89c0-.9,0-1.8,0-2.69V1.56A4.81,4.81,0,0,0,125,0H148.1c0,.52,0,1.05,0,1.57q0,51.71,0,103.42a40.18,40.18,0,0,1-2.35,14.29,38.53,38.53,0,0,1-13.07,17.17A62.16,62.16,0,0,1,114,146,98.54,98.54,0,0,1,95,150.11a130.1,130.1,0,0,1-13.53.95,3.37,3.37,0,0,0-1.44.18Z"/><path class="cls-1" d="M227.8,0q0,18,0,36c0,1,0,1,1,1.05,4.19,0,8.38,0,12.57,0a15.73,15.73,0,0,1,4.32.58,10.68,10.68,0,0,1,6.78,5.48,15,15,0,0,1,1.75,7.12q0,20.87,0,41.72c0,1,0,1.05-1,1.06-2.77,0-5.54-.06-8.31.06a9.56,9.56,0,0,1-2.44-.27,6.33,6.33,0,0,1-5.05-7.06c.09-1.19.1-2.38.1-3.58q0-15.75,0-31.52a7.85,7.85,0,0,0-.16-2.11A5,5,0,0,0,232,44.9a4.94,4.94,0,0,0-4.43,4.72c0,.45,0,.9,0,1.35q0,20.3,0,40.6c0,1.51.23,1.45-1.44,1.45h-15.6a.44.44,0,0,1-.49-.48c0-.27,0-.53,0-.79q0-45.31,0-90.63A3,3,0,0,1,210.06,0Z"/><path class="cls-1" d="M459.71,93.12a3,3,0,0,0-1.22-.1c-2.62,0-5.24-.06-7.85.06a9.65,9.65,0,0,1-2.78-.31A6.45,6.45,0,0,1,443,85.29a8.75,8.75,0,0,0,.12-1.44V50.64A7.78,7.78,0,0,0,443,49a5,5,0,0,0-9.93.66c0,.45,0,.9,0,1.35q0,20.13,0,40.27c0,1.67.23,1.46-1.51,1.46-4.23,0-8.46,0-12.68,0-.26,0-.53,0-.79,0-.44,0-.59-.2-.57-.61s0-.53,0-.79q0-26.41,0-52.84c0-1.64-.12-1.42,1.45-1.42q13.88,0,27.73,0a17,17,0,0,1,4.55.56A10.66,10.66,0,0,1,458,43.08a11.91,11.91,0,0,1,1.53,5,.73.73,0,0,0,.2.61Z"/><path class="cls-1" d="M156.2,65.46c0-4.45,0-8.9,0-13.35a14.46,14.46,0,0,1,1.84-7A12.55,12.55,0,0,1,163.62,40a26.07,26.07,0,0,1,9.11-2.63,59,59,0,0,1,16,.37,20.87,20.87,0,0,1,6.44,2.22,12.51,12.51,0,0,1,7,11.65c.05,8.67,0,17.35,0,26a15.17,15.17,0,0,1-.41,3.55A12.7,12.7,0,0,1,195.11,90a29.07,29.07,0,0,1-8.73,2.72,30.12,30.12,0,0,1-4.14.31,55.43,55.43,0,0,1-12.07-.54,21,21,0,0,1-8.09-3.14,12.46,12.46,0,0,1-5.88-11C156.22,74.05,156.2,69.75,156.2,65.46Zm18.13-.7h0c0,5.31,0,10.61,0,15.92a5,5,0,0,0,10,.23c0-.45,0-.9,0-1.35V50c0-.45,0-.9,0-1.34a5,5,0,0,0-4.46-4.58,5,5,0,0,0-5.28,3.47,6.16,6.16,0,0,0-.23,2Z"/><path class="cls-1" d="M408.52,64.2V77.88a14.36,14.36,0,0,1-1.2,5.78,12.27,12.27,0,0,1-5.23,6,27.56,27.56,0,0,1-9.32,3.06,19.37,19.37,0,0,1-3.13.28,81.72,81.72,0,0,1-9.52,0,28.19,28.19,0,0,1-8.81-2,18.46,18.46,0,0,1-3.76-2.21,12.12,12.12,0,0,1-5-10q0-13.39,0-26.8a13.73,13.73,0,0,1,1.61-6.35,12.16,12.16,0,0,1,4.59-5A25.09,25.09,0,0,1,378,37.49a59.75,59.75,0,0,1,14.76-.14,24.11,24.11,0,0,1,7.46,1.9,16.12,16.12,0,0,1,5.23,3.59,10.82,10.82,0,0,1,3.15,7.8c0,4.52,0,9,0,13.56Zm-27.84.42V79.75c0,.41,0,.82,0,1.23a5,5,0,0,0,9.79,1,7.45,7.45,0,0,0,.23-2q0-15.18,0-30.38a8.51,8.51,0,0,0-.1-1.33,5,5,0,0,0-4.72-4.2,5,5,0,0,0-5,3.58,6.32,6.32,0,0,0-.21,1.88Z"/><path class="cls-1" d="M262.34,64.84V38.7c0-.26,0-.53,0-.79,0-.83,0-.85.9-.85h29.29a14.32,14.32,0,0,1,3.56.47,10.87,10.87,0,0,1,7.34,6.09,15.41,15.41,0,0,1,1.5,6.73q0,20.82,0,41.63c0,1,0,1-1.08,1-2.73,0-5.46-.06-8.19.06a9.58,9.58,0,0,1-2.45-.25A6.42,6.42,0,0,1,288,86.76c-.07-.82,0-1.65,0-2.47q0-16.87,0-33.77a7.79,7.79,0,0,0-.08-1.45,5,5,0,0,0-5.28-4.19,5,5,0,0,0-4.67,4.76c0,.41,0,.82,0,1.23q0,20.25,0,40.5c0,1.49.17,1.34-1.29,1.35h-13c-.23,0-.45,0-.68,0-.45,0-.58-.21-.56-.62s0-.6,0-.9Z"/><path class="cls-1" d="M318.92,72.7c1.57,0,3.14,0,4.71,0A5.32,5.32,0,0,1,329,77.52c.1.78.08,1.57.11,2.35a8,8,0,0,0,.47,2.86,3.67,3.67,0,0,0,3.61,2.51,7.57,7.57,0,0,0,3-.39,3.67,3.67,0,0,0,2.51-3,13.8,13.8,0,0,0,.19-2.12c0-2.17,0-4.34,0-6.51a3.44,3.44,0,0,0-1.47-3,6.91,6.91,0,0,0-4.41-1.4c-1.87,0-3.74,0-5.61-.15a33.4,33.4,0,0,1-4.89-.65,13.16,13.16,0,0,1-7.32-4.5A9.1,9.1,0,0,1,313,57.33c0-2.62.05-5.24,0-7.85a10,10,0,0,1,3.78-8,14.64,14.64,0,0,1,5.94-3,39.94,39.94,0,0,1,20.08-.23A19,19,0,0,1,347.27,40a14.44,14.44,0,0,1,7.56,10.31,26.37,26.37,0,0,1,.5,5c0,.52-.16.73-.7.73-3.52,0-7,.06-10.56,0-2.82-.08-4.87-2.34-5.12-5.43,0-.52,0-1,0-1.57a5.37,5.37,0,0,0-.28-1.87,3.25,3.25,0,0,0-2.49-2.34,8.18,8.18,0,0,0-3.78,0,3.78,3.78,0,0,0-3.11,3.64c-.08.78-.11,1.57-.12,2.36,0,1.9,0,3.81,0,5.72A3.45,3.45,0,0,0,331,59.83,9.44,9.44,0,0,0,335.62,61a63.92,63.92,0,0,1,8.29.48,13.71,13.71,0,0,1,8.58,4.42,9.42,9.42,0,0,1,2.58,6.63c0,2.8,0,5.61,0,8.41a9.81,9.81,0,0,1-2.78,7,15,15,0,0,1-6.88,4,32,32,0,0,1-8,1.25,38.09,38.09,0,0,1-12.13-1,21.65,21.65,0,0,1-4.48-1.77A14.35,14.35,0,0,1,313.32,80a32.3,32.3,0,0,1-.32-6.59c0-.55.24-.7.75-.7C315.47,72.71,317.2,72.7,318.92,72.7Z"/><path class="cls-1" d="M83.18,58.05q0,9.48,0,19a6.64,6.64,0,0,0,.63,3,5.58,5.58,0,0,0,5.44,3.26c2.32,0,3.79-1.4,4.79-3.35a5.67,5.67,0,0,0,.44-2.52,22.29,22.29,0,0,1,.2-3.91,6.74,6.74,0,0,1,6.76-5.73c4.75-.06,9.5,0,14.25,0,.91,0,.91,0,.92,1,0,2.17,0,4.34.05,6.51a22.32,22.32,0,0,1-.79,5.64,9.78,9.78,0,0,1-1.79,3.35,18.39,18.39,0,0,1-8.53,6.13,38.72,38.72,0,0,1-12.48,2.5,79.53,79.53,0,0,1-11.55-.23,32.33,32.33,0,0,1-11.78-3.39,16.25,16.25,0,0,1-7.88-8.41,16.74,16.74,0,0,1-1.07-6.15V57.52c0-5,0-10-.14-14.92a28.78,28.78,0,0,1,.55-5.77c.65-4.06,3.07-6.8,6.27-9a27.17,27.17,0,0,1,10.28-4,62.82,62.82,0,0,1,16-.74,37.25,37.25,0,0,1,11.05,2.27,26.52,26.52,0,0,1,3.66,1.71,15.37,15.37,0,0,1,8,10.68,40.92,40.92,0,0,1,.46,7.81c0,.41-.13.65-.58.62-.19,0-.37,0-.56,0H102.26a9.44,9.44,0,0,1-3.4-.63,5.93,5.93,0,0,1-4.12-5.81A11.33,11.33,0,0,0,94.5,37a5.78,5.78,0,0,0-11.31,1.9C83.16,45.26,83.18,51.66,83.18,58.05Z"/><path class="cls-1" d="M46.08,46.73c-2,0-4,0-5.94,0a6.2,6.2,0,0,1-6.48-5.6,12.22,12.22,0,0,1-.13-2.9,4.87,4.87,0,0,0-4.33-5.57,15,15,0,0,0-2.12-.18,5.56,5.56,0,0,0-6,4.84,11.46,11.46,0,0,0-.24,2.11c0,2.77-.05,5.53,0,8.3A4.76,4.76,0,0,0,23.46,52a10.21,10.21,0,0,0,4.95,1.26c2.85,0,5.69.13,8.52.41a30.31,30.31,0,0,1,4.64.75,15.71,15.71,0,0,1,9.1,6.33,11.67,11.67,0,0,1,2.17,6.95v10.1a13.46,13.46,0,0,1-5.17,10.73,20.88,20.88,0,0,1-9,4.1,36.86,36.86,0,0,1-7.9.88,80.38,80.38,0,0,1-8.64-.19,30.1,30.1,0,0,1-11.38-3.13C5,87.09,1.81,82.21.86,75.8a55.3,55.3,0,0,1-.24-7.28c0-.62.26-.75.8-.75,4.23,0,8.46-.07,12.68,0a5.91,5.91,0,0,1,5.28,3.62,10,10,0,0,1,.88,4.36A12.52,12.52,0,0,0,20.51,79c0,.11,0,.22.07.33.82,2.75,2.34,4.22,5.65,4.28a9.06,9.06,0,0,0,2-.18,5.39,5.39,0,0,0,4.49-4.93,16.05,16.05,0,0,0,.21-2.68c0-2.32,0-4.64,0-7a5,5,0,0,0-3.18-4.95,11.68,11.68,0,0,0-5-1,89.18,89.18,0,0,1-9.52-.53A17.09,17.09,0,0,1,4.52,57.26a12.41,12.41,0,0,1-3.64-9c0-3.37,0-6.73,0-10.1A11.2,11.2,0,0,1,2.7,31.91a15.38,15.38,0,0,1,6.41-5.63,30.18,30.18,0,0,1,9.8-2.66A68,68,0,0,1,29.1,23.2a34.19,34.19,0,0,1,12.15,2.41,19,19,0,0,1,9.29,7.28,20.26,20.26,0,0,1,3,9.07,25.52,25.52,0,0,1,.18,3.81c-.05.89-.1.95-1,.95C50.5,46.74,48.29,46.73,46.08,46.73Z"/></g></g></g></svg>