<?xml version="1.0" encoding="UTF-8"?>
<svg width="400px" height="288px" viewBox="0 0 400 288" version="1.1" xmlns="http://www.w3.org/2000/svg" xmlns:xlink="http://www.w3.org/1999/xlink">
    <!-- Generator: Sketch 63.1 (92452) - https://sketch.com -->
    <title>Group</title>
    <desc>Created with Sketch.</desc>
    <g id="Page-1" stroke="none" stroke-width="1" fill="none" fill-rule="evenodd">
        <g id="Group" transform="translate(0.239973, 0.770000)" fill="#FFFFFF" fill-rule="nonzero">
            <path d="M8.85022466,45.8218623 C12.817836,41.2064777 18.1376741,37.562753 22.963585,37.562753 L29.9514392,37.562753 L29.9514392,64.9149798 L71.9352449,64.9149798 L71.9352449,77.3441296 C71.9352449,83.6842105 66.4048805,91.7165992 53.9190506,91.7165992 L29.9514392,91.7165992 L29.9514392,139.117409 C29.9514392,154.8583 36.8988077,161.052632 48.9311963,161.052632 C58.6963785,161.052632 66.1700627,159.716599 70.8745162,156.696356 L71.9352449,156.696356 L71.9352449,167.546559 C71.9352449,179.838057 62.9878765,187.732794 45.3846376,187.732794 C14.8745162,187.732794 0,171.125506 0,142.712551 L0,69.8866397 C-0.00807493479,58.0080972 2.19435422,53.5060729 8.85022466,45.8218623" id="Path"></path>
            <path d="M130.12148,187.51417 C106.615407,187.51417 93.7894959,174.202429 93.7894959,149.748988 L93.7894959,67.7246964 L102.477755,67.7246964 C115.781399,67.7246964 123.975731,74.9068826 123.975731,90.1862348 L123.975731,146.785425 C123.975731,159.004049 129.166014,162.769231 142.396783,162.769231 L148.032411,162.769231 L148.032411,169.295547 C148.024314,182.348178 142.850225,187.51417 130.12148,187.51417 M108.574921,56.4534413 C98.9473907,56.4534413 91.1417226,48.3805668 91.1417226,38.6639676 C91.1417226,28.9230769 98.9473907,21.1659919 108.574921,21.1659919 C118.251034,21.1659919 126.437269,28.9230769 126.437269,38.6639676 C126.437269,48.388664 118.251034,56.4534413 108.574921,56.4534413" id="Shape"></path>
            <path d="M281.935245,127.951417 C281.935245,159.991903 302.809739,189.117409 339.279374,189.117409 C378.356298,189.117409 399.295569,160 399.295569,123.700405 C399.295569,91.5384615 378.356298,62.3319821 341.935245,62.3319821 C302.809739,62.3238866 281.935245,91.5384615 281.935245,127.951417 M368.089091,127.951417 C368.089091,147.757085 359.538484,162.105263 341.943342,162.105263 C322.056702,162.105263 313.222694,147.748988 313.222694,123.700405 C313.222694,103.619433 322.056702,89.2145715 339.295569,89.2145715 C359.068848,89.2064777 368.089091,103.619433 368.089091,127.951417" id="Shape"></path>
            <path d="M287.781399,36.2024291 C287.781399,32.7611336 289.465609,27.3441296 291.838079,23.51417 C298.226743,13.2388664 318.583018,0 341.246986,0 C363.554678,0 382.518241,10.4291498 391.870468,22.7530364 C394.60731,26.3481781 396.591115,32.7692308 396.591115,36.7206478 L396.591115,49.4412955 L395.991925,49.4412955 C384.299617,35.417004 367.846176,23.8947368 343.668038,23.8947368 C317.441318,23.8947368 298.226743,35.5384615 288.388686,49.4089069 L287.781399,49.4089069 L287.781399,36.2024291 Z" id="Path"></path>
            <path d="M352.866419,210.777328 L351.991925,210.777328 C337.230791,233.789474 308.388686,253.40081 268.696379,253.40081 C232.210549,253.40081 207.360346,234.080972 189.773302,210.663968 L188.866419,210.663968 L188.866419,225.838057 C188.866419,232.364372 191.797593,243.004049 195.935245,249.02834 C209.943342,269.595142 238.60731,286.825911 272.299617,286.825911 C306.445366,286.825911 337.222694,264.97166 346.785447,247.692308 C350.153868,241.392713 352.858322,232.364372 352.858322,226.550607 L352.858322,210.777328 L352.866419,210.777328 Z" id="Path"></path>
            <path d="M253.14982,127.651822 L237.036459,127.651822 L237.668038,130.461538 C237.781399,130.493927 239.570872,138.412955 239.570872,147.538462 L239.570872,157.295547 C239.570872,162.105263 238.55063,166.510121 226.380589,166.510121 C208.809739,166.510121 187.773302,159.417004 187.773302,126.137652 C187.773302,105.02834 204.202451,89.5465587 226.623504,89.5465587 C240.850225,89.5465587 254.3482,93.3522267 262.000022,99.3684211 L262.583018,99.8380567 L266.574921,99.8380567 L266.574921,89.3360324 C266.574921,76.6639676 255.004071,63.1578947 229.684233,63.1578947 C186.712573,63.1578947 156.623504,90.4939271 156.623504,129.546559 C156.623504,171.198381 190.251034,192.898785 223.400832,192.898785 C253.80569,192.898785 268.583018,182.226721 268.583018,160.37247 L268.583018,141.060729 C268.583018,134.129555 261.198403,127.651822 253.14982,127.651822" id="Path"></path>
        </g>
    </g>
</svg>