<svg xmlns="http://www.w3.org/2000/svg" viewBox="0 0 362.71 122.9"><defs><style>.cls-1{fill:#fff;}</style></defs><g id="Capa_2" data-name="Capa 2"><g id="Capa_1-2" data-name="Capa 1"><g id="E3j3Hi"><path class="cls-1" d="M273.64,22.54c-3.67-.38-6.38-.51-8.79.64a7.62,7.62,0,0,0-4.45,6.08c-2.51,17.08-5,34.17-7.72,51.23-1.5,9.6-2.9,19.24-5.58,28.6-1.08,3.77-3,6.64-7.45,7.94-5.54,1.62-10.79-2.22-12.22-6.92-1.5-4.93,0-9.78.66-14.6,2.86-19.72,7.84-39,12.42-58.34a22.33,22.33,0,0,0,.45-6.48c-.19-2.9-2-5.26-4.79-5.42-6-.34-12.06-.59-17.87,1.85a9.51,9.51,0,0,0-5.74,6.74c-2.19,7.76-2.39,15.82-3.17,23.76-1.6,16.28-3.07,32.57-5.22,48.79-.84,6.36-4,11.33-9.94,14.26-3.07,1.51-6.34,2-9.13,0-3-2.12-4.79-5.14-4-9.2,4.87-25,8-50.38,12.45-75.49.8-4.52-1-6.27-5.65-5.1-4,1-8,1.75-12.08,2.49-6.61,1.21-11.22-.59-12.53-5.2-1.71-6,1.9-12.74,7.67-15.11,7.87-3.22,16.27-3.67,24.49-4.52,15.29-1.59,30.6-3.08,46-4,9.08-.56,18.34-1.08,27.17-2.95A88.41,88.41,0,0,1,284.6,0c6.17-.18,11.26,7.68,9.24,13.55C292,18.9,288,21.3,282.88,22,279.5,22.51,276,22.42,273.64,22.54Z"/><path class="cls-1" d="M362.54,53.78c-.16,17.35-6.76,30.11-15.27,42.05a50.8,50.8,0,0,1-18.49,16.39c-6.15,3.11-12.61,3.41-18.54.65-16.73-7.77-26.27-21.3-29.62-39.34-2.08-11.21,2.09-21,7.32-30.31,6-10.66,13.72-19.95,24.32-26.4,5.84-3.55,11.88-5,18.9-2.58,13.43,4.57,22.34,13.69,28.31,26.09C361.81,45.21,363.21,50.39,362.54,53.78Zm-17.31,6c-.55-10-4.92-17.08-12.85-22-7.58-4.66-13.35-4.11-20.08,1.57a50.2,50.2,0,0,0-8.53,9.81c-9.19,13.14-7.69,27.39,4,38.34,6.54,6.1,14,7.43,20.22,2.84C338.43,82.71,343.94,72.12,345.23,59.78Z"/><path class="cls-1" d="M54,7.77c13-.46,26.07-1.2,39.11-.71,3.29.12,6.6.05,8.45,3.85,2.27,4.64-.5,10.92-5.51,12.25-7.91,2.1-16,2.31-24.11,2.85-11.78.78-11,1.34-12.53,11C55.72,60,51.84,82.86,48.16,105.77c-.58,3.63-.74,7.31-2.87,10.46-4.82,7.09-13.39,9.66-19.71,2a8.65,8.65,0,0,1-1.77-7.72C28.1,90.42,32.5,70.32,37.34,50.33c1.32-5.44,2.32-11,3.89-16.35.92-3.19-1.56-5.6-5.25-5.06-9.14,1.32-18.26,2.74-27.39,4.18-4.52.71-9.91-5.14-8.3-9.57,2-5.41,2.86-7.82,9.78-8.92,7.31-1.16,14.55-2.88,21.87-4S46.63,8.68,54,7.77Z"/><path class="cls-1" d="M107,30.4a9.26,9.26,0,0,1,3.16-2.64c2.14-1.26,4.32-2.5,6.43-3.82,1.67-1.05,4.11-.54,5.24-2.64l3.08-.42c3.33.48,6.59,1.36,9.88,2.12,2.94.68,5,3.25,8.13,3.27,1.53,1.59,3.81,2.22,5.13,4.06,0,.13,0,.26.07.4l.35-.2A43.4,43.4,0,0,1,159.9,44.7c-.05.13-.11.25-.16.38l.41-.06c.59,1.29,1.18,2.58,1.76,3.87-.07.06-.2.11-.2.18a.35.35,0,0,0,.14.27s.16-.05.25-.08A11.64,11.64,0,0,1,163.48,54l-.28,0c0,.11-.07.26,0,.32.41.52-.07,1.53.93,1.71.19.92.38,1.85.58,2.77-.51,0-.24.37-.23.58s.22.13.34.2a22.5,22.5,0,0,1,0,7,1.84,1.84,0,0,0-.22-.17c0,.1-.15.21-.13.3.14.55-.47,1.2.23,1.67l-.54,3a2.62,2.62,0,0,0-.22-.25c-.07.09-.2.17-.2.26,0,1.08-.95,2-.36,3.19q-.63,2.53-1.25,5l-.19-.24c-.08.08-.23.14-.24.22,0,.65-.84,1.16-.36,1.91-.59,3-2.07,5.56-3.29,8.27l-.38,0,.18.36c-1.33,2.39-2.65,4.79-4,7.18l-.38,0c0,.12.09.24.14.37a46,46,0,0,1-6.1,8.73c-.78.28-.93.53-.86,1.43l-4,3.71c-.36-.12-.46,0-.35.35L140.16,114c-1.19-.27-1.6.37-1.64,1.44l-1.88,1.26c-.17-.06-.41-.21-.51-.15-11.22,7.82-18.55,7.72-30.09.35a50.76,50.76,0,0,1-15.29-15.77C83,89.15,80.53,76.3,85.3,62.4c.8-2.33,2.51-4.33,2.55-6.93,3.71-7.3,8-14.16,13.89-20l.41-.16-.19-.19a5.54,5.54,0,0,1,2.39-2.6l.41.19c0-.15-.05-.3-.08-.45l1.86-1.69C106.86,30.92,107,30.86,107,30.4Zm18.69,11.91a12.73,12.73,0,0,0-7.5,2.12c-5.73,3.46-9.82,8.46-13.26,14.06-3,4.93-5.73,10.18-5.3,16,.86,11.71,6.79,20.49,17.28,25.75a11.48,11.48,0,0,0,11.46-.52c8.22-4.81,13.27-12.08,16.78-20.55,3.6-8.67,4-17.35-1.75-25.43C139,47.65,133.64,42.87,125.65,42.31Z"/></g></g></g></svg>