<?xml version="1.0" encoding="UTF-8"?>
<svg width="401px" height="242px" viewBox="0 0 401 242" version="1.1" xmlns="http://www.w3.org/2000/svg" xmlns:xlink="http://www.w3.org/1999/xlink">
    <!-- Generator: Sketch 63.1 (92452) - https://sketch.com -->
    <title>Group 2</title>
    <desc>Created with Sketch.</desc>
    <g id="Page-1" stroke="none" stroke-width="1" fill="none" fill-rule="evenodd">
        <g id="Group-2" transform="translate(0.360000, 0.790000)" fill="#FFFFFF" fill-rule="nonzero">
            <path d="M240.393321,118.144712 C249.981447,118.849722 253.038961,108.927644 253.565863,101.521336 C254.226345,92.1855288 250.701299,83.8886827 242.241187,82.7903525 C232.96475,81.877551 229.157699,90.1595547 228.853432,99.3766234 C228.586271,107.732839 231.191095,117.61039 240.393321,118.144712 Z" id="Path"></path>
            <path d="M199.866419,0 C89.4768089,0 4.21843554e-14,50.1521336 4.21843554e-14,112.022263 C4.21843554e-14,157.313544 47.9480519,196.319109 116.949907,213.974026 C139.703154,230.530612 168.326531,240.415584 199.376623,240.415584 C230.189239,240.415584 258.597403,230.686456 281.269017,214.352505 C351.079777,196.883117 399.732839,157.640074 399.732839,112.014842 C399.732839,50.1521336 310.25603,0 199.866419,0 L199.866419,0 Z M196.393321,233.016698 C150.552876,231.384045 106.70872,206.879406 88.7866419,154.367347 C88.6753247,154.040816 87.6363636,153.150278 86.7458256,153.773655 C82.2931354,156.868275 80.1187384,159.784787 80.1187384,159.784787 C78.4415584,162.248609 77.1205937,161.87013 77.1710606,158.931354 C77.1710606,158.931354 77.3061224,151.584416 85.6474954,147.346939 C93.9962894,143.109462 103.717996,146.307978 103.717996,146.307978 C106.634508,147.265306 106.493506,148.19295 103.42115,148.363636 C103.42115,148.363636 99.257885,148.586271 94.3673469,150.181818 C92.7050093,150.723562 93.380334,151.970315 93.5139147,152.25974 C101.476809,169.55102 118.879406,214.530612 196.118738,218.886827 C272.667904,223.183673 299.844156,170.211503 309.061224,152.044527 C309.41744,150.983302 308.059369,150.382189 307.465677,150.189239 C302.575139,148.608534 298.411874,148.371058 298.411874,148.371058 C295.332096,148.200371 295.198516,147.272727 298.115028,146.315399 C298.115028,146.315399 307.836735,143.116883 316.185529,147.35436 C324.526902,151.591837 324.661956,158.938776 324.661956,158.938776 C324.71243,161.877551 323.384045,162.263451 321.714286,159.792208 C321.714286,159.792208 319.636364,156.742115 315.087199,153.781076 C314.671614,153.506494 313.692022,152.83859 313.246753,153.424861 C292.734694,208.890538 242.946197,234.649351 196.393321,233.016698 L196.393321,233.016698 Z M128.014842,124.304267 C128.682746,129.632653 125.922078,133.558442 120.949907,134.166976 C115.985158,134.782931 112.311688,131.725417 111.532468,126.538033 C110.404453,119.03525 109.276438,111.532468 108.148423,104.029685 C99.3988868,93.4545455 90.5528757,83.3840445 81.7217069,73.9666048 C80.6604824,72.8756957 79.7699443,71.5250464 79.4879406,69.9888683 C78.4415584,64.2745826 83.3766234,60.6827458 86.7458256,59.7328386 C90.864564,58.567718 93.0612245,59.7402597 95.4211503,62.6493506 C95.3988868,62.5454545 104.19295,73.6697588 109.48423,80.3710575 C112.155844,83.755102 116.675325,82.174397 117.914657,78.9239332 C121.090909,70.5751391 126.545455,56.2671614 126.560297,56.2523191 C128.230056,51.9777365 130.107607,50.32282 133.966605,49.7588126 C137.365492,49.2541744 143.398887,50.6270872 143.977737,56.8460111 C144.133581,58.5157699 143.6141,60.2523191 142.849722,61.7959184 C136.623377,75.0055659 130.723562,88.2226345 125.128015,101.306122 C126.085343,108.96475 127.057514,116.638219 128.014842,124.304267 L128.014842,124.304267 Z M186.033395,75.9628942 C185.892393,71.5918367 187.569573,67.6957328 194.025974,67.6660482 C200.467532,67.6660482 202.300557,71.5621521 202.330241,75.9257885 C202.434137,91.0204082 202.545455,106.115028 202.657272,121.202226 C202.693878,126.152134 200.667904,129.380334 195.940631,129.402597 C191.220779,129.432282 189.068646,126.211503 188.920223,121.261596 C188.897959,120.549165 188.875696,119.836735 188.860853,119.124304 C188.794063,119.124304 188.719852,119.124304 188.653061,119.124304 C184.586271,125.269017 179.302412,129.647495 170.805195,130.003711 C161.80334,130.367347 151.606679,126.174397 150.12987,109.795918 C149.187384,99.2949907 148.244898,88.7940631 147.294991,78.2931354 C146.90167,73.9814471 148.333952,69.9814471 154.693878,69.4025974 C161.068646,68.8534323 163.124304,72.5714286 163.413729,76.9276438 C164.044527,86.4341373 164.667904,95.9406308 165.298701,105.454545 C165.729128,112.059369 169.076067,116.564007 175.658627,116.311688 C181.001855,116.103896 187.146568,111.265306 186.886827,103.057514 C186.612245,94.0408163 186.32282,85.0018553 186.033395,75.9628942 L186.033395,75.9628942 Z M229.09833,79.2207792 C231.992579,72.5120594 238.701299,69.7142857 246.552876,70.6419295 C260.007421,72.2523191 270.604824,83.9257885 268.734694,104.014842 C267.346939,118.931354 259.03525,131.992579 243.495362,130.953618 C236.71243,130.486085 231.74026,127.250464 229.150278,121.884972 C229.083488,121.877551 229.016698,121.877551 228.949907,121.877551 C228.705009,129.09833 228.460111,136.319109 228.222635,143.539889 C228.037106,148.868275 225.090909,151.54731 220.749536,151.443414 C216.400742,151.339518 213.558442,148.504638 213.617811,143.131725 C213.847866,120.697588 214.077922,98.2634508 214.32282,75.8293135 C214.374768,70.7977737 216.779221,68.1855288 221.833024,68.4823748 C226.656772,68.7717996 229.142857,71.6586271 228.979592,76.6530612 C228.949907,77.5064935 228.920223,78.3599258 228.890538,79.2133581 C228.949907,79.2133581 229.024119,79.2133581 229.09833,79.2207792 L229.09833,79.2207792 Z M288.207792,77.6994434 C294.144712,79.0723562 295.332096,83.012987 294.834879,86.9981447 C293.105751,100.794063 291.391466,114.589981 289.684601,128.3859 C289.187384,132.393321 287.220779,135.628942 281.647495,134.864564 C276.059369,134.122449 274.842301,130.359926 275.272727,126.233766 C276.742115,112.074212 278.226345,97.9072356 279.710575,83.7402597 C280.148423,79.6437848 282.241187,76.3562152 288.207792,77.6994434 L288.207792,77.6994434 Z M281.61039,62.7977737 C282.077922,58.3599258 286.152134,55.606679 290.649351,56.7717996 C295.124304,57.9294991 298.248609,62.4564007 297.706865,66.7532468 C297.157699,71.0500928 293.202226,73.6252319 288.801484,72.6011132 C284.3859,71.5769944 281.142857,67.2356215 281.61039,62.7977737 L281.61039,62.7977737 Z M335.888683,183.391466 C323.220779,190.486085 309.105751,196.467532 293.74397,201.269017 C295.621521,199.057514 297.328386,196.912801 298.812616,194.946197 C311.643785,190.58256 323.525046,185.358071 334.315399,179.309833 C367.473098,160.727273 385.729128,136.794063 385.729128,111.910946 C385.729128,87.0352505 367.473098,63.1020408 334.315399,44.5194805 C298.664193,24.5343228 250.916512,13.528757 199.87384,13.528757 C148.831169,13.528757 101.083488,24.5343228 65.432282,44.5194805 C32.2820037,63.1020408 14.025974,87.0352505 14.025974,111.910946 C14.025974,136.786642 32.2820037,160.727273 65.432282,179.309833 C76.0222635,185.239332 87.6586271,190.382189 100.222635,194.701299 C101.699443,196.667904 103.406308,198.820037 105.283859,201.046382 C90.1966605,196.282004 76.3191095,190.374768 63.851577,183.391466 C29.2022263,163.970315 10.122449,138.627087 10.122449,112.014842 C10.122449,85.4100186 29.2022263,60.0667904 63.8441558,40.6456401 C100.022263,20.3710575 148.326531,9.20222635 199.866419,9.20222635 C251.406308,9.20222635 299.710575,20.3710575 335.881262,40.6456401 C370.523191,60.0667904 389.61039,85.4100186 389.61039,112.014842 C389.61039,138.627087 370.530612,163.970315 335.888683,183.391466 L335.888683,183.391466 Z" id="Shape"></path>
            <path d="M326.033395,202.330241 C329.179963,202.330241 331.680891,204.764378 331.680891,207.87384 C331.680891,210.983302 329.179963,213.454545 326.003711,213.454545 C322.827458,213.454545 320.289425,210.990724 320.289425,207.87384 C320.289425,204.764378 322.827458,202.330241 326.003711,202.330241 L326.033395,202.330241 Z M325.966605,203.450835 C323.562152,203.450835 321.699443,205.447124 321.699443,207.881262 C321.699443,210.352505 323.562152,212.311688 326.025974,212.311688 C328.430427,212.348794 330.25603,210.352505 330.25603,207.918367 C330.25603,205.447124 328.430427,203.458256 325.996289,203.458256 L325.966605,203.458256 L325.966605,203.450835 Z M325.120594,210.753247 L323.836735,210.753247 L323.836735,205.209647 C324.341373,205.142857 325.053803,205.038961 325.966605,205.038961 C327.012987,205.038961 327.487941,205.209647 327.858998,205.476809 C328.19295,205.714286 328.430427,206.115028 328.430427,206.656772 C328.430427,207.332096 327.918367,207.769944 327.280148,207.977737 L327.280148,208.044527 C327.821892,208.215213 328.096475,208.653061 328.25974,209.402597 C328.430427,210.248609 328.564007,210.552876 328.667904,210.753247 L327.317254,210.753247 C327.153989,210.552876 327.050093,210.077922 326.879406,209.402597 C326.782931,208.823748 326.441558,208.556586 325.729128,208.556586 L325.120594,208.556586 L325.120594,210.753247 Z M325.150278,207.643785 L325.758813,207.643785 C326.471243,207.643785 327.042672,207.406308 327.042672,206.834879 C327.042672,206.330241 326.671614,205.988868 325.862709,205.988868 C325.521336,205.988868 325.283859,206.025974 325.150278,206.055659 L325.150278,207.643785 Z" id="Shape"></path>
        </g>
    </g>
</svg>