<svg xmlns="http://www.w3.org/2000/svg" width="20.642" height="24.298" viewBox="0 0 20.642 24.298">
  <g id="Grupo_6563" data-name="Grupo 6563" transform="translate(0)">
    <path id="Trazado_1634" data-name="Trazado 1634" d="M-360.5-771.1l-.089,1.024a1.552,1.552,0,0,1-1.456,1.035h-10.3a1.547,1.547,0,0,1-1.456-1.03l-.088-1.029v-14.026A3.575,3.575,0,0,0-371.2-787.1a.381.381,0,0,1,.274.107,3.067,3.067,0,0,0,2.164.886,3.064,3.064,0,0,0,2.22-.942.169.169,0,0,1,.122-.051c.8,0,1.325.171,1.558.509a1.716,1.716,0,0,1,.191.975v2.083a1.547,1.547,0,0,0,1.03,1.456v9.154a.515.515,0,0,0,.515.515.514.514,0,0,0,.514-.515v-9.154a1.547,1.547,0,0,0,1.03-1.456v-3.628a2.718,2.718,0,0,0,1.081,0Zm-1.362-17.247a.512.512,0,0,0-.5.02.513.513,0,0,0-.246.438v4.346a.515.515,0,0,1-.514.514.515.515,0,0,1-.515-.514v-2.083a2.624,2.624,0,0,0-.374-1.561,2.736,2.736,0,0,0-2.406-.952,1.206,1.206,0,0,0-.863.364,2.038,2.038,0,0,1-1.479.627,2.048,2.048,0,0,1-1.444-.59,1.407,1.407,0,0,0-.994-.4,1.033,1.033,0,0,0-.924.576,2.552,2.552,0,0,1-2.279,1.446.514.514,0,0,0-.51.515v4.093a.557.557,0,0,1-.541.539.535.535,0,0,1-.54-.514v-6.177a3.612,3.612,0,0,1,3.625-3.6,3.634,3.634,0,0,1,.467.03.513.513,0,0,0,.514-.258,3.613,3.613,0,0,1,3.142-1.853,3.617,3.617,0,0,1,2.687,1.216.513.513,0,0,0,.659.092,1.5,1.5,0,0,1,.8-.227,1.546,1.546,0,0,1,1.458,1.032.516.516,0,0,0,.323.318.515.515,0,0,0,.449-.061,1.557,1.557,0,0,1,1.206-.222,1.551,1.551,0,0,1,1.156,1.141A1.582,1.582,0,0,1-361.86-788.342Zm6.51,13.644a1.546,1.546,0,0,1-1.545,1.544h-2.573v-1.239h2.321a.515.515,0,0,0,.515-.515v-8.4a.515.515,0,0,0-.515-.515h-2.321v-1.217h2.573a1.546,1.546,0,0,1,1.545,1.544Z" transform="translate(375.991 793.333)" fill="#fff"/>
    <path id="Trazado_1635" data-name="Trazado 1635" d="M-360.665-791.184a1.557,1.557,0,0,0-1.206.222.515.515,0,0,1-.449.061.516.516,0,0,1-.323-.318,1.546,1.546,0,0,0-1.458-1.032,1.5,1.5,0,0,0-.8.227.513.513,0,0,1-.659-.092,3.617,3.617,0,0,0-2.687-1.216,3.613,3.613,0,0,0-3.142,1.853.513.513,0,0,1-.514.258,3.634,3.634,0,0,0-.467-.03,3.612,3.612,0,0,0-3.625,3.6v6.177a.535.535,0,0,0,.54.514.557.557,0,0,0,.541-.539V-785.6a.514.514,0,0,1,.51-.515,2.552,2.552,0,0,0,2.279-1.446,1.033,1.033,0,0,1,.924-.576,1.407,1.407,0,0,1,.994.4,2.048,2.048,0,0,0,1.444.59,2.038,2.038,0,0,0,1.479-.627,1.206,1.206,0,0,1,.863-.364,2.736,2.736,0,0,1,2.406.952,2.624,2.624,0,0,1,.374,1.561v2.083a.515.515,0,0,0,.515.514.515.515,0,0,0,.514-.514v-4.346a.513.513,0,0,1,.246-.438.512.512,0,0,1,.5-.02,1.582,1.582,0,0,0,2.351-1.7A1.551,1.551,0,0,0-360.665-791.184Z" transform="translate(375.991 793.333)" fill="#fff"/>
    <path id="Trazado_1636" data-name="Trazado 1636" d="M-361.922-788.172v3.628a1.547,1.547,0,0,1-1.03,1.456v9.154a.514.514,0,0,1-.514.515.515.515,0,0,1-.515-.515v-9.154a1.547,1.547,0,0,1-1.03-1.456v-2.083a1.716,1.716,0,0,0-.191-.975c-.233-.338-.758-.509-1.558-.509a.169.169,0,0,0-.122.052,3.064,3.064,0,0,1-2.221.942,3.067,3.067,0,0,1-2.164-.886.382.382,0,0,0-.274-.107,3.575,3.575,0,0,1-2.684,1.983V-772.1l.089,1.029a1.546,1.546,0,0,0,1.456,1.03h10.3a1.552,1.552,0,0,0,1.456-1.035l.089-1.024v-16.069A2.719,2.719,0,0,1-361.922-788.172Zm-9.265,14.238a.515.515,0,0,1-.515.515.515.515,0,0,1-.515-.515v-9.832a.515.515,0,0,1,.515-.515.515.515,0,0,1,.515.515Zm4.117,0a.515.515,0,0,1-.514.515.515.515,0,0,1-.515-.515v-9.832a.515.515,0,0,1,.515-.515.515.515,0,0,1,.514.515Z" transform="translate(376.335 794.341)" fill="#fff"/>
    <rect id="Rectángulo_900" data-name="Rectángulo 900" width="1.89" height="7.773" transform="translate(16.522 10.346)" fill="#fff"/>
    <path id="Trazado_1637" data-name="Trazado 1637" d="M-359.591-786.4h-2.573v1.218h2.321a.515.515,0,0,1,.515.515v8.4a.515.515,0,0,1-.515.515h-2.321v1.239h2.573a1.547,1.547,0,0,0,1.545-1.544v-8.8A1.546,1.546,0,0,0-359.591-786.4Z" transform="translate(378.687 794.69)" fill="#fff"/>
    <path id="Trazado_1638" data-name="Trazado 1638" d="M-372.03-784.916a.515.515,0,0,0-.515.515v9.832a.515.515,0,0,0,.515.515.515.515,0,0,0,.515-.515V-784.4A.515.515,0,0,0-372.03-784.916Z" transform="translate(376.663 794.978)" fill="#b8272c"/>
    <path id="Trazado_1639" data-name="Trazado 1639" d="M-368.584-784.916a.515.515,0,0,0-.515.515v9.832a.515.515,0,0,0,.515.515.515.515,0,0,0,.514-.515V-784.4A.515.515,0,0,0-368.584-784.916Z" transform="translate(377.335 794.978)" fill="#b8272c"/>
  </g>
</svg>
