<?xml version="1.0" encoding="UTF-8"?>
<svg width="25px" height="25px" viewBox="0 0 25 25" version="1.1" xmlns="http://www.w3.org/2000/svg" xmlns:xlink="http://www.w3.org/1999/xlink">
    <!-- Generator: Sketch 63.1 (92452) - https://sketch.com -->
    <title>Shape</title>
    <desc>Created with Sketch.</desc>
    <g id="Page-1" stroke="none" stroke-width="1" fill="none" fill-rule="evenodd">
        <g id="noun_User_3383237" fill="#FFFFFF" fill-rule="nonzero">
            <path d="M12.3222638,0.531854374 C5.75791826,0.670908015 0.524148954,6.05976747 0.576792346,12.6253746 C0.54089104,16.9362227 2.82011422,20.9350617 6.54754964,23.1009161 C10.2749851,25.2667705 14.8777637,25.2667705 18.6051991,23.1009161 C22.3326346,20.9350617 24.6118577,16.9362227 24.5759564,12.6253746 C24.6019605,9.38214164 23.314043,6.26649425 21.0056198,3.98824523 C18.6971965,1.70999621 15.564874,0.463182064 12.3222638,0.531854374 L12.3222638,0.531854374 Z M12.4707456,6.60945736 C13.5605997,6.58093405 14.6155853,6.99480054 15.3953355,7.75676191 C16.1750858,8.51872328 16.6131845,9.56387854 16.609835,10.6541006 C16.609835,12.8818126 14.8038984,14.68773 12.5761864,14.68773 C10.3484745,14.68773 8.54253749,12.8818126 8.54253749,10.6541006 C8.53578809,8.46263322 10.2800154,6.66669671 12.4707456,6.60945736 Z M16.1538452,14.4212146 C16.9081447,14.3993773 17.6391601,14.6838102 18.1803393,15.2097092 C18.9250537,16.036029 19.3865115,17.0785235 19.4975042,18.1853589 C19.7090599,19.3789884 19.5959798,20.6075364 19.1700925,21.7424933 C15.2349519,24.5885611 9.91779684,24.5885611 5.98265631,21.7424933 C5.55676896,20.6075364 5.4436889,19.3789884 5.65524462,18.1853589 C5.76623724,17.0785235 6.22769511,16.036029 6.97240944,15.2097092 C7.73203627,14.4719094 8.84369093,14.2273774 9.8428063,14.5783045 C11.485433,15.7225517 13.6669399,15.7225517 15.3095666,14.5783045 C15.5812071,14.4827132 15.8660016,14.4297232 16.1538452,14.4212146 L16.1538452,14.4212146 Z" id="Shape"></path>
        </g>
    </g>
</svg>