<svg xmlns="http://www.w3.org/2000/svg" viewBox="0 0 924.19 349.98"><defs><style>.cls-1{fill:#ffe800}.cls-2{fill:#fff}.cls-3{fill:#ff0005}</style></defs><g id="Capa_2" data-name="Capa 2"><g id="Capa_1-2" data-name="Capa 1"><path class="cls-1" d="M0 219.38q0-17.92 5-29t12.44-17.25a40 40 0 0116.52-8.29 75.17 75.17 0 0117.2-2.12 77.8 77.8 0 018.82.47c2.72.32 5.13.67 7.25 1.06q3.62.77 6.79 1.53V189a62 62 0 00-15.39-2.31q-13.12 0-19 8.91t-5.88 22.86q0 13.17 6.11 21.7t18.78 8.52A62 62 0 0074 246.33v23.2q-3.18.77-6.79 1.53c-2.12.38-4.53.73-7.25 1.06a77.8 77.8 0 01-8.82.47 74.87 74.87 0 01-16.74-2 41.48 41.48 0 01-16.3-7.81Q10.63 257 5.55 246.56T0 219.38zm114.06-30.8v16h23.57v23.56h-23.57v18.54h28.78v24H85.29v-106h57.55v24zM188 237.83h-4.83v32.83h-28.74V164.24h35.15a44.36 44.36 0 0113 1.93 34.51 34.51 0 0111.2 5.81 30.87 30.87 0 018 9.48 31.66 31.66 0 013.67 13v13.15A31 31 0 01213.92 230l15.83 40.63H201zm8.69-38.05a13.18 13.18 0 00-1.55-6.47q-1.55-2.81-5.6-2.8h-6.37v21.24h6.37q4 0 5.6-2.8a13.15 13.15 0 001.55-6.47zm35.52 19.6q0-17.92 4.25-29t10.62-17.25a32.54 32.54 0 0114.1-8.29 55.27 55.27 0 0114.68-2.12 56.74 56.74 0 017.53.47q3.48.48 6.19 1.06 3.07.77 5.79 1.53V189a45.72 45.72 0 00-13.13-2.31q-11.21 0-16.23 8.91t-5 22.86q0 13.17 5.21 21.7t16 8.52a45.72 45.72 0 0013.13-2.31v23.2q-2.72.77-5.79 1.53-2.71.57-6.19 1.06a56.74 56.74 0 01-7.53.47 55 55 0 01-14.29-2 33.52 33.52 0 01-13.91-7.81q-6.37-5.77-10.72-16.2t-4.71-27.24zm156.3 51.28h-30.13l-4.06-18.15h-19.5l-2.51 18.15h-29.75l25.88-106.23h33.8zm-38.05-41.52l-5.41-37.67-6 37.67z"/><path class="cls-2" d="M25.75 148.67V38.3H3.16V6.09H87.3V38.3H64.45v110.37zM98.61 5.83h38.7v142.84h-38.7zm90.71 32.47v21.55H221v31.68h-31.68v24.94H228v32.2h-77.4V6.09H228V38.3zM309.44 5.83h38.18v142.84h-38.18l-29.86-69.34v69.34h-39V5.83h39l29.86 79.73zm96.69 0a59.38 59.38 0 0117.53 2.6 47.6 47.6 0 0115.06 7.66 40.07 40.07 0 0110.78 12.6 42.52 42.52 0 014.93 17.4v62.07a42.52 42.52 0 01-4.93 17.4 41.43 41.43 0 01-10.78 12.72 46.09 46.09 0 01-15.06 7.79 59.05 59.05 0 01-17.53 2.6H361.2V5.83zm9.61 47.27a17.77 17.77 0 00-2.08-8.7q-2.09-3.76-7.53-3.77h-6.24v75.84h6.24q5.44 0 7.53-3.77a17.77 17.77 0 002.08-8.7zM569 148.67h-40.48l-5.45-24.41h-26.23l-3.38 24.41h-40L488.27 5.83h45.45zm-51.13-55.84l-7.27-50.64-8.05 50.64zm-148.4 152.53h25.12v25.12h-25.12zm23.77-27.17q0-17.7 4.19-28.64t10.49-17a32.12 32.12 0 0113.91-8.18 54.68 54.68 0 0114.49-2.1 53.89 53.89 0 017.44.48q3.44.47 6.1 1c2 .5 3.94 1 5.72 1.51v22.9a45.22 45.22 0 00-13-2.29q-11.06 0-16 8.8t-5 22.56q0 13 5.15 21.42t15.82 8.42a45.22 45.22 0 0013-2.29v22.9c-1.78.5-3.69 1-5.72 1.51-1.78.38-3.81.72-6.1 1a53.3 53.3 0 01-21.54-1.53 33 33 0 01-13.73-7.7q-6.28-5.72-10.58-16t-4.64-26.77zm104.24-56.33a43.52 43.52 0 0112.86 1.91 34.12 34.12 0 0111.06 5.73 30.47 30.47 0 017.91 9.36 31.35 31.35 0 013.62 12.8v49.26a31.35 31.35 0 01-3.62 12.8 30.47 30.47 0 01-7.91 9.36 33.91 33.91 0 01-11.06 5.72 44.28 44.28 0 01-25.73 0 33.91 33.91 0 01-11.06-5.72 30.47 30.47 0 01-7.91-9.36 31.35 31.35 0 01-3.62-12.8v-49.26a31.35 31.35 0 013.62-12.8 30.47 30.47 0 017.91-9.36 34.12 34.12 0 0111.06-5.73 43.54 43.54 0 0112.87-1.91zm7 35.08a12.44 12.44 0 00-1.53-6.29q-1.53-2.67-5.52-2.86c-2.67.13-4.52 1.08-5.53 2.86a12.44 12.44 0 00-1.53 6.29v41a12.44 12.44 0 001.53 6.29c1 1.78 2.86 2.73 5.53 2.86q4-.2 5.52-2.86a12.44 12.44 0 001.53-6.29z"/><path class="cls-3" d="M642.35 278.71c1.34-.53 2.07-1.22 2.06-2s-.76-1.44-2.12-2a14.16 14.16 0 00-5-.8l-71.25.12c-3.93 0-7.11 1.26-7.08 2.79s.7 2.75 4.61 2.75l73.77-.11a14.28 14.28 0 005.01-.75zm219.52 0c1.34-.53 2.07-1.22 2.06-2s-.76-1.44-2.12-2a14.12 14.12 0 00-5-.8l-67.9.12c-3.93 0-7.1 1.26-7.08 2.79s.7 2.75 4.61 2.75h.05l70.41-.11a14.28 14.28 0 004.97-.75z"/><path class="cls-2" d="M852.83 136.47h-.44a71.58 71.58 0 10.44 0zM893.43 248a56.72 56.72 0 01-40.26 17h-.36a57.19 57.19 0 1140.62-17zm-331.85-39.73a71.37 71.37 0 1071.42-71.8h-.44a71.46 71.46 0 00-70.98 71.8zm71-57.54h.42a57.12 57.12 0 01.3 114.27h-.36a57.12 57.12 0 01-.33-114.23z"/><path class="cls-3" d="M689.51 89.55a7.12 7.12 0 00-.06-10.08 7 7 0 00-5.05-2.06l-47.79.31a7.13 7.13 0 000 14.25h.05l47.79-.3a7.07 7.07 0 005.06-2.12zM795 43.2a7.12 7.12 0 00-.06-10.08 7 7 0 00-5.05-2.06l-46.95.31a7.13 7.13 0 000 14.25l47-.3A7.09 7.09 0 00795 43.2z"/><path class="cls-2" d="M857.79 208.49c0-.1-.06-.2-.08-.3s-.08-.38-.1-.56L807.52 36.24a6.93 6.93 0 00-1-2l-.15-.23a6.84 6.84 0 00-.56-.66c-.18-.2-.33-.35-.48-.49l-.35-.28a7.84 7.84 0 00-.88-.61 6.86 6.86 0 00-3.55-1l-45 .3a7.42 7.42 0 00-4.55 1.45 7.16 7.16 0 00-2.44 8.22 7 7 0 006.74 4.62l37.13-.25a3.77 3.77 0 013.68 2.69l44.12 147.25a.06.06 0 01-.09.07l-174.22-95.08-.25-.13-.39-.16-.64-.26a2.26 2.26 0 00-.33-.13h-.08l-.52-.08h-.24a5.08 5.08 0 00-.54-.1 2.41 2.41 0 00-.38 0h-1l-.46.09-.51.11a2.45 2.45 0 00-.37.08c-.14 0-.28.11-.41.16l-.46.19c-.13.06-.27.11-.4.18a3.28 3.28 0 00-.31.2l-.45.3a3.19 3.19 0 00-.38.26c-.11.09-.21.2-.31.3l-.42.42a2.83 2.83 0 00-.24.25 4 4 0 00-.35.5l-.11.18-.3.42v.08c0 .08-.09.22-.14.34l-.27.65a2.67 2.67 0 00-.14.36l-.09.26-29.29 104.21a7.38 7.38 0 00.13 4.69 7.14 7.14 0 004.74 4.32 7.42 7.42 0 002 .27 7.17 7.17 0 006.79-5.2l25.65-91.42a3.77 3.77 0 015.46-2.29l176.67 97.61a7.32 7.32 0 003.48.89 7.15 7.15 0 006.2-3.68 7 7 0 00.53-5.62z"/><path class="cls-1" d="M871.4 37.18a6.72 6.72 0 00-4.49-2.36l-1.12-.11a6.55 6.55 0 00-7.27 5.74l-.22 2.16h.28a10.53 10.53 0 012.54.25l.27.06.21-2.14a3.4 3.4 0 011.28-2.31 3.62 3.62 0 012.6-.74l1.13.11a3.5 3.5 0 013.18 3.77l-1.2 11.79c0 .15-.05.31-.09.49v.06c0 .42 0 2.55 1.9 2.76h.15l.08-.13a6.19 6.19 0 001.06-2.89l1.2-11.78a6.32 6.32 0 00-1.49-4.73z"/><path class="cls-1" d="M876.47 30.39a6 6 0 01-1.5-4.11l.37-14a2.46 2.46 0 00.51-2.08l-.49-2.84a5.55 5.55 0 00.7-2.1 4.11 4.11 0 00-1.59-3.57 2.78 2.78 0 00-.81-.4c-5.61-2.65-8.81-.4-8.81-.4a4.18 4.18 0 00-2 3 5.49 5.49 0 00.26 2.19l-1 2.63a2.48 2.48 0 00.06 2.19l-2.47 13.8a6 6 0 01-2.29 3.72 9.77 9.77 0 00-3.84 6.77l-1 9.94.43-.13a11.56 11.56 0 013.34-.85h.24l.86-8.48a6 6 0 012.36-4.16 9.72 9.72 0 003.74-6.05l2.3-12.91 5.57.57-.35 13.1a9.8 9.8 0 002.44 6.69 6 6 0 011.5 4.49l-2.39 23.49h.37a23.06 23.06 0 013.29-.06h.27l2.35-23a9.78 9.78 0 00-2.42-7.44zM866.3 8.72l.25-1.23 5.07.52.12 1.26zm3.21-5.11c-1.91-.22-3.43-.73-3.38-1.14s1.64-.56 3.55-.34 3.44.73 3.39 1.14-1.64.56-3.56.34z"/><path class="cls-1" d="M840.78 121.33h52.14a6 6 0 005.73-4.21l15.14-50.8a6 6 0 00-.89-5.39 6 6 0 00-4.84-2.46h-82.57a6 6 0 00-6 6c0 3.31 2.7 5.14 6 5.14h68.25a4.49 4.49 0 013.62 1.83 4.53 4.53 0 01.67 4l-9.35 30.65c-.6 1.93-1.5 3.19-3.48 3.19h-44.42a6 6 0 000 12z"/><path class="cls-1" d="M916.2 46c4.25-5.17 5.21-11.16 2.08-14.89a8 8 0 00-4.76-2.7 19.41 19.41 0 00-.39-8.44c-1.06-3.59-3.33-6.1-6.23-6.87s-6.12.26-8.83 2.84a19.54 19.54 0 00-4.56 7.06 8.16 8.16 0 00-5.51 0c-4.58 1.67-6.73 7.34-5.64 13.94a7.2 7.2 0 00-1.31.34 7.68 7.68 0 00-2 1.09c-.1.11-.2.22-.31.32-3 3-3.63 5.08-3.67 6.17v.47a1.46 1.46 0 00.12.46h-.11V59h-2.71l-.46-.23a13.78 13.78 0 00.28-2.65 14.1 14.1 0 00-10-13.48l-1.5-.36a13.55 13.55 0 00-2.49-.28h-.56c0-.1-3.09.28-3 .17l-1.19.59s-1.28.59-1.28.62a14.37 14.37 0 00-2.67 1.66C837.59 20.89 828.35 7 819.66 11s-3.89 20.31 7.1 45.09l2.37 5h.06a1.15 1.15 0 00-.06.37 1.08 1.08 0 001.08 1.08h79.08l3.8-2.74 5.21-3.7c1.21-3.58.83-6.89-1.14-9.23a6.63 6.63 0 00-.96-.87zm-76.08-7.73c-7.33-3.31-8.77-5-9-5.67.38-.17 1.84-.53 6.1.34.92 1.63 1.89 3.39 2.9 5.29zM844.29 59h-10.83c-10.64-24-15.64-41.38-11.6-43.26 2.49-1.17 6.5 2.67 11.94 11.4-3.21-.18-6.51.45-7.65 3.61-2 5.52 5.23 9.75 17.67 14.7l2 4c-.82 1.55-1.53 3.74-1.53 9.55zM867 59h-17.65l.11-4.11A8.82 8.82 0 01867 55zm42.33-11.51a2.6 2.6 0 002.05 1.87 3 3 0 011.83.93c.77.91.78 2.52.12 4.36l-6.22 4.56-9.37-.21c.72-2.17 0-1.45 0-2.17l3.08-10.95 8.32-4.88a2.61 2.61 0 10-2.61-4.51l-3.81 2.2 2.65-9.87a2.61 2.61 0 10-5-1.35l-2.64 9.87-2.2-3.81a2.61 2.61 0 00-4.53 2.65l4.81 8.32-2.4 9-2.2-3.81a2.61 2.61 0 00-4.52 2.61l3.73 6.7h-5l-2.71-5a2.64 2.64 0 00-1.34-.47 15.29 15.29 0 01-.81-7.85c.37-1.84 1.2-3.13 2.27-3.52a3 3 0 012.06.11 2.6 2.6 0 003.39-3.27c-1.88-5.52-.69-10.28 1.55-11.1 1.35-.49 2.91.44 3.72 1a2.6 2.6 0 004.09-1.52v-.2c0-.16.07-.32.12-.49a15.4 15.4 0 013.87-7c1.36-1.3 2.78-1.87 3.88-1.57s2 1.5 2.57 3.31a15.26 15.26 0 01-.15 8c0 .16-.09.31-.14.47l-.06.21a2.61 2.61 0 002.78 3.36c1-.11 2.81-.14 3.73 1 1.54 1.82.19 6.54-4.2 10.38a2.59 2.59 0 00-.75 2.61z"/><path class="cls-2" d="M45 336.79a8.74 8.74 0 01-2.9 3.08 8.83 8.83 0 01-3.27 1.27 17.37 17.37 0 01-2.39.26H36a17.17 17.17 0 01-3.69-.41 21.44 21.44 0 01-3.59-1.15 29.62 29.62 0 01-3.34-1.65c-1.06-.62-2-1.24-2.93-1.88L20.77 341H16.7v-40.43H36a12.39 12.39 0 015.09 1.4 10.42 10.42 0 011.91 1.31 8.33 8.33 0 011.66 2 11 11 0 011.16 2.72 13.27 13.27 0 01.45 3.66v19.44a11.15 11.15 0 01-1.27 5.69zm-4.2-25.09a7.54 7.54 0 00-.76-3.11 6.29 6.29 0 00-1.85-2.13 5.8 5.8 0 00-3.62-1H22.29V331q2.3 1.72 4.11 2.83a23 23 0 003.3 1.72 14.09 14.09 0 002.67.82 11.58 11.58 0 002.13.23 6.08 6.08 0 003.66-1 5.77 5.77 0 001.84-2.15 7.68 7.68 0 00.76-3.18zM59.94 341v-40.43H86.2v4.9H65.53v10.94h14.38v4.77H65.53v15.07H86.2V341zm57.74 0v-40.36h5.59v35.67h20.67V341zm64.86 1l-3-9.16h-19.7l-2.93 9.16-5-1.78 14.05-39.49h7.5l13.87 39.49zm-12.85-36.75l-8.2 22.75h16.34zM217.83 341v-40.43h26.26v4.9h-20.67v10.94h14.38v4.77h-14.38v15.07h20.67V341zm64.86-6.72a9.37 9.37 0 01-2.48 3.84 11.78 11.78 0 01-4.55 2.55 22.79 22.79 0 01-7 .92 19.94 19.94 0 01-3.88-.41 22.39 22.39 0 01-7.63-3.12 13.57 13.57 0 01-2.92-2.51l2-3.94a14 14 0 002.77 2.1 26.55 26.55 0 003.34 1.65 22.64 22.64 0 003.4 1.08 13.67 13.67 0 002.89.38 14.46 14.46 0 004.74-.64 7 7 0 002.8-1.65 5 5 0 001.3-2.35 11.87 11.87 0 00.32-2.74v-1.52a4.09 4.09 0 00-.64-2.39 5.31 5.31 0 00-1.4-1.43 6.54 6.54 0 00-2-1L269 322q-2.58-.62-4.87-1.12a14.44 14.44 0 01-5.5-2.19 11.87 11.87 0 01-2.89-2.86 6.89 6.89 0 01-1.15-2.61 14.69 14.69 0 01-.19-1.49v-1.85a10.93 10.93 0 011.27-5.69 8.9 8.9 0 016.36-4.35 19.66 19.66 0 012.61-.26 42.33 42.33 0 016.68.48 44.61 44.61 0 015.18 1.11 29.64 29.64 0 013.63 1.27c.95.43 1.59.72 1.93.89l-2 4.07a32.18 32.18 0 00-4.16-1.49c-1.42-.41-2.75-.72-4-1s-2.32-.4-3.27-.51-1.64-.15-2.07-.15a11.18 11.18 0 00-3.34.41 5.05 5.05 0 00-2 1.14 3.69 3.69 0 00-1 1.78A9.91 9.91 0 00260 310v1.59a3.1 3.1 0 00.54 1.84 5.35 5.35 0 001.24 1.27 5.79 5.79 0 001.34.76 7.52 7.52 0 00.89.32q2.28.51 4.86 1.15t4.93 1.14a15.38 15.38 0 015.59 2.39 11 11 0 012.87 3 7.34 7.34 0 011 2.58c.11.72.16 1.1.16 1.14v2.29a14.84 14.84 0 01-.73 4.81zm41.14 1.65a9.87 9.87 0 01-1.3 1.65 11.88 11.88 0 01-1.94 1.59 13.6 13.6 0 01-2.7 1.37 21.12 21.12 0 01-3.6 1l2.93 6.8-3.88 1.66-5.66-8.26a19.65 19.65 0 01-7.37-1.75 11 11 0 01-3.82-3 6.71 6.71 0 01-1.4-3.12 18.46 18.46 0 01-.19-2.06v-22.08a9.49 9.49 0 01.13-1.27 7.77 7.77 0 01.6-2 9.85 9.85 0 011.43-2.29 9.64 9.64 0 012.64-2.17 16.55 16.55 0 014.23-1.62 26 26 0 016.17-.63 27.84 27.84 0 016.42.63 16.47 16.47 0 014.29 1.62 9.05 9.05 0 012.61 2.17 8.73 8.73 0 011.34 2.29 7.42 7.42 0 01.47 2c0 .59.07 1 .07 1.27v22.07a9.64 9.64 0 01-1.47 4.13zm-4.13-24.67a9 9 0 00-.25-1.69 5.64 5.64 0 00-1.21-2.26 7.63 7.63 0 00-2.86-2 17.41 17.41 0 00-10.56 0 7.54 7.54 0 00-2.86 2 5.52 5.52 0 00-1.21 2.26 8.21 8.21 0 00-.25 1.69v19.27a8.45 8.45 0 00.25 1.81 4.71 4.71 0 001.25 2.16 7.73 7.73 0 002.89 1.78 19 19 0 0010.43 0 7.78 7.78 0 002.9-1.78 4.8 4.8 0 001.24-2.16 9.14 9.14 0 00.25-1.81zm47.12 25.18a10.09 10.09 0 01-1.81 1.84 11.88 11.88 0 01-2.71 1.59 17.55 17.55 0 01-3.75 1.12 27.45 27.45 0 01-5 .41 27.13 27.13 0 01-6.42-.64 16 16 0 01-4.3-1.62 9.14 9.14 0 01-2.6-2.16 8.61 8.61 0 01-1.34-2.29 7.47 7.47 0 01-.48-2c0-.6-.06-1-.06-1.27v-30.78h5.6v29.5a8 8 0 00.25 1.78 4.73 4.73 0 001.24 2.13 8 8 0 002.89 1.82 18.27 18.27 0 0010.43 0 8.08 8.08 0 002.9-1.82 4.82 4.82 0 001.24-2.13 8.62 8.62 0 00.25-1.78v-29.5h5.6v30.78a9.5 9.5 0 01-1.93 5.02zM383 341v-40.36h5.6V341zm45.37 0l-18.12-26.9V341h-5.6v-33.49l-.76-6.17 4.13-1.46 20.61 32.87v-32.11h5.59V341zm47.63 1l-3-9.19h-19.7l-2.93 9.19-5-1.78 14-39.49h7.51l13.86 39.49zm-12.84-36.75L455 328h16.3zm75.6 36.75l-3-9.16h-19.7l-2.92 9.16-5-1.78 14.06-39.49h7.5l13.86 39.49zm-12.84-36.75L517.71 328h16.35zm62.08.16v27.66l3.18 6.74-3.81 1.91-4.9-6.55v-29.76h-11.28v-4.77h27.92v4.77zm50.72 31.03a9.77 9.77 0 01-1.81 1.84 11.59 11.59 0 01-2.7 1.59 17.55 17.55 0 01-3.75 1.12 27.56 27.56 0 01-5 .41 27.24 27.24 0 01-6.42-.64 15.78 15.78 0 01-4.29-1.62 9.34 9.34 0 01-2.61-2.16 8.56 8.56 0 01-1.33-2.29 7.11 7.11 0 01-.48-2c0-.6-.06-1-.06-1.27v-30.78h5.59v29.5a8.09 8.09 0 00.26 1.78 4.73 4.73 0 001.24 2.13 7.94 7.94 0 002.89 1.82 18.27 18.27 0 0010.43 0 8 8 0 002.89-1.82 4.73 4.73 0 001.24-2.13 8.09 8.09 0 00.26-1.78v-29.5h5.59v30.78a9.42 9.42 0 01-1.94 5.02zM702.7 321a10.66 10.66 0 01-1.18 2.73 8.54 8.54 0 01-1.65 2A10.48 10.48 0 01698 327a12.35 12.35 0 01-5.09 1.4h-13.62V341h-5.59v-40.36h19.2A12.2 12.2 0 01698 302a10.41 10.41 0 011.88 1.3 8.75 8.75 0 011.65 2 10.89 10.89 0 011.18 2.74 13.61 13.61 0 01.44 3.65v5.66a13.69 13.69 0 01-.45 3.65zm-5-9.25a7.56 7.56 0 00-.77-3.12 6.33 6.33 0 00-1.84-2.13 5.81 5.81 0 00-3.63-1h-12.17v18h12.21a6 6 0 003.63-.95 5.84 5.84 0 001.84-2.17 7.21 7.21 0 00.77-3.11zm45.69 24.69a9.77 9.77 0 01-1.81 1.84 11.59 11.59 0 01-2.7 1.59 17.55 17.55 0 01-3.75 1.12 27.56 27.56 0 01-5 .41 27.24 27.24 0 01-6.42-.64 15.78 15.78 0 01-4.29-1.62 9.2 9.2 0 01-2.61-2.16 8.56 8.56 0 01-1.33-2.29 7.11 7.11 0 01-.48-2c0-.6-.06-1-.06-1.27v-30.78h5.59v29.5a8.09 8.09 0 00.26 1.78 4.64 4.64 0 001.24 2.13 7.94 7.94 0 002.89 1.82 18.27 18.27 0 0010.43 0 8 8 0 002.89-1.82 4.73 4.73 0 001.24-2.13 8.09 8.09 0 00.26-1.78v-29.5h5.59v30.78a9.42 9.42 0 01-1.94 5.02zm15.9 4.56v-40.43h26.26v4.9h-20.66v10.94h14.37v4.77h-14.37v15.07h20.66V341zm64.04 1.16L810.54 326h-7v15H798v-40.36h19.21a12.24 12.24 0 015.09 1.4 10.35 10.35 0 011.87 1.3 8.5 8.5 0 011.65 2 10.89 10.89 0 011.18 2.74 13.2 13.2 0 01.45 3.65v3.18a11.21 11.21 0 01-1.24 5.63 10.36 10.36 0 01-2.93 3.31 10.77 10.77 0 01-3.4 1.62 17.43 17.43 0 01-2.67.51l10.55 13.92zM822 311.77a7.55 7.55 0 00-.76-3.12 6.37 6.37 0 00-1.85-2.13 5.76 5.76 0 00-3.62-1h-12.22v15.52h12.21a6 6 0 003.62-.95 5.87 5.87 0 001.85-2.17 7.21 7.21 0 00.76-3.11zm31.78-6.36v27.66l3.18 6.74-3.81 1.91-4.9-6.55v-29.76h-11.32v-4.77h27.92v4.77zM901.22 342l-3.05-9.16h-19.65L875.6 342l-5-1.78 14-39.49h7.51L906 340.19zm-12.84-36.75L880.17 328h16.35z"/></g></g></svg>