<?xml version="1.0" encoding="utf-8"?>
<!-- Generator: Adobe Illustrator 21.0.2, SVG Export Plug-In . SVG Version: 6.00 Build 0)  -->
<svg version="1.1" id="Capa_1" xmlns="http://www.w3.org/2000/svg" xmlns:xlink="http://www.w3.org/1999/xlink" x="0px" y="0px"
	 viewBox="0 0 1200 200" style="enable-background:new 0 0 1200 200;" xml:space="preserve">
<style type="text/css">
	.st0{fill:#00B7FF;}
	.st1{fill:#00D986;}
	.st2{fill:#2B5AC4;}
	.st3{fill:none;stroke:#00D986;stroke-linecap:round;stroke-linejoin:round;stroke-miterlimit:10;}
	.st4{fill:none;}
	.st5{fill:#1A4796;}
	.st6{font-family:'Montserrat-Regular';}
	.st7{font-size:14.8402px;}
	.st8{letter-spacing:9.3;}
	.st9{letter-spacing:1.9;}
	.st10{letter-spacing:0.9;}
	.st11{font-family:'Montserrat-Bold';}
	.st12{letter-spacing:4.7;}
</style>
<g>
	<g>
		<g>
			<g>
				<path class="st0" d="M186.9,128.1c-0.9,0.8-2.1,1.6-3.1,1.9c-0.9,0.3-1.9,0.5-3,0.5c-1.5,0-2.9-0.4-4.1-1
					c-1.2-0.7-2.2-1.6-3-2.8c-0.7-1.2-1.1-2.4-1.1-3.8c0-1.4,0.4-2.6,1.1-3.8c0.7-1.2,1.7-2.1,3-2.8c1.2-0.7,2.6-1,4.1-1
					c1,0,2.1,0.2,3,0.5c0.7,0.2,1.5,0.7,2.2,1.3c0.4,0.3,1.1,0.3,1.5-0.1c0,0,0,0,0,0c0.5-0.5,0.5-1.3-0.1-1.8
					c-0.9-0.7-2-1.3-2.8-1.6c-1.2-0.5-2.5-0.7-3.8-0.7c-1.9,0-3.7,0.5-5.3,1.3c-1.6,0.9-2.9,2.1-3.8,3.7c-1,1.5-1.4,3.2-1.4,5
					c0,1.8,0.5,3.5,1.4,5c0.9,1.5,2.2,2.8,3.8,3.7c1.6,0.9,3.4,1.4,5.3,1.4c1.3,0,2.6-0.2,3.8-0.7c1.2-0.5,2.8-1.4,3.9-2.4
					C188.5,129.7,187.2,128.4,186.9,128.1"/>
				<path class="st0" d="M208.2,114.1L208.2,114.1c-1.6-0.9-3.4-1.3-5.3-1.3c-1.9,0-3.6,0.5-5.3,1.3c-1.6,0.9-2.9,2.1-3.8,3.6
					c-1,1.5-1.4,3.2-1.4,5c0,1.8,0.5,3.5,1.4,5c0.9,1.5,2.2,2.8,3.8,3.7c1.6,0.9,3.4,1.4,5.3,1.4c1.9,0,3.7-0.5,5.3-1.4
					c1.6-0.9,2.9-2.1,3.8-3.7c1-1.5,1.4-3.2,1.4-5c0-1.8-0.5-3.5-1.4-5C211.1,116.2,209.8,115,208.2,114.1 M210,126.6
					c-0.7,1.2-1.7,2.1-3,2.8c-1.2,0.7-2.6,1-4.1,1s-2.8-0.4-4.1-1c-1.2-0.7-2.2-1.6-3-2.8c-0.7-1.2-1.1-2.4-1.1-3.8
					c0-1.4,0.4-2.6,1.1-3.8c0.7-1.2,1.7-2.1,3-2.8c1.2-0.7,2.6-1,4.1-1s2.8,0.4,4.1,1c1.2,0.7,2.2,1.6,3,2.8
					c0.7,1.2,1.1,2.4,1.1,3.8C211.1,124.2,210.7,125.4,210,126.6"/>
				<path class="st0" d="M235.6,112.9h-0.5c-0.5,0-0.9,0.4-0.9,0.9v14.8l-11.5-15.3c-0.2-0.2-0.5-0.4-0.7-0.4h-0.8
					c-0.5,0-0.9,0.4-0.9,0.9v18.1c0,0.5,0.4,0.9,0.9,0.9h0.5c0.5,0,0.9-0.4,0.9-0.9v-14.8l11.5,15.3c0.2,0.2,0.5,0.4,0.7,0.4h0.8
					c0.5,0,0.9-0.4,0.9-0.9v-18.1C236.5,113.3,236.1,112.9,235.6,112.9"/>
				<path class="st0" d="M256.5,112.9h-13.4c-0.5,0-0.9,0.4-0.9,0.9v0.5c0,0.5,0.4,0.9,0.9,0.9h5.5v16.6c0,0.5,0.4,0.9,0.9,0.9h0.5
					c0.5,0,0.9-0.4,0.9-0.9v-16.6h5.5c0.5,0,0.9-0.4,0.9-0.9v-0.5C257.4,113.3,257,112.9,256.5,112.9"/>
				<path class="st0" d="M289.1,122.1h-0.5c-0.5,0-0.9,0.4-0.9,0.9v5.9c-0.6,0.5-1.3,0.9-2.1,1.1c-0.9,0.3-1.9,0.5-2.9,0.5
					c-1.5,0-2.9-0.4-4.1-1.1c-1.2-0.7-2.3-1.7-3-2.8c-0.7-1.2-1.1-2.4-1.1-3.8c0-1.4,0.4-2.6,1.1-3.8c0.7-1.2,1.7-2.1,3-2.8
					c1.2-0.7,2.6-1,4.1-1c1,0,2.1,0.2,3,0.5c0.9,0.3,1.8,0.8,2.5,1.5c0.4,0.3,0.9,0.3,1.3,0l0.3-0.3c0.2-0.2,0.3-0.4,0.3-0.7
					c0-0.3-0.1-0.5-0.3-0.7c-1-0.8-2-1.4-3.2-1.9c-1.2-0.5-2.5-0.7-3.8-0.7c-1.9,0-3.6,0.5-5.3,1.3c-1.6,0.9-2.9,2.1-3.8,3.6
					c-1,1.5-1.4,3.2-1.4,5c0,1.8,0.5,3.5,1.4,5c0.9,1.5,2.2,2.8,3.8,3.7c1.6,0.9,3.4,1.4,5.3,1.4c1.3,0,2.6-0.2,3.8-0.7
					c1.2-0.5,2.3-1.1,3.3-1.9c0.2-0.2,0.3-0.4,0.3-0.7V123C290,122.5,289.6,122.1,289.1,122.1"/>
				<path class="st0" d="M315.8,117.7c-0.9-1.5-2.2-2.8-3.8-3.6c-1.6-0.9-3.4-1.3-5.3-1.3c-1.9,0-3.7,0.5-5.3,1.3
					c-1.6,0.9-2.9,2.1-3.8,3.6c-1,1.5-1.4,3.2-1.4,5c0,1.8,0.5,3.5,1.4,5c0.9,1.5,2.2,2.8,3.8,3.7c1.6,0.9,3.4,1.4,5.3,1.4
					c1.9,0,3.7-0.5,5.3-1.4c1.6-0.9,2.9-2.1,3.8-3.7c1-1.5,1.4-3.2,1.4-5C317.3,121,316.8,119.3,315.8,117.7 M313.8,126.6
					c-0.7,1.2-1.7,2.1-3,2.8c-1.2,0.7-2.6,1-4.1,1c-1.5,0-2.8-0.4-4.1-1c-1.2-0.7-2.2-1.6-3-2.8c-0.7-1.2-1.1-2.4-1.1-3.8
					c0-1.4,0.4-2.6,1.1-3.8c0.7-1.2,1.7-2.1,3-2.8c1.2-0.7,2.6-1,4.1-1c1.5,0,2.8,0.4,4.1,1c1.2,0.7,2.2,1.6,3,2.8
					c0.7,1.2,1.1,2.4,1.1,3.8C314.9,124.2,314.5,125.4,313.8,126.6"/>
				<path class="st0" d="M264.3,116.8L264.3,116.8c-0.7,0-1.2,0.5-1.2,1.2v13.6c0,0.7,0.5,1.2,1.2,1.2h0c0.7,0,1.2-0.5,1.2-1.2V118
					C265.5,117.4,264.9,116.8,264.3,116.8"/>
				<path class="st1" d="M264.3,112.6c-0.8,0-1.4,0.6-1.4,1.4s0.6,1.4,1.4,1.4c0.8,0,1.4-0.6,1.4-1.4S265.1,112.6,264.3,112.6"/>
			</g>
			<g>
				<path class="st2" d="M207.5,83.1c0.7,0.7,1.1,1.6,1.1,2.7V99c0,1.5-0.6,2.6-1.9,3.4c-4.1,2.5-8.6,3.8-13.4,3.8
					c-4.1,0-7.9-1-11.4-3c-3.5-2-6.3-4.8-8.3-8.2c-2-3.4-3.1-7.2-3.1-11.3c0-4.1,1-7.8,3.1-11.3c2-3.4,4.8-6.2,8.3-8.2
					c3.5-2,7.3-3,11.4-3s7.7,0.8,10.8,2.5c0.6,0.3,1.1,0.8,1.4,1.3c0.3,0.5,0.5,1.1,0.5,1.8c0,1-0.3,1.9-1,2.7
					c-0.7,0.8-1.5,1.2-2.5,1.2c-0.6,0-1.3-0.2-2.1-0.5c-2.3-1-4.6-1.4-7-1.4c-2.7,0-5.1,0.7-7.4,2c-2.3,1.4-4,3.2-5.3,5.5
					c-1.3,2.3-2,4.8-2,7.5c0,2.7,0.7,5.2,2,7.5c1.3,2.3,3.1,4.1,5.3,5.5c2.3,1.4,4.7,2,7.4,2c1.2,0,2.4-0.1,3.8-0.3
					c1.3-0.2,2.5-0.5,3.5-0.8v-8.1h-5.9c-1.1,0-2-0.4-2.7-1.1c-0.7-0.7-1.1-1.6-1.1-2.7c0-1.1,0.4-2,1.1-2.7
					c0.7-0.7,1.6-1.1,2.7-1.1h10.3C205.9,82,206.8,82.3,207.5,83.1z"/>
				<path class="st2" d="M245.3,97.9c-1.5,2.6-3.6,4.7-6.2,6.2c-2.6,1.5-5.5,2.2-8.6,2.2c-3.2,0-6-0.7-8.6-2.2
					c-2.6-1.5-4.6-3.5-6.1-6.2c-1.5-2.6-2.3-5.6-2.3-9c0-3.3,0.8-6.3,2.3-9c1.5-2.6,3.5-4.7,6.1-6.2c2.6-1.5,5.5-2.2,8.6-2.2
					c3.1,0,6,0.7,8.6,2.2c2.6,1.5,4.7,3.5,6.2,6.2c1.5,2.6,2.3,5.6,2.3,9C247.6,92.2,246.8,95.2,245.3,97.9z M238.8,83.4
					c-0.9-1.6-2-2.8-3.4-3.7c-1.4-0.9-3-1.3-4.8-1.3c-1.8,0-3.3,0.4-4.8,1.3c-1.4,0.9-2.6,2.1-3.4,3.7c-0.9,1.6-1.3,3.4-1.3,5.5
					c0,2,0.4,3.9,1.3,5.4c0.9,1.6,2,2.8,3.4,3.7c1.4,0.9,3,1.3,4.8,1.3c1.8,0,3.3-0.4,4.8-1.3c1.4-0.9,2.6-2.1,3.4-3.7
					c0.9-1.6,1.3-3.4,1.3-5.4C240.1,86.9,239.6,85,238.8,83.4z"/>
				<path class="st2" d="M279,73.7c2.3,1.5,4.2,3.5,5.5,6.2c1.4,2.6,2,5.6,2,8.9c0,3.3-0.7,6.3-2,9c-1.3,2.6-3.2,4.7-5.5,6.2
					c-2.3,1.5-4.9,2.2-7.7,2.2c-2,0-3.9-0.4-5.7-1.2c-1.8-0.8-3.2-1.8-4.4-3v0.4c0,1.1-0.4,2-1.1,2.7c-0.7,0.7-1.6,1.1-2.7,1.1
					c-1.1,0-2-0.4-2.7-1.1c-0.7-0.7-1.1-1.6-1.1-2.8V63.1c0-1.1,0.4-2,1.1-2.7c0.7-0.7,1.6-1.1,2.7-1.1c1.1,0,2,0.4,2.7,1.1
					c0.7,0.7,1.1,1.6,1.1,2.7v13.1c1-1.3,2.4-2.3,4.2-3.3c1.8-0.9,3.7-1.4,5.6-1.4C274,71.5,276.6,72.3,279,73.7z M276.8,96.4
					c1.7-2,2.6-4.5,2.6-7.5c0-3-0.8-5.5-2.5-7.5c-1.7-2-3.9-3-6.6-3c-2.7,0-4.9,1-6.6,3c-1.7,2-2.6,4.5-2.6,7.5c0,3,0.9,5.5,2.6,7.5
					c1.7,2,3.9,3,6.6,3C272.9,99.4,275.1,98.4,276.8,96.4z"/>
				<path class="st2" d="M364.4,72.6c0.9,0.7,1.3,1.5,1.3,2.5c0,1.3-0.3,2.3-1,2.9c-0.7,0.6-1.5,1-2.4,1c-0.6,0-1.3-0.1-2.1-0.4
					c-0.1,0-0.4-0.1-0.8-0.3c-0.4-0.1-0.9-0.2-1.4-0.2c-1.1,0-2.1,0.3-3.1,1c-1,0.7-1.8,1.7-2.5,3c-0.6,1.4-1,3-1,4.8v14.8
					c0,1.1-0.4,2-1.1,2.7c-0.7,0.7-1.6,1.1-2.7,1.1c-1.1,0-2-0.4-2.7-1.1c-0.7-0.7-1.1-1.6-1.1-2.7V76c0-1.1,0.4-2,1.1-2.7
					c0.7-0.7,1.6-1.1,2.7-1.1c1.1,0,2,0.4,2.7,1.1c0.7,0.7,1.1,1.6,1.1,2.7v0.8c1-1.7,2.3-3,4.1-3.9c1.8-0.9,3.7-1.3,5.8-1.3
					C362.5,71.5,363.5,71.9,364.4,72.6z"/>
				<path class="st2" d="M397.7,75.3c1.6,2.5,2.4,6,2.4,10.5v16c0,1.1-0.4,2-1.1,2.7c-0.7,0.7-1.6,1.1-2.7,1.1c-1.1,0-2-0.4-2.7-1.1
					c-0.7-0.7-1.1-1.6-1.1-2.7v-16c0-2.3-0.5-4.1-1.4-5.4c-1-1.3-2.6-2-4.9-2c-2.4,0-4.3,0.7-5.7,2.1c-1.4,1.4-2.1,3.2-2.1,5.3v16
					c0,1.1-0.4,2-1.1,2.7c-0.7,0.7-1.6,1.1-2.7,1.1c-1.1,0-2-0.4-2.7-1.1c-0.7-0.7-1.1-1.6-1.1-2.7V76c0-1.1,0.4-2,1.1-2.7
					c0.7-0.7,1.6-1.1,2.7-1.1c1.1,0,2,0.4,2.7,1.1c0.7,0.7,1.1,1.6,1.1,2.7V77c1.1-1.5,2.6-2.8,4.4-3.9c1.8-1.1,3.8-1.6,6-1.6
					C393.1,71.5,396,72.8,397.7,75.3z"/>
				<path class="st0" d="M423.3,71.7c-9.5,0-17.3,7.7-17.3,17.3c0,9.5,7.7,17.3,17.3,17.3c9.5,0,17.3-7.7,17.3-17.3
					C440.6,79.4,432.9,71.7,423.3,71.7"/>
				<path class="st0" d="M296.3,60.4c-2.5,0-4.5,2-4.5,4.5c0,2.5,2,4.5,4.5,4.5c2.5,0,4.5-2,4.5-4.5
					C300.9,62.5,298.8,60.4,296.3,60.4"/>
				<path class="st2" d="M296.3,72.6c-1.3,0-2.4,0.4-3.2,1.3c-0.8,0.9-1.3,2-1.3,3.3v28.5h9V77.2c0-1.3-0.4-2.4-1.3-3.3
					C298.7,73,297.6,72.6,296.3,72.6"/>
				<path class="st2" d="M322.3,71.5c-3.2,0-6,0.7-8.5,2.2c-2.5,1.5-4.5,3.6-5.9,6.2c-1.4,2.6-2.1,5.6-2.1,9c0,3.2,0.7,6.2,2,8.8
					c1.3,2.6,3.5,4.7,6,6.2c2.4,1.5,5.8,2.3,9,2.3c2.1,0,4.7-0.3,6.6-0.8c1.9-0.5,3.5-1.2,4.7-2.1c1.3-1,2-2.1,2-3.2
					c0-1.2-0.4-2.1-1-2.9c-0.7-0.8-1.7-1.2-2.9-1.2c-1.1,0-2.4,0.8-2.9,1.1c-1.4,0.8-3.7,1.2-5.5,1.2c-2.5,0-5-0.9-6.6-2.6
					c-1.1-1.3-2-2.8-2.4-4.5c-0.2-0.7-0.3-1.5-0.3-2.2c0-2.8,0.8-5.1,2.4-6.8c1.5-1.6,3.5-2.5,6-2.6c2.3,0.1,4.1,1,5.6,2.6
					c0.2,0.2,0.3,0.4,0.5,0.6c0.1,0.2,0,0.4-0.2,0.4l-8.4,0.1c-1.2,0-2.3,0.4-3.1,1.2c-0.8,0.8-1.3,1.8-1.3,3.1
					c0,1.2,0.4,2.3,1.3,3.1c0.8,0.8,1.9,1,3.1,1l13.6,0c1.2,0,2.3-0.4,3.1-1.2c0.8-0.8,1.2-2.2,1.2-3.2c0,0,0,0,0,0
					c0-0.5,0-1-0.1-1.5C337.4,79.6,332.2,71.5,322.3,71.5"/>
			</g>
		</g>
		<line class="st3" x1="475.7" y1="158.6" x2="475.7" y2="33.6"/>
		<g>
			<rect x="518.1" y="35.7" class="st4" width="507" height="69.1"/>
			<text transform="matrix(1.0703 0 0 1 518.1416 46.7252)"><tspan x="0" y="0" class="st5 st6 st7">Abrimos</tspan><tspan x="63" y="0" class="st5 st6 st7 st8"> </tspan><tspan x="76.6" y="0" class="st5 st6 st7">las</tspan><tspan x="96.6" y="0" class="st5 st6 st7 st8"> </tspan><tspan x="110.3" y="0" class="st5 st6 st7">puertas</tspan><tspan x="167.3" y="0" class="st5 st6 st7 st8"> </tspan><tspan x="181" y="0" class="st5 st6 st7">de</tspan><tspan x="200" y="0" class="st5 st6 st7 st8"> </tspan><tspan x="213.7" y="0" class="st5 st6 st7">la</tspan><tspan x="226.5" y="0" class="st5 st6 st7 st8"> </tspan><tspan x="240.1" y="0" class="st5 st6 st7">administración</tspan><tspan x="352.4" y="0" class="st5 st6 st7 st8"> </tspan><tspan x="366.1" y="0" class="st5 st6 st7">municipal</tspan><tspan x="441" y="0" class="st5 st6 st7 st8"> </tspan><tspan x="454.7" y="0" class="st5 st6 st7">de </tspan><tspan x="0" y="17.8" class="st5 st6 st7">Villavicencio,</tspan><tspan x="95.3" y="17.8" class="st5 st6 st7 st9"> </tspan><tspan x="101.2" y="17.8" class="st5 st6 st7">para</tspan><tspan x="134.8" y="17.8" class="st5 st6 st7 st9"> </tspan><tspan x="140.7" y="17.8" class="st5 st6 st7">que</tspan><tspan x="169.7" y="17.8" class="st5 st6 st7 st9"> </tspan><tspan x="175.7" y="17.8" class="st5 st6 st7">tú</tspan><tspan x="191.7" y="17.8" class="st5 st6 st7 st9"> </tspan><tspan x="197.6" y="17.8" class="st5 st6 st7">como</tspan><tspan x="240.3" y="17.8" class="st5 st6 st7 st9"> </tspan><tspan x="246.3" y="17.8" class="st5 st6 st7">ciudadano</tspan><tspan x="325.6" y="17.8" class="st5 st6 st7 st9"> </tspan><tspan x="331.5" y="17.8" class="st5 st6 st7">conozcas</tspan><tspan x="400.5" y="17.8" class="st5 st6 st7 st9"> </tspan><tspan x="406.4" y="17.8" class="st5 st6 st7">las</tspan><tspan x="426.5" y="17.8" class="st5 st6 st7 st9"> </tspan><tspan x="432.4" y="17.8" class="st5 st6 st7">obras </tspan><tspan x="0" y="35.6" class="st5 st6 st7">que</tspan><tspan x="29" y="35.6" class="st5 st6 st7 st10"> </tspan><tspan x="34.3" y="35.6" class="st5 st6 st7">estamos</tspan><tspan x="97.6" y="35.6" class="st5 st6 st7 st10"> </tspan><tspan x="102.8" y="35.6" class="st5 st6 st7">realizando</tspan><tspan x="180.2" y="35.6" class="st5 st6 st7 st10"> </tspan><tspan x="185.4" y="35.6" class="st5 st6 st7">en</tspan><tspan x="204.5" y="35.6" class="st5 st6 st7 st10"> </tspan><tspan x="209.7" y="35.6" class="st5 st6 st7">la</tspan><tspan x="222.4" y="35.6" class="st5 st6 st7 st10"> </tspan><tspan x="227.7" y="35.6" class="st5 st6 st7">ciudad</tspan><tspan x="278.9" y="35.6" class="st5 st6 st7 st10"> </tspan><tspan x="284.1" y="35.6" class="st5 st6 st7">y</tspan><tspan x="292.2" y="35.6" class="st5 st6 st7 st10"> </tspan><tspan x="297.4" y="35.6" class="st5 st6 st7">nos</tspan><tspan x="324" y="35.6" class="st5 st6 st7 st10"> </tspan><tspan x="329.3" y="35.6" class="st5 st6 st7">ayudes</tspan><tspan x="382.3" y="35.6" class="st5 st6 st7 st10"> </tspan><tspan x="387.6" y="35.6" class="st5 st6 st7">a</tspan><tspan x="396.3" y="35.6" class="st5 st6 st7 st10"> </tspan><tspan x="401.6" y="35.6" class="st5 st6 st7">realizar</tspan><tspan x="455.5" y="35.6" class="st5 st6 st7 st10"> </tspan><tspan x="460.8" y="35.6" class="st5 st6 st7">el </tspan><tspan x="0" y="53.4" class="st5 st6 st7">seguimiento y control de las mismas.</tspan></text>
			<rect x="518.1" y="118.7" class="st4" width="507" height="39.4"/>
			<text transform="matrix(1.0703 0 0 1 518.1416 129.709)"><tspan x="0" y="0" class="st5 st11 st7">Recorramos</tspan><tspan x="93.9" y="0" class="st5 st11 st7 st12"> </tspan><tspan x="103.6" y="0" class="st5 st11 st7">juntos</tspan><tspan x="152.7" y="0" class="st5 st11 st7 st12"> </tspan><tspan x="162.5" y="0" class="st5 st11 st7">la</tspan><tspan x="176.1" y="0" class="st5 st11 st7 st12"> </tspan><tspan x="185.8" y="0" class="st5 st11 st7">ciudad</tspan><tspan x="239" y="0" class="st5 st11 st7 st12"> </tspan><tspan x="248.7" y="0" class="st5 st11 st7">y</tspan><tspan x="257.6" y="0" class="st5 st11 st7 st12"> </tspan><tspan x="267.4" y="0" class="st5 st11 st7">sigamos</tspan><tspan x="332.4" y="0" class="st5 st11 st7 st12"> </tspan><tspan x="342.2" y="0" class="st5 st11 st7">construyendo</tspan><tspan x="450.3" y="0" class="st5 st11 st7 st12"> </tspan><tspan x="460.1" y="0" class="st5 st11 st7">la </tspan><tspan x="0" y="17.8" class="st5 st11 st7">ciudad del tamaño de nuestros sueños.</tspan></text>
		</g>
	</g>
</g>
</svg>
